<?xml version="1.0" encoding="UTF-8" standalone="no"?>
<!-- Created with Inkscape (http://www.inkscape.org/) -->

<svg
   width="96.728836mm"
   height="44.337387mm"
   viewBox="0 0 96.728841 44.337388"
   version="1.1"
   id="svg5"
   inkscape:version="1.2 (dc2aedaf03, 2022-05-15)"
   sodipodi:docname="EBM-Decorrelation.svg"
   xml:space="preserve"
   inkscape:export-filename="plot\DBM-Decorrelation.png"
   inkscape:export-xdpi="300"
   inkscape:export-ydpi="300"
   xmlns:inkscape="http://www.inkscape.org/namespaces/inkscape"
   xmlns:sodipodi="http://sodipodi.sourceforge.net/DTD/sodipodi-0.dtd"
   xmlns="http://www.w3.org/2000/svg"
   xmlns:svg="http://www.w3.org/2000/svg"><sodipodi:namedview
     id="namedview7"
     pagecolor="#505050"
     bordercolor="#ffffff"
     borderopacity="1"
     inkscape:showpageshadow="0"
     inkscape:pageopacity="0"
     inkscape:pagecheckerboard="1"
     inkscape:deskcolor="#505050"
     inkscape:document-units="mm"
     showgrid="false"
     inkscape:zoom="2.3786088"
     inkscape:cx="164.59201"
     inkscape:cy="86.184832"
     inkscape:window-width="1920"
     inkscape:window-height="1017"
     inkscape:window-x="-8"
     inkscape:window-y="-8"
     inkscape:window-maximized="1"
     inkscape:current-layer="g2379-1-8-0-0"
     showguides="false" /><defs
     id="defs2"><marker
       style="overflow:visible"
       id="marker32387"
       refX="0"
       refY="0"
       orient="auto-start-reverse"
       inkscape:stockid="Arrow2"
       markerWidth="7.6999998"
       markerHeight="5.5999999"
       viewBox="0 0 7.7 5.6"
       inkscape:isstock="true"
       inkscape:collect="always"
       preserveAspectRatio="xMidYMid"><path
         transform="scale(0.7)"
         d="M -2,-4 9,0 -2,4 c 2,-2.33 2,-5.66 0,-8 z"
         style="fill:context-stroke;fill-rule:evenodd;stroke:none"
         id="path32385" /></marker><marker
       style="overflow:visible"
       id="marker32037"
       refX="0"
       refY="0"
       orient="auto-start-reverse"
       inkscape:stockid="Arrow2"
       markerWidth="7.6999998"
       markerHeight="5.5999999"
       viewBox="0 0 7.7 5.6"
       inkscape:isstock="true"
       inkscape:collect="always"
       preserveAspectRatio="xMidYMid"><path
         transform="scale(0.7)"
         d="M -2,-4 9,0 -2,4 c 2,-2.33 2,-5.66 0,-8 z"
         style="fill:context-stroke;fill-rule:evenodd;stroke:none"
         id="path32035" /></marker><marker
       style="overflow:visible"
       id="marker31901"
       refX="0"
       refY="0"
       orient="auto-start-reverse"
       inkscape:stockid="Arrow2"
       markerWidth="7.6999998"
       markerHeight="5.5999999"
       viewBox="0 0 7.7 5.6"
       inkscape:isstock="true"
       inkscape:collect="always"
       preserveAspectRatio="xMidYMid"><path
         transform="scale(0.7)"
         d="M -2,-4 9,0 -2,4 c 2,-2.33 2,-5.66 0,-8 z"
         style="fill:context-stroke;fill-rule:evenodd;stroke:none"
         id="path31899" /></marker><marker
       style="overflow:visible"
       id="marker27447"
       refX="0"
       refY="0"
       orient="auto-start-reverse"
       inkscape:stockid="Arrow2"
       markerWidth="7.6999998"
       markerHeight="5.5999999"
       viewBox="0 0 7.7 5.6"
       inkscape:isstock="true"
       inkscape:collect="always"
       preserveAspectRatio="xMidYMid"><path
         transform="scale(0.7)"
         d="M -2,-4 9,0 -2,4 c 2,-2.33 2,-5.66 0,-8 z"
         style="fill:context-stroke;fill-rule:evenodd;stroke:none"
         id="path27445" /></marker><marker
       style="overflow:visible"
       id="marker26963"
       refX="0"
       refY="0"
       orient="auto-start-reverse"
       inkscape:stockid="Arrow2"
       markerWidth="7.6999998"
       markerHeight="5.5999999"
       viewBox="0 0 7.7 5.6"
       inkscape:isstock="true"
       inkscape:collect="always"
       preserveAspectRatio="xMidYMid"><path
         transform="scale(0.7)"
         d="M -2,-4 9,0 -2,4 c 2,-2.33 2,-5.66 0,-8 z"
         style="fill:context-stroke;fill-rule:evenodd;stroke:none"
         id="path26961" /></marker><marker
       style="overflow:visible"
       id="marker25531"
       refX="0"
       refY="0"
       orient="auto-start-reverse"
       inkscape:stockid="Arrow2"
       markerWidth="7.6999998"
       markerHeight="5.5999999"
       viewBox="0 0 7.7 5.6"
       inkscape:isstock="true"
       inkscape:collect="always"
       preserveAspectRatio="xMidYMid"><path
         transform="scale(0.7)"
         d="M -2,-4 9,0 -2,4 c 2,-2.33 2,-5.66 0,-8 z"
         style="fill:context-stroke;fill-rule:evenodd;stroke:none"
         id="path25529" /></marker><marker
       style="overflow:visible"
       id="Arrow2"
       refX="0"
       refY="0"
       orient="auto-start-reverse"
       inkscape:stockid="Arrow2"
       markerWidth="7.6999998"
       markerHeight="5.5999999"
       viewBox="0 0 7.7 5.6"
       inkscape:isstock="true"
       inkscape:collect="always"
       preserveAspectRatio="xMidYMid"><path
         transform="scale(0.7)"
         d="M -2,-4 9,0 -2,4 c 2,-2.33 2,-5.66 0,-8 z"
         style="fill:context-stroke;fill-rule:evenodd;stroke:none"
         id="arrow2L" /></marker><marker
       style="overflow:visible"
       id="Arrow2-7"
       refX="0"
       refY="0"
       orient="auto-start-reverse"
       inkscape:stockid="Arrow2"
       markerWidth="7.6999998"
       markerHeight="5.5999999"
       viewBox="0 0 7.7 5.6"
       inkscape:isstock="true"
       inkscape:collect="always"
       preserveAspectRatio="xMidYMid"><path
         transform="scale(0.7)"
         d="M -2,-4 9,0 -2,4 c 2,-2.33 2,-5.66 0,-8 z"
         style="fill:context-stroke;fill-rule:evenodd;stroke:none"
         id="arrow2L-80" /></marker><marker
       style="overflow:visible"
       id="marker25531-1"
       refX="0"
       refY="0"
       orient="auto-start-reverse"
       inkscape:stockid="Arrow2"
       markerWidth="7.6999998"
       markerHeight="5.5999999"
       viewBox="0 0 7.7 5.6"
       inkscape:isstock="true"
       inkscape:collect="always"
       preserveAspectRatio="xMidYMid"><path
         transform="scale(0.7)"
         d="M -2,-4 9,0 -2,4 c 2,-2.33 2,-5.66 0,-8 z"
         style="fill:context-stroke;fill-rule:evenodd;stroke:none"
         id="path25529-2" /></marker></defs><g
     inkscape:label="Ebene 1"
     inkscape:groupmode="layer"
     id="layer1"
     transform="translate(15.2767, -50.8591)"><g
       id="g1649"><g
         id="g2379-1-8-0-0"
         transform="matrix(6.12303e-17 1 -1 6.12303e-17 107.507 30.0471)"><text
           xml:space="preserve"
           style="font-style:normal;font-weight:normal;font-size:10.5833px;line-height:1.25;font-family:sans-serif;fill:#000000;fill-opacity:1;stroke:none;stroke-width:0.264583"
           x="66.873611"
           y="12.095996"
           id="text9937-5-4-3"
           transform="rotate(-90)"><tspan
             sodipodi:role="line"
             id="tspan9935-4-2-5"
             style="stroke-width:0.264583"
             x="66.873611"
             y="12.095996" /></text><path
           style="fill:none;stroke:#000000;stroke-width:0.3;stroke-linecap:butt;stroke-linejoin:miter;stroke-dasharray:none;stroke-opacity:1;marker-end:url(#Arrow2-7)"
           d="m 39.857682,104.60502 1.937873,-2.50818"
           id="path48050-4-25-1"
           sodipodi:nodetypes="cc" /><path
           style="fill:none;stroke:#000000;stroke-width:0.3;stroke-linecap:butt;stroke-linejoin:miter;stroke-dasharray:none;stroke-opacity:1;marker-end:url(#marker32037)"
           d="m 49.78144,104.40834 -1.955334,-2.61942"
           id="path48050-4-25-1-1"
           sodipodi:nodetypes="cc" /><circle
           style="fill:#e5e5e5;fill-opacity:1;stroke:#000000;stroke-width:0.339;stroke-linecap:round;stroke-linejoin:round;stroke-dasharray:none;stroke-dashoffset:0;stroke-opacity:1"
           id="path1159"
           cx="-109.64732"
           cy="36.689102"
           r="6.0066624"
           transform="rotate(-90)" /><circle
           style="fill:#e5e5e5;fill-opacity:1;stroke:#000000;stroke-width:0.339;stroke-linecap:round;stroke-linejoin:round;stroke-dasharray:none;stroke-dashoffset:0;stroke-opacity:1"
           id="path1159-5"
           cx="-97.325981"
           cy="44.640759"
           r="3.2258"
           transform="rotate(-90)" /><circle
           style="fill:#e5e5e5;fill-opacity:1;stroke:#000000;stroke-width:0.339;stroke-linecap:round;stroke-linejoin:round;stroke-dasharray:none;stroke-dashoffset:0;stroke-opacity:1"
           id="path1159-55"
           cx="-109.75854"
           cy="52.531998"
           r="6.0066624"
           transform="rotate(-90)" /><circle
           style="fill:#e5e5e5;fill-opacity:1;stroke:#000000;stroke-width:0.339;stroke-linecap:round;stroke-linejoin:round;stroke-dasharray:none;stroke-dashoffset:0;stroke-opacity:1"
           id="path1159-1-2"
           cx="-37.512238"
           cy="44.272896"
           r="6.0066624"
           transform="rotate(-90)" /><path
           style="fill:none;stroke:#000000;stroke-width:0.3;stroke-linecap:butt;stroke-linejoin:miter;stroke-dasharray:2.4, 0.3;stroke-dashoffset:0;stroke-opacity:1;marker-start:url(#marker27447);marker-end:url(#marker32387)"
           d="M 33.494964,101.89223 C 28.913331,87.284082 28.318317,58.53329 38.893249,44.458244"
           id="path48050-4-25-1-43-5"
           sodipodi:nodetypes="cc" /><path
           style="fill:none;stroke:#000000;stroke-width:0.3;stroke-linecap:butt;stroke-linejoin:miter;stroke-dasharray:none;stroke-opacity:1;marker-start:url(#Arrow2);marker-end:url(#marker25531)"
           d="m 44.592426,55.01049 0.04689,-9.063925"
           id="path48050-4-25-1-43-5-6-00"
           sodipodi:nodetypes="cc" /><path
           style="fill:none;stroke:#000000;stroke-width:0.3;stroke-linecap:butt;stroke-linejoin:miter;stroke-dasharray:none;stroke-opacity:1;marker-start:url(#Arrow2-7);marker-end:url(#marker25531-1)"
           d="m 44.592426,91.971173 0.04689,-9.063925"
           id="path48050-4-25-1-43-5-6-00-0"
           sodipodi:nodetypes="cc" /><g
           inkscape:label=""
           transform="rotate(-90,73.515617,38.553622)"
           id="g5796"><g
   fill="#000000"
   fill-opacity="1"
   id="g5794"
   transform="matrix(0.529167,0,0,0.529167,-48.7842,-39.7671)">
    <g
   id="g5792"
   transform="translate(91.925003,81.962997)">
      <path
   d="M 4.828125,-4.09375 4,-6.078125 c -0.03125,-0.078125 -0.046875,-0.125 -0.046875,-0.125 0,-0.0625 0.15625,-0.25 0.578125,-0.296875 0.109375,-0.015625 0.203125,-0.015625 0.203125,-0.1875 0,-0.125 -0.125,-0.125 -0.15625,-0.125 -0.40625,0 -0.828125,0.03125 -1.25,0.03125 -0.25,0 -0.859375,-0.03125 -1.109375,-0.03125 -0.0625,0 -0.1875,0 -0.1875,0.203125 C 2.03125,-6.5 2.140625,-6.5 2.265625,-6.5 c 0.59375,0 0.65625,0.09375 0.75,0.3125 l 1.171875,2.78125 -2.109375,2.265625 -0.125,0.109375 C 1.46875,-0.5 1,-0.34375 0.484375,-0.3125 c -0.125,0.015625 -0.21875,0.015625 -0.21875,0.203125 0,0.015625 0,0.109375 0.140625,0.109375 0.296875,0 0.625,-0.03125 0.921875,-0.03125 C 1.703125,-0.03125 2.09375,0 2.453125,0 2.515625,0 2.625,0 2.625,-0.203125 2.625,-0.296875 2.53125,-0.3125 2.515625,-0.3125 c -0.09375,0 -0.40625,-0.03125 -0.40625,-0.3125 0,-0.15625 0.15625,-0.3125 0.265625,-0.4375 L 3.40625,-2.140625 4.296875,-3.125 l 1,2.390625 c 0.046875,0.109375 0.0625,0.109375 0.0625,0.140625 0,0.078125 -0.203125,0.25 -0.578125,0.28125 C 4.671875,-0.296875 4.578125,-0.296875 4.578125,-0.125 4.578125,0 4.6875,0 4.71875,0 5,0 5.703125,-0.03125 5.984375,-0.03125 6.234375,-0.03125 6.84375,0 7.09375,0 c 0.0625,0 0.1875,0 0.1875,-0.1875 0,-0.125 -0.109375,-0.125 -0.1875,-0.125 -0.65625,0 -0.6875,-0.03125 -0.859375,-0.4375 C 5.859375,-1.671875 5.1875,-3.234375 4.953125,-3.828125 5.625,-4.53125 6.671875,-5.71875 7,-5.984375 7.28125,-6.234375 7.671875,-6.46875 8.265625,-6.5 c 0.125,-0.015625 0.21875,-0.015625 0.21875,-0.203125 0,0 0,-0.109375 -0.125,-0.109375 -0.296875,0 -0.640625,0.03125 -0.9375,0.03125 -0.375,0 -0.75,-0.03125 -1.109375,-0.03125 -0.0625,0 -0.1875,0 -0.1875,0.203125 0,0.0625 0.046875,0.09375 0.109375,0.109375 0.09375,0.015625 0.40625,0.03125 0.40625,0.3125 0,0.140625 -0.109375,0.265625 -0.1875,0.359375 z m 0,0"
   id="path5790" />
    </g>
  </g>
</g><g
           inkscape:label=""
           transform="rotate(-90,81.162262,30.261473)"
           id="g6410"><g
   fill="#000000"
   fill-opacity="1"
   id="g6408"
   transform="matrix(0.529167,0,0,0.529167,-48.8255,-39.7671)">
    <g
   id="g6406"
   transform="translate(91.925003,81.962997)">
      <path
   d="M 5.953125,-5.671875 6.09375,-5.8125 C 6.390625,-6.109375 6.71875,-6.453125 7.390625,-6.5 7.5,-6.515625 7.59375,-6.515625 7.59375,-6.6875 c 0,-0.078125 -0.046875,-0.125 -0.125,-0.125 -0.265625,0 -0.546875,0.03125 -0.8125,0.03125 -0.34375,0 -0.6875,-0.03125 -1,-0.03125 -0.0625,0 -0.1875,0 -0.1875,0.1875 0,0.109375 0.09375,0.125 0.140625,0.125 0.078125,0 0.359375,0.015625 0.359375,0.234375 0,0.171875 -0.234375,0.421875 -0.265625,0.46875 L 3.390625,-3.125 2.296875,-6.09375 C 2.234375,-6.234375 2.234375,-6.25 2.234375,-6.265625 2.234375,-6.5 2.71875,-6.5 2.828125,-6.5 c 0.125,0 0.234375,0 0.234375,-0.203125 0,-0.109375 -0.125,-0.109375 -0.15625,-0.109375 -0.28125,0 -0.96875,0.03125 -1.25,0.03125 -0.25,0 -0.875,-0.03125 -1.125,-0.03125 -0.046875,0 -0.1875,0 -0.1875,0.203125 C 0.34375,-6.5 0.453125,-6.5 0.578125,-6.5 c 0.59375,0 0.640625,0.09375 0.734375,0.34375 L 2.53125,-2.875 c 0.015625,0.03125 0.046875,0.140625 0.046875,0.15625 0,0.03125 -0.40625,1.640625 -0.453125,1.828125 C 2,-0.34375 1.984375,-0.3125 1.1875,-0.3125 c -0.1875,0 -0.265625,0 -0.265625,0.203125 C 0.921875,0 1.03125,0 1.0625,0 c 0.265625,0 0.96875,-0.03125 1.25,-0.03125 0.28125,0 1,0.03125 1.28125,0.03125 0.0625,0 0.1875,0 0.1875,-0.203125 C 3.78125,-0.3125 3.6875,-0.3125 3.5,-0.3125 c -0.015625,0 -0.203125,0 -0.375,-0.015625 C 2.90625,-0.34375 2.84375,-0.375 2.84375,-0.484375 c 0,-0.078125 0.09375,-0.421875 0.140625,-0.625 l 0.359375,-1.40625 c 0.046875,-0.203125 0.0625,-0.21875 0.140625,-0.3125 z m 0,0"
   id="path6404" />
    </g>
  </g>
</g><g
           inkscape:label=""
           transform="matrix(0,-1.1767092,1.1767092,0,43.253883,98.800494)"
           id="g1152"><g
   fill="#000000"
   fill-opacity="1"
   id="g1150"
   transform="matrix(0.529167,0,0,0.529167,-49.4209,-40.7841)">
    <g
   id="g1148"
   transform="translate(91.925003,81.962997)">
      <path
   d="M 3.875,-2.765625 1.890625,-4.75 C 1.765625,-4.875 1.75,-4.890625 1.671875,-4.890625 1.5625,-4.890625 1.46875,-4.8125 1.46875,-4.6875 c 0,0.0625 0.015625,0.078125 0.125,0.1875 l 2,2 -2,2.015625 c -0.109375,0.109375 -0.125,0.125 -0.125,0.1875 0,0.125 0.09375,0.203125 0.203125,0.203125 0.078125,0 0.09375,-0.015625 0.21875,-0.140625 L 3.875,-2.21875 l 2.0625,2.0625 c 0.015625,0.015625 0.078125,0.0625 0.140625,0.0625 0.125,0 0.203125,-0.078125 0.203125,-0.203125 0,-0.015625 0,-0.046875 -0.03125,-0.109375 C 6.234375,-0.421875 4.65625,-1.984375 4.15625,-2.5 l 1.828125,-1.8125 c 0.046875,-0.0625 0.203125,-0.1875 0.25,-0.25 0,-0.015625 0.046875,-0.0625 0.046875,-0.125 0,-0.125 -0.078125,-0.203125 -0.203125,-0.203125 C 6,-4.890625 5.96875,-4.859375 5.859375,-4.75 Z m 0,0"
   id="path1146" />
    </g>
  </g>
</g><path
           style="fill:none;stroke:#000000;stroke-width:0.3;stroke-linecap:butt;stroke-linejoin:miter;stroke-dasharray:0.3, 0.9;stroke-dashoffset:0;stroke-opacity:1;marker-start:url(#marker26963);marker-end:url(#marker31901)"
           d="m 44.585595,71.95105 0.04689,-5.452956"
           id="path48050-4-25-1-43-5-6-0"
           sodipodi:nodetypes="cc" /><g
           inkscape:label=""
           transform="rotate(-90,55.704131,12.877714)"
           id="g21738"><g
   fill="#000000"
   fill-opacity="1"
   id="g16"
   transform="matrix(0.529167,0,0,0.529167,-48.321233,-39.7671)">
    <g
   id="use14"
   transform="translate(91.925003,81.962997)">
      
    </g>
  </g>
  
</g><g
           inkscape:label=""
           transform="rotate(-90,51.102832,26.524297)"
           id="g22813"><g
   fill="#000000"
   fill-opacity="1"
   id="g12"
   transform="matrix(0.529167,0,0,0.529167,-48.9248,-39.6514)">
    <g
   id="use10"
   transform="translate(91.925003,81.962997)">
      <path
   d="m 3.65625,-3.984375 h 0.859375 c 0.203125,0 0.296875,0 0.296875,-0.203125 0,-0.109375 -0.09375,-0.109375 -0.265625,-0.109375 H 3.71875 L 3.921875,-5.4375 c 0.046875,-0.203125 0.1875,-0.90625 0.25,-1.03125 0.078125,-0.1875 0.25,-0.34375 0.46875,-0.34375 0.03125,0 0.296875,0 0.484375,0.1875 -0.4375,0.03125 -0.546875,0.390625 -0.546875,0.53125 0,0.234375 0.1875,0.359375 0.375,0.359375 C 5.21875,-5.734375 5.5,-5.96875 5.5,-6.34375 c 0,-0.453125 -0.453125,-0.6875 -0.859375,-0.6875 -0.34375,0 -0.96875,0.1875 -1.265625,1.171875 -0.0625,0.203125 -0.09375,0.3125 -0.328125,1.5625 h -0.6875 c -0.203125,0 -0.3125,0 -0.3125,0.1875 0,0.125 0.09375,0.125 0.28125,0.125 h 0.65625 L 2.25,-0.046875 c -0.1875,0.96875 -0.359375,1.875 -0.875,1.875 -0.046875,0 -0.28125,0 -0.484375,-0.1875 C 1.359375,1.609375 1.453125,1.25 1.453125,1.109375 1.453125,0.875 1.265625,0.75 1.078125,0.75 0.8125,0.75 0.53125,0.984375 0.53125,1.359375 c 0,0.4375 0.4375,0.6875 0.84375,0.6875 0.546875,0 0.953125,-0.59375 1.125,-0.96875 0.328125,-0.625 0.546875,-1.828125 0.5625,-1.90625 z m 0,0"
   id="path22819" />
    </g>
  </g>
</g><g
           inkscape:label=""
           transform="rotate(-90,41.608767,-0.49018244)"
           id="g24594"><g
   fill="#000000"
   fill-opacity="1"
   id="g24589"
   transform="matrix(0.529167,0,0,0.529167,-48.8504,-39.7671)">
    <g
   id="g24587"
   transform="translate(91.925003,81.962997)">
      <path
   d="M 7.609375,-6.046875 C 7.703125,-6.40625 7.71875,-6.5 8.4375,-6.5 c 0.265625,0 0.34375,0 0.34375,-0.203125 0,-0.109375 -0.109375,-0.109375 -0.140625,-0.109375 -0.28125,0 -1,0.03125 -1.28125,0.03125 -0.28125,0 -0.984375,-0.03125 -1.28125,-0.03125 -0.078125,0 -0.1875,0 -0.1875,0.203125 0,0.109375 0.09375,0.109375 0.28125,0.109375 0.015625,0 0.203125,0 0.375,0.015625 0.1875,0.03125 0.265625,0.03125 0.265625,0.171875 0,0.03125 0,0.046875 -0.03125,0.1875 L 6.1875,-3.703125 H 3.140625 l 0.59375,-2.34375 C 3.8125,-6.40625 3.84375,-6.5 4.5625,-6.5 c 0.265625,0 0.34375,0 0.34375,-0.203125 0,-0.109375 -0.109375,-0.109375 -0.140625,-0.109375 -0.28125,0 -1,0.03125 -1.28125,0.03125 -0.28125,0 -0.984375,-0.03125 -1.28125,-0.03125 -0.078125,0 -0.1875,0 -0.1875,0.203125 0,0.109375 0.09375,0.109375 0.28125,0.109375 0.015625,0 0.203125,0 0.375,0.015625 0.171875,0.03125 0.265625,0.03125 0.265625,0.171875 0,0.03125 0,0.0625 -0.03125,0.1875 L 1.5625,-0.78125 c -0.09375,0.390625 -0.109375,0.46875 -0.90625,0.46875 -0.171875,0 -0.265625,0 -0.265625,0.203125 C 0.390625,0 0.515625,0 0.53125,0 0.8125,0 1.515625,-0.03125 1.796875,-0.03125 2,-0.03125 2.21875,-0.015625 2.4375,-0.015625 2.65625,-0.015625 2.875,0 3.078125,0 3.15625,0 3.28125,0 3.28125,-0.203125 3.28125,-0.3125 3.1875,-0.3125 3,-0.3125 c -0.375,0 -0.640625,0 -0.640625,-0.171875 0,-0.0625 0.015625,-0.109375 0.015625,-0.171875 l 0.6875,-2.734375 h 3.03125 c -0.40625,1.65625 -0.640625,2.609375 -0.6875,2.75 C 5.3125,-0.3125 5.125,-0.3125 4.5,-0.3125 c -0.140625,0 -0.234375,0 -0.234375,0.203125 C 4.265625,0 4.390625,0 4.40625,0 4.6875,0 5.390625,-0.03125 5.671875,-0.03125 5.875,-0.03125 6.09375,-0.015625 6.3125,-0.015625 6.53125,-0.015625 6.75,0 6.953125,0 7.03125,0 7.15625,0 7.15625,-0.203125 7.15625,-0.3125 7.0625,-0.3125 6.875,-0.3125 c -0.359375,0 -0.640625,0 -0.640625,-0.171875 0,-0.0625 0.015625,-0.109375 0.03125,-0.171875 z m 0,0"
   id="path24682" />
    </g>
  </g>
  <g
   fill="#000000"
   fill-opacity="1"
   id="g20"
   transform="matrix(0.529167,0,0,0.529167,-48.8504,-39.7671)">
    <g
   id="use18"
   transform="translate(100.207,83.457001)">
      <path
   d="M 1.328125,-0.546875 C 1.265625,-0.3125 1.25,-0.25 0.703125,-0.25 0.59375,-0.25 0.5,-0.25 0.5,-0.109375 0.5,0 0.578125,0 0.703125,0 H 3.40625 c 1.171875,0 2.078125,-0.796875 2.078125,-1.484375 0,-0.5 -0.453125,-0.921875 -1.203125,-1 0.84375,-0.15625 1.546875,-0.6875 1.546875,-1.28125 0,-0.53125 -0.53125,-1 -1.4375,-1 h -2.53125 c -0.140625,0 -0.234375,0 -0.234375,0.15625 0,0.09375 0.09375,0.09375 0.234375,0.09375 0,0 0.140625,0 0.265625,0.015625 0.140625,0.015625 0.15625,0.03125 0.15625,0.109375 0,0 0,0.046875 -0.03125,0.140625 z m 1.109375,-2.03125 0.421875,-1.6875 c 0.0625,-0.21875 0.0625,-0.25 0.359375,-0.25 h 1.0625 c 0.703125,0 0.875,0.46875 0.875,0.734375 0,0.5625 -0.640625,1.203125 -1.578125,1.203125 z M 2.109375,-0.25 C 1.890625,-0.25 1.875,-0.265625 1.875,-0.328125 c 0,0 0,-0.03125 0.03125,-0.140625 L 2.390625,-2.375 H 3.875 c 0.640625,0 0.90625,0.4375 0.90625,0.828125 0,0.703125 -0.71875,1.296875 -1.5625,1.296875 z m 0,0"
   id="path30" />
    </g>
  </g>
</g><circle
           style="fill:#e5e5e5;fill-opacity:1;stroke:#000000;stroke-width:0.339;stroke-linecap:round;stroke-linejoin:round;stroke-dasharray:none;stroke-dashoffset:0;stroke-opacity:1"
           id="path1159-1-2-4"
           cx="-60.742962"
           cy="44.851833"
           r="3.0964398"
           transform="rotate(-90)" /><circle
           style="fill:#e5e5e5;fill-opacity:1;stroke:#000000;stroke-width:0.339;stroke-linecap:round;stroke-linejoin:round;stroke-dasharray:none;stroke-dashoffset:0;stroke-opacity:1"
           id="path1159-1-2-4-6"
           cx="-77.103142"
           cy="44.851833"
           r="3.0964398"
           transform="rotate(-90)" /><g
           inkscape:label=""
           transform="rotate(-90,65.095988,24.372985)"
           id="g36650"><g
   fill="#000000"
   fill-opacity="1"
   id="g36642"
   transform="matrix(0.352778,0,0,0.352778,-32.622,-26.5114)">
    <g
   id="g36640"
   transform="translate(91.925003,81.962997)">
      <path
   d="m 9.140625,-5.65625 c 0.25,-0.4375 0.484375,-0.796875 1.125,-0.84375 0.07813,-0.015625 0.1875,-0.015625 0.1875,-0.203125 0,-0.03125 -0.04687,-0.109375 -0.125,-0.109375 -0.234375,0 -0.515625,0.03125 -0.765625,0.03125 -0.34375,0 -0.703125,-0.03125 -1.046875,-0.03125 -0.046875,0 -0.1875,0 -0.1875,0.1875 0,0.109375 0.09375,0.125 0.15625,0.125 0.234375,0.015625 0.59375,0.09375 0.59375,0.390625 0,0.109375 -0.0625,0.1875 -0.140625,0.328125 L 6.25,-1.09375 5.875,-6.03125 c 0,-0.203125 -0.015625,-0.453125 0.703125,-0.46875 0.171875,0 0.265625,0 0.265625,-0.203125 0,-0.09375 -0.109375,-0.109375 -0.140625,-0.109375 -0.40625,0 -0.828125,0.03125 -1.21875,0.03125 -0.234375,0 -0.8125,-0.03125 -1.046875,-0.03125 -0.0625,0 -0.1875,0 -0.1875,0.203125 C 4.25,-6.5 4.34375,-6.5 4.484375,-6.5 4.921875,-6.5 5,-6.4375 5.015625,-6.25 l 0.0625,0.765625 -2.53125,4.390625 -0.375,-5.046875 c 0,-0.125 0,-0.34375 0.765625,-0.359375 0.09375,0 0.203125,0 0.203125,-0.203125 C 3.140625,-6.8125 3.015625,-6.8125 3,-6.8125 c -0.390625,0 -0.8125,0.03125 -1.21875,0.03125 -0.359375,0 -0.71875,-0.03125 -1.046875,-0.03125 -0.0625,0 -0.1875,0 -0.1875,0.1875 0,0.125 0.09375,0.125 0.25,0.125 0.5,0 0.515625,0.09375 0.53125,0.375 l 0.453125,6.078125 c 0,0.1875 0.015625,0.265625 0.15625,0.265625 0.109375,0 0.140625,-0.0625 0.234375,-0.203125 l 2.9375,-5.09375 0.359375,5.03125 C 5.5,0.171875 5.515625,0.21875 5.625,0.21875 c 0.140625,0 0.203125,-0.09375 0.25,-0.1875 z m 0,0"
   id="path26" />
    </g>
  </g>
  <g
   fill="#000000"
   fill-opacity="1"
   id="g36648"
   transform="matrix(0.352778,0,0,0.352778,-32.622,-26.5114)">
    <g
   id="g36646"
   transform="translate(101.334,83.457001)">
      <path
   d="m 2.328125,-4.4375 c 0,-0.1875 0,-0.1875 -0.203125,-0.1875 -0.453125,0.4375 -1.078125,0.4375 -1.359375,0.4375 v 0.25 c 0.15625,0 0.625,0 1,-0.1875 v 3.546875 c 0,0.234375 0,0.328125 -0.6875,0.328125 H 0.8125 V 0 c 0.125,0 0.984375,-0.03125 1.234375,-0.03125 0.21875,0 1.09375,0.03125 1.25,0.03125 V -0.25 H 3.03125 c -0.703125,0 -0.703125,-0.09375 -0.703125,-0.328125 z m 0,0"
   id="path36644" />
    </g>
  </g>
</g><g
           inkscape:label=""
           transform="rotate(-90,46.631063,6.0192942)"
           id="g37701"><g
   fill="#000000"
   fill-opacity="1"
   id="g37693"
   transform="matrix(0.352778,0,0,0.352778,-32.622,-26.5114)">
    <g
   id="g37691"
   transform="translate(91.925003,81.962997)">
      <path
   d="m 9.140625,-5.65625 c 0.25,-0.4375 0.484375,-0.796875 1.125,-0.84375 0.07813,-0.015625 0.1875,-0.015625 0.1875,-0.203125 0,-0.03125 -0.04687,-0.109375 -0.125,-0.109375 -0.234375,0 -0.515625,0.03125 -0.765625,0.03125 -0.34375,0 -0.703125,-0.03125 -1.046875,-0.03125 -0.046875,0 -0.1875,0 -0.1875,0.1875 0,0.109375 0.09375,0.125 0.15625,0.125 0.234375,0.015625 0.59375,0.09375 0.59375,0.390625 0,0.109375 -0.0625,0.1875 -0.140625,0.328125 L 6.25,-1.09375 5.875,-6.03125 c 0,-0.203125 -0.015625,-0.453125 0.703125,-0.46875 0.171875,0 0.265625,0 0.265625,-0.203125 0,-0.09375 -0.109375,-0.109375 -0.140625,-0.109375 -0.40625,0 -0.828125,0.03125 -1.21875,0.03125 -0.234375,0 -0.8125,-0.03125 -1.046875,-0.03125 -0.0625,0 -0.1875,0 -0.1875,0.203125 C 4.25,-6.5 4.34375,-6.5 4.484375,-6.5 4.921875,-6.5 5,-6.4375 5.015625,-6.25 l 0.0625,0.765625 -2.53125,4.390625 -0.375,-5.046875 c 0,-0.125 0,-0.34375 0.765625,-0.359375 0.09375,0 0.203125,0 0.203125,-0.203125 C 3.140625,-6.8125 3.015625,-6.8125 3,-6.8125 c -0.390625,0 -0.8125,0.03125 -1.21875,0.03125 -0.359375,0 -0.71875,-0.03125 -1.046875,-0.03125 -0.0625,0 -0.1875,0 -0.1875,0.1875 0,0.125 0.09375,0.125 0.25,0.125 0.5,0 0.515625,0.09375 0.53125,0.375 l 0.453125,6.078125 c 0,0.1875 0.015625,0.265625 0.15625,0.265625 0.109375,0 0.140625,-0.0625 0.234375,-0.203125 l 2.9375,-5.09375 0.359375,5.03125 C 5.5,0.171875 5.515625,0.21875 5.625,0.21875 c 0.140625,0 0.203125,-0.09375 0.25,-0.1875 z m 0,0"
   id="path37689" />
    </g>
  </g>
  <g
   fill="#000000"
   fill-opacity="1"
   id="g37699"
   transform="matrix(0.352778,0,0,0.352778,-32.622,-26.5114)">
    <g
   id="g37697"
   transform="translate(101.334,83.457001)">
      <path
   d="m 0.84375,-0.4375 c -0.015625,0.09375 -0.0625,0.265625 -0.0625,0.28125 0,0.15625 0.125,0.21875 0.234375,0.21875 0.125,0 0.234375,-0.078125 0.28125,-0.140625 0.03125,-0.0625 0.078125,-0.296875 0.125,-0.4375 0.03125,-0.125 0.109375,-0.453125 0.140625,-0.625 0.046875,-0.15625 0.09375,-0.3125 0.125,-0.46875 0.078125,-0.28125 0.09375,-0.34375 0.296875,-0.625 C 2.171875,-2.515625 2.5,-2.875 3.03125,-2.875 c 0.390625,0 0.40625,0.359375 0.40625,0.484375 0,0.421875 -0.296875,1.1875 -0.40625,1.484375 -0.078125,0.203125 -0.109375,0.265625 -0.109375,0.375 0,0.375 0.296875,0.59375 0.65625,0.59375 0.703125,0 1,-0.953125 1,-1.0625 0,-0.09375 -0.078125,-0.09375 -0.109375,-0.09375 -0.09375,0 -0.09375,0.046875 -0.125,0.125 C 4.1875,-0.40625 3.875,-0.125 3.609375,-0.125 c -0.15625,0 -0.1875,-0.09375 -0.1875,-0.25 0,-0.15625 0.046875,-0.25 0.171875,-0.5625 0.078125,-0.21875 0.359375,-0.953125 0.359375,-1.34375 0,-0.671875 -0.53125,-0.796875 -0.90625,-0.796875 -0.578125,0 -0.96875,0.359375 -1.171875,0.640625 -0.046875,-0.484375 -0.453125,-0.640625 -0.75,-0.640625 -0.296875,0 -0.453125,0.21875 -0.546875,0.375 -0.15625,0.265625 -0.25,0.65625 -0.25,0.703125 0,0.078125 0.09375,0.078125 0.125,0.078125 0.09375,0 0.09375,-0.015625 0.140625,-0.203125 0.109375,-0.40625 0.25,-0.75 0.515625,-0.75 0.1875,0 0.234375,0.15625 0.234375,0.34375 0,0.125 -0.0625,0.390625 -0.125,0.578125 -0.046875,0.1875 -0.109375,0.46875 -0.140625,0.625 z m 0,0"
   id="path37695" />
    </g>
  </g>
</g><g
           inkscape:label=""
           transform="rotate(-90,58.088215,20.03484)"
           id="g38766"><g
   fill="#000000"
   fill-opacity="1"
   id="g38758"
   transform="matrix(0.352778,0,0,0.352778,-32.5945,-26.4728)">
    <g
   id="g38756"
   transform="translate(91.925003,81.962997)">
      <path
   d="m 2.375,-6.8125 c 0,0 0,-0.109375 -0.125,-0.109375 -0.21875,0 -0.953125,0.078125 -1.21875,0.109375 -0.078125,0 -0.1875,0.015625 -0.1875,0.1875 0,0.125 0.09375,0.125 0.25,0.125 0.46875,0 0.484375,0.0625 0.484375,0.171875 0,0.0625 -0.078125,0.40625 -0.125,0.609375 l -0.828125,3.25 c -0.109375,0.5 -0.15625,0.671875 -0.15625,1.015625 0,0.9375 0.53125,1.5625 1.265625,1.5625 1.171875,0 2.40625,-1.484375 2.40625,-2.921875 0,-0.90625 -0.53125,-1.59375 -1.328125,-1.59375 -0.453125,0 -0.875,0.296875 -1.171875,0.59375 z M 1.453125,-3.046875 C 1.5,-3.265625 1.5,-3.28125 1.59375,-3.390625 2.078125,-4.03125 2.53125,-4.1875 2.796875,-4.1875 c 0.359375,0 0.625,0.296875 0.625,0.9375 0,0.59375 -0.328125,1.734375 -0.515625,2.109375 -0.328125,0.671875 -0.78125,1.03125 -1.171875,1.03125 -0.34375,0 -0.671875,-0.265625 -0.671875,-1 0,-0.203125 0,-0.390625 0.15625,-1.015625 z m 0,0"
   id="path38754" />
    </g>
  </g>
  <g
   fill="#000000"
   fill-opacity="1"
   id="g38764"
   transform="matrix(0.352778,0,0,0.352778,-32.5945,-26.4728)">
    <g
   id="g38762"
   transform="translate(96.200996,83.457001)">
      <path
   d="m 2.328125,-4.4375 c 0,-0.1875 0,-0.1875 -0.203125,-0.1875 -0.453125,0.4375 -1.078125,0.4375 -1.359375,0.4375 v 0.25 c 0.15625,0 0.625,0 1,-0.1875 v 3.546875 c 0,0.234375 0,0.328125 -0.6875,0.328125 H 0.8125 V 0 c 0.125,0 0.984375,-0.03125 1.234375,-0.03125 0.21875,0 1.09375,0.03125 1.25,0.03125 V -0.25 H 3.03125 c -0.703125,0 -0.703125,-0.09375 -0.703125,-0.328125 z m 0,0"
   id="path38760" />
    </g>
  </g>
</g><g
           inkscape:label=""
           transform="rotate(-90,36.550839,2.2794359)"
           id="g39845"><g
   fill="#000000"
   fill-opacity="1"
   id="g39837"
   transform="matrix(0.352778,0,0,0.352778,-32.5945,-26.4728)">
    <g
   id="g39835"
   transform="translate(91.925003,81.962997)">
      <path
   d="m 2.375,-6.8125 c 0,0 0,-0.109375 -0.125,-0.109375 -0.21875,0 -0.953125,0.078125 -1.21875,0.109375 -0.078125,0 -0.1875,0.015625 -0.1875,0.1875 0,0.125 0.09375,0.125 0.25,0.125 0.46875,0 0.484375,0.0625 0.484375,0.171875 0,0.0625 -0.078125,0.40625 -0.125,0.609375 l -0.828125,3.25 c -0.109375,0.5 -0.15625,0.671875 -0.15625,1.015625 0,0.9375 0.53125,1.5625 1.265625,1.5625 1.171875,0 2.40625,-1.484375 2.40625,-2.921875 0,-0.90625 -0.53125,-1.59375 -1.328125,-1.59375 -0.453125,0 -0.875,0.296875 -1.171875,0.59375 z M 1.453125,-3.046875 C 1.5,-3.265625 1.5,-3.28125 1.59375,-3.390625 2.078125,-4.03125 2.53125,-4.1875 2.796875,-4.1875 c 0.359375,0 0.625,0.296875 0.625,0.9375 0,0.59375 -0.328125,1.734375 -0.515625,2.109375 -0.328125,0.671875 -0.78125,1.03125 -1.171875,1.03125 -0.34375,0 -0.671875,-0.265625 -0.671875,-1 0,-0.203125 0,-0.390625 0.15625,-1.015625 z m 0,0"
   id="path39833" />
    </g>
  </g>
  <g
   fill="#000000"
   fill-opacity="1"
   id="g39843"
   transform="matrix(0.352778,0,0,0.352778,-32.5945,-26.4728)">
    <g
   id="g39841"
   transform="translate(96.200996,83.457001)">
      <path
   d="m 0.84375,-0.4375 c -0.015625,0.09375 -0.0625,0.265625 -0.0625,0.28125 0,0.15625 0.125,0.21875 0.234375,0.21875 0.125,0 0.234375,-0.078125 0.28125,-0.140625 0.03125,-0.0625 0.078125,-0.296875 0.125,-0.4375 0.03125,-0.125 0.109375,-0.453125 0.140625,-0.625 0.046875,-0.15625 0.09375,-0.3125 0.125,-0.46875 0.078125,-0.28125 0.09375,-0.34375 0.296875,-0.625 C 2.171875,-2.515625 2.5,-2.875 3.03125,-2.875 c 0.390625,0 0.40625,0.359375 0.40625,0.484375 0,0.421875 -0.296875,1.1875 -0.40625,1.484375 -0.078125,0.203125 -0.109375,0.265625 -0.109375,0.375 0,0.375 0.296875,0.59375 0.65625,0.59375 0.703125,0 1,-0.953125 1,-1.0625 0,-0.09375 -0.078125,-0.09375 -0.109375,-0.09375 -0.09375,0 -0.09375,0.046875 -0.125,0.125 C 4.1875,-0.40625 3.875,-0.125 3.609375,-0.125 c -0.15625,0 -0.1875,-0.09375 -0.1875,-0.25 0,-0.15625 0.046875,-0.25 0.171875,-0.5625 0.078125,-0.21875 0.359375,-0.953125 0.359375,-1.34375 0,-0.671875 -0.53125,-0.796875 -0.90625,-0.796875 -0.578125,0 -0.96875,0.359375 -1.171875,0.640625 -0.046875,-0.484375 -0.453125,-0.640625 -0.75,-0.640625 -0.296875,0 -0.453125,0.21875 -0.546875,0.375 -0.15625,0.265625 -0.25,0.65625 -0.25,0.703125 0,0.078125 0.09375,0.078125 0.125,0.078125 0.09375,0 0.09375,-0.015625 0.140625,-0.203125 0.109375,-0.40625 0.25,-0.75 0.515625,-0.75 0.1875,0 0.234375,0.15625 0.234375,0.34375 0,0.125 -0.0625,0.390625 -0.125,0.578125 -0.046875,0.1875 -0.109375,0.46875 -0.140625,0.625 z m 0,0"
   id="path39839" />
    </g>
  </g>
</g><g
           inkscape:label=""
           transform="rotate(-90,70.768947,43.616551)"
           id="g40941"><g
   fill="#000000"
   fill-opacity="1"
   id="g22"
   transform="matrix(0.352778,0,0,0.352778,-32.5338,-27.3603)">
    <g
   id="use20"
   transform="translate(91.925003,81.962997)">
      <path
   d="m 2.296875,-3.5 c 0.0625,-0.203125 0.15625,-0.59375 0.15625,-0.640625 0,-0.171875 -0.125,-0.265625 -0.296875,-0.265625 -0.015625,0 -0.296875,0.015625 -0.390625,0.359375 l -1.4375,5.765625 c -0.03125,0.125 -0.03125,0.140625 -0.03125,0.171875 0,0.140625 0.109375,0.265625 0.28125,0.265625 0.203125,0 0.328125,-0.1875 0.34375,-0.21875 C 0.96875,1.859375 1.09375,1.328125 1.46875,-0.203125 1.796875,0.0625 2.25,0.109375 2.4375,0.109375 c 0.703125,0 1.09375,-0.453125 1.328125,-0.734375 0.09375,0.453125 0.46875,0.734375 0.90625,0.734375 0.34375,0 0.578125,-0.234375 0.734375,-0.546875 0.171875,-0.359375 0.296875,-0.96875 0.296875,-0.984375 0,-0.109375 -0.09375,-0.109375 -0.125,-0.109375 -0.09375,0 -0.109375,0.046875 -0.140625,0.1875 -0.15625,0.640625 -0.34375,1.234375 -0.75,1.234375 -0.265625,0 -0.296875,-0.265625 -0.296875,-0.453125 0,-0.21875 0.109375,-0.6875 0.1875,-1.046875 L 4.859375,-2.6875 C 4.890625,-2.828125 5,-3.203125 5.03125,-3.359375 5.078125,-3.59375 5.1875,-3.96875 5.1875,-4.03125 c 0,-0.171875 -0.140625,-0.265625 -0.296875,-0.265625 -0.046875,0 -0.3125,0.015625 -0.390625,0.34375 l -0.46875,1.875 c -0.109375,0.5 -0.21875,0.90625 -0.25,1.015625 -0.015625,0.046875 -0.484375,0.953125 -1.296875,0.953125 -0.5,0 -0.734375,-0.328125 -0.734375,-0.875 0,-0.28125 0.0625,-0.5625 0.140625,-0.84375 z m 0,0"
   id="path44" />
    </g>
  </g>
  <g
   fill="#000000"
   fill-opacity="1"
   id="g26"
   transform="matrix(0.352778,0,0,0.352778,-32.5338,-27.3603)">
    <g
   id="use24"
   transform="translate(97.928001,83.457001)">
      <path
   d="m 3.875,-2.65625 0.65625,-0.671875 c 0.890625,-0.875 1.171875,-1.140625 1.796875,-1.1875 0.09375,0 0.171875,0 0.171875,-0.140625 0,-0.078125 -0.078125,-0.109375 -0.09375,-0.109375 -0.203125,0 -0.453125,0.03125 -0.65625,0.03125 -0.1875,0 -0.625,-0.03125 -0.8125,-0.03125 -0.046875,0 -0.140625,0.03125 -0.140625,0.15625 0,0.015625 0,0.09375 0.109375,0.09375 0.0625,0.015625 0.234375,0.03125 0.234375,0.1875 0,0.09375 -0.109375,0.203125 -0.171875,0.28125 C 4.90625,-4 4.03125,-3.140625 3.765625,-2.875 L 3.0625,-4.234375 C 3.046875,-4.265625 3.03125,-4.3125 3.03125,-4.328125 c 0,-0.0625 0.125,-0.171875 0.375,-0.1875 0.046875,0 0.140625,0 0.140625,-0.140625 0,-0.015625 0,-0.109375 -0.125,-0.109375 -0.140625,0 -0.3125,0.03125 -0.453125,0.03125 -0.15625,0 -0.3125,0 -0.453125,0 -0.125,0 -0.296875,0 -0.421875,0 -0.109375,-0.015625 -0.265625,-0.03125 -0.375,-0.03125 -0.03125,0 -0.140625,0 -0.140625,0.15625 0,0.09375 0.09375,0.09375 0.203125,0.09375 0.40625,0 0.4375,0.078125 0.5,0.21875 L 3.265625,-2.375 2.875,-1.984375 c -0.140625,0.125 -0.46875,0.4375 -0.59375,0.5625 -0.84375,0.84375 -1.125,1.140625 -1.765625,1.171875 -0.09375,0 -0.171875,0 -0.171875,0.15625 C 0.34375,-0.0625 0.375,0 0.453125,0 c 0.1875,0 0.4375,-0.03125 0.640625,-0.03125 0.125,0 0.296875,0 0.40625,0.015625 C 1.625,-0.015625 1.78125,0 1.90625,0 1.9375,0 2.046875,0 2.046875,-0.140625 2.046875,-0.25 1.96875,-0.25 1.921875,-0.25 c -0.0625,-0.015625 -0.21875,-0.03125 -0.21875,-0.171875 0,-0.109375 0.09375,-0.203125 0.25,-0.359375 l 1.40625,-1.390625 0.84375,1.65625 C 4.25,-0.453125 4.25,-0.4375 4.25,-0.421875 c 0,0.03125 -0.125,0.15625 -0.375,0.171875 -0.0625,0 -0.140625,0 -0.140625,0.15625 0,0 0,0.09375 0.109375,0.09375 C 4,0 4.171875,-0.015625 4.3125,-0.015625 c 0.140625,0 0.3125,-0.015625 0.453125,-0.015625 0.125,0 0.28125,0 0.40625,0.015625 C 5.296875,-0.015625 5.4375,0 5.546875,0 5.59375,0 5.703125,0 5.703125,-0.15625 5.703125,-0.25 5.609375,-0.25 5.5,-0.25 5.09375,-0.25 5.0625,-0.328125 5,-0.453125 Z m 0,0"
   id="path48" />
    </g>
  </g>
  <g
   fill="#000000"
   fill-opacity="1"
   id="g30"
   transform="matrix(0.352778,0,0,0.352778,-32.5338,-27.3603)">
    <g
   id="use28"
   transform="translate(105.502,81.962997)">
      <path
   d="m 2.03125,-0.015625 c 0,-0.65625 -0.25,-1.046875 -0.640625,-1.046875 -0.328125,0 -0.53125,0.25 -0.53125,0.53125 C 0.859375,-0.265625 1.0625,0 1.390625,0 1.5,0 1.640625,-0.046875 1.734375,-0.125 1.765625,-0.15625 1.78125,-0.15625 1.78125,-0.15625 c 0.015625,0 0.015625,0 0.015625,0.140625 0,0.75 -0.34375,1.34375 -0.671875,1.671875 -0.109375,0.109375 -0.109375,0.125 -0.109375,0.15625 0,0.078125 0.046875,0.109375 0.09375,0.109375 0.109375,0 0.921875,-0.765625 0.921875,-1.9375 z m 0,0"
   id="path52" />
    </g>
  </g>
  <g
   fill="#000000"
   fill-opacity="1"
   id="g34"
   transform="matrix(0.352778,0,0,0.352778,-32.5338,-27.3603)">
    <g
   id="use32"
   transform="translate(109.93336,81.962997)">
      <path
   d="m 5.15625,-3.71875 c 0.140625,0 0.5,0 0.5,-0.34375 0,-0.234375 -0.21875,-0.234375 -0.390625,-0.234375 h -2.28125 c -1.5,0 -2.609375,1.640625 -2.609375,2.828125 0,0.875 0.59375,1.578125 1.5,1.578125 1.171875,0 2.5,-1.203125 2.5,-2.734375 0,-0.171875 0,-0.65625 -0.3125,-1.09375 z M 1.890625,-0.109375 C 1.390625,-0.109375 1,-0.46875 1,-1.1875 c 0,-0.296875 0.109375,-1.109375 0.46875,-1.703125 0.421875,-0.6875 1.015625,-0.828125 1.359375,-0.828125 0.828125,0 0.90625,0.65625 0.90625,0.96875 0,0.46875 -0.203125,1.28125 -0.53125,1.796875 -0.390625,0.578125 -0.9375,0.84375 -1.3125,0.84375 z m 0,0"
   id="path56" />
    </g>
  </g>
  <g
   fill="#000000"
   fill-opacity="1"
   id="g38"
   transform="matrix(0.352778,0,0,0.352778,-32.5338,-27.3603)">
    <g
   id="use36"
   transform="translate(115.623,83.457001)">
      <path
   d="m 3.875,-2.65625 0.65625,-0.671875 c 0.890625,-0.875 1.171875,-1.140625 1.796875,-1.1875 0.09375,0 0.171875,0 0.171875,-0.140625 0,-0.078125 -0.078125,-0.109375 -0.09375,-0.109375 -0.203125,0 -0.453125,0.03125 -0.65625,0.03125 -0.1875,0 -0.625,-0.03125 -0.8125,-0.03125 -0.046875,0 -0.140625,0.03125 -0.140625,0.15625 0,0.015625 0,0.09375 0.109375,0.09375 0.0625,0.015625 0.234375,0.03125 0.234375,0.1875 0,0.09375 -0.109375,0.203125 -0.171875,0.28125 C 4.90625,-4 4.03125,-3.140625 3.765625,-2.875 L 3.0625,-4.234375 C 3.046875,-4.265625 3.03125,-4.3125 3.03125,-4.328125 c 0,-0.0625 0.125,-0.171875 0.375,-0.1875 0.046875,0 0.140625,0 0.140625,-0.140625 0,-0.015625 0,-0.109375 -0.125,-0.109375 -0.140625,0 -0.3125,0.03125 -0.453125,0.03125 -0.15625,0 -0.3125,0 -0.453125,0 -0.125,0 -0.296875,0 -0.421875,0 -0.109375,-0.015625 -0.265625,-0.03125 -0.375,-0.03125 -0.03125,0 -0.140625,0 -0.140625,0.15625 0,0.09375 0.09375,0.09375 0.203125,0.09375 0.40625,0 0.4375,0.078125 0.5,0.21875 L 3.265625,-2.375 2.875,-1.984375 c -0.140625,0.125 -0.46875,0.4375 -0.59375,0.5625 -0.84375,0.84375 -1.125,1.140625 -1.765625,1.171875 -0.09375,0 -0.171875,0 -0.171875,0.15625 C 0.34375,-0.0625 0.375,0 0.453125,0 c 0.1875,0 0.4375,-0.03125 0.640625,-0.03125 0.125,0 0.296875,0 0.40625,0.015625 C 1.625,-0.015625 1.78125,0 1.90625,0 1.9375,0 2.046875,0 2.046875,-0.140625 2.046875,-0.25 1.96875,-0.25 1.921875,-0.25 c -0.0625,-0.015625 -0.21875,-0.03125 -0.21875,-0.171875 0,-0.109375 0.09375,-0.203125 0.25,-0.359375 l 1.40625,-1.390625 0.84375,1.65625 C 4.25,-0.453125 4.25,-0.4375 4.25,-0.421875 c 0,0.03125 -0.125,0.15625 -0.375,0.171875 -0.0625,0 -0.140625,0 -0.140625,0.15625 0,0 0,0.09375 0.109375,0.09375 C 4,0 4.171875,-0.015625 4.3125,-0.015625 c 0.140625,0 0.3125,-0.015625 0.453125,-0.015625 0.125,0 0.28125,0 0.40625,0.015625 C 5.296875,-0.015625 5.4375,0 5.546875,0 5.59375,0 5.703125,0 5.703125,-0.15625 5.703125,-0.25 5.609375,-0.25 5.5,-0.25 5.09375,-0.25 5.0625,-0.328125 5,-0.453125 Z m 0,0"
   id="path60" />
    </g>
  </g>
</g><g
           inkscape:label=""
           transform="rotate(-90,87.287269,27.236471)"
           id="g42093"><g
   fill="#000000"
   fill-opacity="1"
   id="g42067"
   transform="matrix(0.352778,0,0,0.352778,-32.5338,-27.3603)">
    <g
   id="g42065"
   transform="translate(91.925003,81.962997)">
      <path
   d="m 2.296875,-3.5 c 0.0625,-0.203125 0.15625,-0.59375 0.15625,-0.640625 0,-0.171875 -0.125,-0.265625 -0.296875,-0.265625 -0.015625,0 -0.296875,0.015625 -0.390625,0.359375 l -1.4375,5.765625 c -0.03125,0.125 -0.03125,0.140625 -0.03125,0.171875 0,0.140625 0.109375,0.265625 0.28125,0.265625 0.203125,0 0.328125,-0.1875 0.34375,-0.21875 C 0.96875,1.859375 1.09375,1.328125 1.46875,-0.203125 1.796875,0.0625 2.25,0.109375 2.4375,0.109375 c 0.703125,0 1.09375,-0.453125 1.328125,-0.734375 0.09375,0.453125 0.46875,0.734375 0.90625,0.734375 0.34375,0 0.578125,-0.234375 0.734375,-0.546875 0.171875,-0.359375 0.296875,-0.96875 0.296875,-0.984375 0,-0.109375 -0.09375,-0.109375 -0.125,-0.109375 -0.09375,0 -0.109375,0.046875 -0.140625,0.1875 -0.15625,0.640625 -0.34375,1.234375 -0.75,1.234375 -0.265625,0 -0.296875,-0.265625 -0.296875,-0.453125 0,-0.21875 0.109375,-0.6875 0.1875,-1.046875 L 4.859375,-2.6875 C 4.890625,-2.828125 5,-3.203125 5.03125,-3.359375 5.078125,-3.59375 5.1875,-3.96875 5.1875,-4.03125 c 0,-0.171875 -0.140625,-0.265625 -0.296875,-0.265625 -0.046875,0 -0.3125,0.015625 -0.390625,0.34375 l -0.46875,1.875 c -0.109375,0.5 -0.21875,0.90625 -0.25,1.015625 -0.015625,0.046875 -0.484375,0.953125 -1.296875,0.953125 -0.5,0 -0.734375,-0.328125 -0.734375,-0.875 0,-0.28125 0.0625,-0.5625 0.140625,-0.84375 z m 0,0"
   id="path42063" />
    </g>
  </g>
  <g
   fill="#000000"
   fill-opacity="1"
   id="g42073"
   transform="matrix(0.352778,0,0,0.352778,-32.5338,-27.3603)">
    <g
   id="g42071"
   transform="translate(97.928001,83.457001)">
      <path
   d="M 4.71875,-3.921875 C 4.859375,-4.0625 5,-4.1875 5.15625,-4.296875 5.4375,-4.484375 5.6875,-4.5 5.78125,-4.515625 c 0.078125,0 0.15625,0 0.15625,-0.140625 0,-0.046875 -0.03125,-0.109375 -0.09375,-0.109375 -0.171875,0 -0.375,0.03125 -0.5625,0.03125 -0.21875,0 -0.515625,-0.03125 -0.71875,-0.03125 -0.046875,0 -0.140625,0 -0.140625,0.15625 0,0.09375 0.09375,0.09375 0.125,0.09375 C 4.75,-4.5 4.75,-4.421875 4.75,-4.375 c 0,0.0625 -0.046875,0.109375 -0.09375,0.1875 -0.046875,0.0625 -0.078125,0.109375 -0.125,0.140625 L 2.796875,-2.21875 1.875,-4.265625 c -0.046875,-0.09375 -0.046875,-0.109375 -0.046875,-0.125 0,-0.125 0.328125,-0.125 0.375,-0.125 0.09375,0 0.1875,0 0.1875,-0.140625 0,-0.015625 0,-0.109375 -0.125,-0.109375 -0.203125,0 -0.71875,0.03125 -0.921875,0.03125 -0.1875,0 -0.625,-0.03125 -0.796875,-0.03125 -0.0625,0 -0.140625,0.03125 -0.140625,0.15625 0,0.09375 0.09375,0.09375 0.1875,0.09375 0.40625,0 0.4375,0.0625 0.5,0.21875 l 1.078125,2.390625 -0.3125,1.265625 c -0.09375,0.359375 -0.09375,0.375 -0.640625,0.390625 -0.125,0 -0.203125,0 -0.203125,0.140625 C 1.015625,-0.03125 1.0625,0 1.125,0 1.25,0 1.421875,-0.015625 1.546875,-0.015625 c 0.140625,0 0.34375,-0.015625 0.46875,-0.015625 0.140625,0 0.296875,0.015625 0.4375,0.015625 C 2.609375,-0.015625 2.78125,0 2.921875,0 2.96875,0 3.078125,0 3.078125,-0.15625 3.078125,-0.25 3,-0.25 2.84375,-0.25 c -0.109375,0 -0.140625,0 -0.265625,-0.015625 -0.125,-0.015625 -0.15625,-0.03125 -0.15625,-0.09375 0,-0.046875 0.09375,-0.375 0.140625,-0.5625 C 2.609375,-1.15625 2.765625,-1.75 2.78125,-1.78125 2.796875,-1.890625 2.796875,-1.90625 2.875,-1.96875 Z m 0,0"
   id="path42069" />
    </g>
  </g>
  <g
   fill="#000000"
   fill-opacity="1"
   id="g42079"
   transform="matrix(0.352778,0,0,0.352778,-32.5338,-27.3603)">
    <g
   id="g42077"
   transform="translate(104.825,81.962997)">
      <path
   d="m 2.03125,-0.015625 c 0,-0.65625 -0.25,-1.046875 -0.640625,-1.046875 -0.328125,0 -0.53125,0.25 -0.53125,0.53125 C 0.859375,-0.265625 1.0625,0 1.390625,0 1.5,0 1.640625,-0.046875 1.734375,-0.125 1.765625,-0.15625 1.78125,-0.15625 1.78125,-0.15625 c 0.015625,0 0.015625,0 0.015625,0.140625 0,0.75 -0.34375,1.34375 -0.671875,1.671875 -0.109375,0.109375 -0.109375,0.125 -0.109375,0.15625 0,0.078125 0.046875,0.109375 0.09375,0.109375 0.109375,0 0.921875,-0.765625 0.921875,-1.9375 z m 0,0"
   id="path42075" />
    </g>
  </g>
  <g
   fill="#000000"
   fill-opacity="1"
   id="g42085"
   transform="matrix(0.352778,0,0,0.352778,-32.5338,-27.3603)">
    <g
   id="g42083"
   transform="translate(109.25636,81.962997)">
      <path
   d="m 5.15625,-3.71875 c 0.140625,0 0.5,0 0.5,-0.34375 0,-0.234375 -0.21875,-0.234375 -0.390625,-0.234375 h -2.28125 c -1.5,0 -2.609375,1.640625 -2.609375,2.828125 0,0.875 0.59375,1.578125 1.5,1.578125 1.171875,0 2.5,-1.203125 2.5,-2.734375 0,-0.171875 0,-0.65625 -0.3125,-1.09375 z M 1.890625,-0.109375 C 1.390625,-0.109375 1,-0.46875 1,-1.1875 c 0,-0.296875 0.109375,-1.109375 0.46875,-1.703125 0.421875,-0.6875 1.015625,-0.828125 1.359375,-0.828125 0.828125,0 0.90625,0.65625 0.90625,0.96875 0,0.46875 -0.203125,1.28125 -0.53125,1.796875 -0.390625,0.578125 -0.9375,0.84375 -1.3125,0.84375 z m 0,0"
   id="path42081" />
    </g>
  </g>
  <g
   fill="#000000"
   fill-opacity="1"
   id="g42091"
   transform="matrix(0.352778,0,0,0.352778,-32.5338,-27.3603)">
    <g
   id="g42089"
   transform="translate(114.946,83.457001)">
      <path
   d="M 4.71875,-3.921875 C 4.859375,-4.0625 5,-4.1875 5.15625,-4.296875 5.4375,-4.484375 5.6875,-4.5 5.78125,-4.515625 c 0.078125,0 0.15625,0 0.15625,-0.140625 0,-0.046875 -0.03125,-0.109375 -0.09375,-0.109375 -0.171875,0 -0.375,0.03125 -0.5625,0.03125 -0.21875,0 -0.515625,-0.03125 -0.71875,-0.03125 -0.046875,0 -0.140625,0 -0.140625,0.15625 0,0.09375 0.09375,0.09375 0.125,0.09375 C 4.75,-4.5 4.75,-4.421875 4.75,-4.375 c 0,0.0625 -0.046875,0.109375 -0.09375,0.1875 -0.046875,0.0625 -0.078125,0.109375 -0.125,0.140625 L 2.796875,-2.21875 1.875,-4.265625 c -0.046875,-0.09375 -0.046875,-0.109375 -0.046875,-0.125 0,-0.125 0.328125,-0.125 0.375,-0.125 0.09375,0 0.1875,0 0.1875,-0.140625 0,-0.015625 0,-0.109375 -0.125,-0.109375 -0.203125,0 -0.71875,0.03125 -0.921875,0.03125 -0.1875,0 -0.625,-0.03125 -0.796875,-0.03125 -0.0625,0 -0.140625,0.03125 -0.140625,0.15625 0,0.09375 0.09375,0.09375 0.1875,0.09375 0.40625,0 0.4375,0.0625 0.5,0.21875 l 1.078125,2.390625 -0.3125,1.265625 c -0.09375,0.359375 -0.09375,0.375 -0.640625,0.390625 -0.125,0 -0.203125,0 -0.203125,0.140625 C 1.015625,-0.03125 1.0625,0 1.125,0 1.25,0 1.421875,-0.015625 1.546875,-0.015625 c 0.140625,0 0.34375,-0.015625 0.46875,-0.015625 0.140625,0 0.296875,0.015625 0.4375,0.015625 C 2.609375,-0.015625 2.78125,0 2.921875,0 2.96875,0 3.078125,0 3.078125,-0.15625 3.078125,-0.25 3,-0.25 2.84375,-0.25 c -0.109375,0 -0.140625,0 -0.265625,-0.015625 -0.125,-0.015625 -0.15625,-0.03125 -0.15625,-0.09375 0,-0.046875 0.09375,-0.375 0.140625,-0.5625 C 2.609375,-1.15625 2.765625,-1.75 2.78125,-1.78125 2.796875,-1.890625 2.796875,-1.90625 2.875,-1.96875 Z m 0,0"
   id="path42087" />
    </g>
  </g>
</g><g
           inkscape:label=""
           transform="rotate(-90,51.13606,12.97145)"
           id="g43259"><g
   fill="#000000"
   fill-opacity="1"
   id="g24"
   transform="matrix(0.352778,0,0,0.352778,-32.5945,-26.4728)">
    <g
   id="use22"
   transform="translate(91.925003,81.962997)">
      <path
   d="m 2.375,-6.8125 c 0,0 0,-0.109375 -0.125,-0.109375 -0.21875,0 -0.953125,0.078125 -1.21875,0.109375 -0.078125,0 -0.1875,0.015625 -0.1875,0.1875 0,0.125 0.09375,0.125 0.25,0.125 0.46875,0 0.484375,0.0625 0.484375,0.171875 0,0.0625 -0.078125,0.40625 -0.125,0.609375 l -0.828125,3.25 c -0.109375,0.5 -0.15625,0.671875 -0.15625,1.015625 0,0.9375 0.53125,1.5625 1.265625,1.5625 1.171875,0 2.40625,-1.484375 2.40625,-2.921875 0,-0.90625 -0.53125,-1.59375 -1.328125,-1.59375 -0.453125,0 -0.875,0.296875 -1.171875,0.59375 z M 1.453125,-3.046875 C 1.5,-3.265625 1.5,-3.28125 1.59375,-3.390625 2.078125,-4.03125 2.53125,-4.1875 2.796875,-4.1875 c 0.359375,0 0.625,0.296875 0.625,0.9375 0,0.59375 -0.328125,1.734375 -0.515625,2.109375 -0.328125,0.671875 -0.78125,1.03125 -1.171875,1.03125 -0.34375,0 -0.671875,-0.265625 -0.671875,-1 0,-0.203125 0,-0.390625 0.15625,-1.015625 z m 0,0"
   id="path42" />
    </g>
  </g>
  <g
   fill="#000000"
   fill-opacity="1"
   id="g28"
   transform="matrix(0.352778,0,0,0.352778,-32.5945,-26.4728)">
    <g
   id="use26"
   transform="translate(96.200996,83.457001)">
      <path
   d="m 0.84375,-0.4375 c -0.015625,0.09375 -0.0625,0.265625 -0.0625,0.28125 0,0.15625 0.125,0.21875 0.234375,0.21875 0.125,0 0.234375,-0.078125 0.28125,-0.140625 0.03125,-0.0625 0.078125,-0.296875 0.125,-0.4375 0.03125,-0.125 0.109375,-0.453125 0.140625,-0.625 0.046875,-0.15625 0.09375,-0.3125 0.125,-0.46875 0.078125,-0.28125 0.09375,-0.34375 0.296875,-0.625 C 2.171875,-2.515625 2.5,-2.875 3.03125,-2.875 c 0.390625,0 0.40625,0.359375 0.40625,0.484375 0,0.421875 -0.296875,1.1875 -0.40625,1.484375 -0.078125,0.203125 -0.109375,0.265625 -0.109375,0.375 0,0.375 0.296875,0.59375 0.65625,0.59375 0.703125,0 1,-0.953125 1,-1.0625 0,-0.09375 -0.078125,-0.09375 -0.109375,-0.09375 -0.09375,0 -0.09375,0.046875 -0.125,0.125 C 4.1875,-0.40625 3.875,-0.125 3.609375,-0.125 c -0.15625,0 -0.1875,-0.09375 -0.1875,-0.25 0,-0.15625 0.046875,-0.25 0.171875,-0.5625 0.078125,-0.21875 0.359375,-0.953125 0.359375,-1.34375 0,-0.671875 -0.53125,-0.796875 -0.90625,-0.796875 -0.578125,0 -0.96875,0.359375 -1.171875,0.640625 -0.046875,-0.484375 -0.453125,-0.640625 -0.75,-0.640625 -0.296875,0 -0.453125,0.21875 -0.546875,0.375 -0.15625,0.265625 -0.25,0.65625 -0.25,0.703125 0,0.078125 0.09375,0.078125 0.125,0.078125 0.09375,0 0.09375,-0.015625 0.140625,-0.203125 0.109375,-0.40625 0.25,-0.75 0.515625,-0.75 0.1875,0 0.234375,0.15625 0.234375,0.34375 0,0.125 -0.0625,0.390625 -0.125,0.578125 -0.046875,0.1875 -0.109375,0.46875 -0.140625,0.625 z m 0,0"
   id="path46" />
    </g>
  </g>
  <g
   fill="#000000"
   fill-opacity="1"
   id="g32"
   transform="matrix(0.352778,0,0,0.352778,-32.5945,-26.4728)">
    <g
   id="use30"
   transform="translate(101.126,83.457001)">
      <path
   d="m 5.1875,-1.578125 c 0.109375,0 0.28125,0 0.28125,-0.15625 0,-0.1875 -0.171875,-0.1875 -0.28125,-0.1875 H 1.03125 c -0.109375,0 -0.28125,0 -0.28125,0.171875 0,0.171875 0.15625,0.171875 0.28125,0.171875 z m 0,0"
   id="path50" />
    </g>
  </g>
  <g
   fill="#000000"
   fill-opacity="1"
   id="g36"
   transform="matrix(0.352778,0,0,0.352778,-32.5945,-26.4728)">
    <g
   id="use34"
   transform="translate(107.352,83.457001)">
      <path
   d="m 2.328125,-4.4375 c 0,-0.1875 0,-0.1875 -0.203125,-0.1875 -0.453125,0.4375 -1.078125,0.4375 -1.359375,0.4375 v 0.25 c 0.15625,0 0.625,0 1,-0.1875 v 3.546875 c 0,0.234375 0,0.328125 -0.6875,0.328125 H 0.8125 V 0 c 0.125,0 0.984375,-0.03125 1.234375,-0.03125 0.21875,0 1.09375,0.03125 1.25,0.03125 V -0.25 H 3.03125 c -0.703125,0 -0.703125,-0.09375 -0.703125,-0.328125 z m 0,0"
   id="path54" />
    </g>
  </g>
</g></g></g></g></svg>
