<?xml version="1.0" encoding="UTF-8" standalone="no"?>
<!-- Created with Inkscape (http://www.inkscape.org/) -->

<svg
   width="116.50693mm"
   height="70.329689mm"
   viewBox="0 0 116.50693 70.329689"
   version="1.1"
   id="svg903"
   inkscape:version="1.2 (dc2aedaf03, 2022-05-15)"
   sodipodi:docname="Linear-Feature-Selection-1.svg"
   inkscape:export-filename="plot\Linear-Feature-Selection-1.png"
   inkscape:export-xdpi="300"
   inkscape:export-ydpi="300"
   xmlns:inkscape="http://www.inkscape.org/namespaces/inkscape"
   xmlns:sodipodi="http://sodipodi.sourceforge.net/DTD/sodipodi-0.dtd"
   xmlns="http://www.w3.org/2000/svg"
   xmlns:svg="http://www.w3.org/2000/svg">
  <sodipodi:namedview
     id="namedview905"
     pagecolor="#505050"
     bordercolor="#ffffff"
     borderopacity="1"
     inkscape:showpageshadow="0"
     inkscape:pageopacity="0"
     inkscape:pagecheckerboard="1"
     inkscape:deskcolor="#505050"
     inkscape:document-units="mm"
     showgrid="false"
     inkscape:zoom="1.1893044"
     inkscape:cx="229.96636"
     inkscape:cy="32.792278"
     inkscape:window-width="1920"
     inkscape:window-height="1017"
     inkscape:window-x="-8"
     inkscape:window-y="-8"
     inkscape:window-maximized="1"
     inkscape:current-layer="layer1" />
  <defs
     id="defs900">
    <marker
       style="overflow:visible"
       id="Arrow2"
       refX="0"
       refY="0"
       orient="auto-start-reverse"
       inkscape:stockid="Arrow2"
       markerWidth="7.6999998"
       markerHeight="5.5999999"
       viewBox="0 0 7.7 5.6"
       inkscape:isstock="true"
       inkscape:collect="always"
       preserveAspectRatio="xMidYMid">
      <path
         transform="scale(0.7)"
         d="M -2,-4 9,0 -2,4 c 2,-2.33 2,-5.66 0,-8 z"
         style="fill:context-stroke;fill-rule:evenodd;stroke:none"
         id="arrow2L" />
    </marker>
    <marker
       style="overflow:visible"
       id="marker60077"
       refX="0"
       refY="0"
       orient="auto-start-reverse"
       inkscape:stockid="Arrow2"
       markerWidth="7.6999998"
       markerHeight="5.5999999"
       viewBox="0 0 7.7 5.6"
       inkscape:isstock="true"
       inkscape:collect="always"
       preserveAspectRatio="xMidYMid">
      <path
         transform="scale(0.7)"
         d="M -2,-4 9,0 -2,4 c 2,-2.33 2,-5.66 0,-8 z"
         style="fill:context-stroke;fill-rule:evenodd;stroke:none"
         id="path60075" />
    </marker>
    <marker
       style="overflow:visible"
       id="Arrow2-5-0-8"
       refX="0"
       refY="0"
       orient="auto-start-reverse"
       inkscape:stockid="Arrow2"
       markerWidth="7.6999998"
       markerHeight="5.5999999"
       viewBox="0 0 7.7 5.6"
       inkscape:isstock="true"
       inkscape:collect="always"
       preserveAspectRatio="xMidYMid">
      <path
         transform="scale(0.7)"
         d="M -2,-4 9,0 -2,4 c 2,-2.33 2,-5.66 0,-8 z"
         style="fill:context-stroke;fill-rule:evenodd;stroke:none"
         id="arrow2L-7-0-3" />
    </marker>
  </defs>
  <g
     inkscape:label="Ebene 1"
     inkscape:groupmode="layer"
     id="layer1"
     transform="translate(-67.258406,-127.64464)">
    <path
       style="fill:none;stroke:#000000;stroke-width:0.511248;stroke-linecap:butt;stroke-linejoin:miter;stroke-dasharray:none;stroke-opacity:1"
       d="m 92.855258,177.73029 0.808424,2.10881"
       id="path1901-19"
       sodipodi:nodetypes="cc" />
    <path
       style="fill:none;stroke:#000000;stroke-width:0.511248;stroke-linecap:butt;stroke-linejoin:miter;stroke-dasharray:none;stroke-opacity:1"
       d="m 90.547142,178.67578 3.22777,7.50369"
       id="path1901-9"
       sodipodi:nodetypes="cc" />
    <path
       style="fill:none;stroke:#000000;stroke-width:0.511248;stroke-linecap:butt;stroke-linejoin:miter;stroke-dasharray:none;stroke-opacity:1"
       d="m 87.571619,179.95498 1.670487,3.86075"
       id="path1901-8"
       sodipodi:nodetypes="cc" />
    <path
       style="fill:none;stroke:#000000;stroke-width:0.511248;stroke-linecap:butt;stroke-linejoin:miter;stroke-dasharray:none;stroke-opacity:1"
       d="m 154.61821,151.17306 0.86404,2.3869"
       id="path1901-0"
       sodipodi:nodetypes="cc" />
    <path
       style="fill:none;stroke:#000000;stroke-width:0.511248;stroke-linecap:butt;stroke-linejoin:miter;stroke-dasharray:none;stroke-opacity:1"
       d="m 135.89124,159.30179 2.50046,6.26287"
       id="path1903-5-1-3"
       sodipodi:nodetypes="cc" />
    <path
       style="fill:none;stroke:#000000;stroke-width:0.511248;stroke-linecap:butt;stroke-linejoin:miter;stroke-dasharray:none;stroke-opacity:1"
       d="m 134.00026,159.9692 2.9454,7.43083"
       id="path1903-5-1-8"
       sodipodi:nodetypes="cc" />
    <path
       style="fill:none;stroke:#000000;stroke-width:0.511248;stroke-linecap:butt;stroke-linejoin:miter;stroke-dasharray:none;stroke-opacity:1"
       d="m 102.74337,173.42857 1.27688,3.48201"
       id="path1903-5-1-7"
       sodipodi:nodetypes="cc" />
    <path
       style="fill:none;stroke:#000000;stroke-width:0.511248;stroke-linecap:butt;stroke-linejoin:miter;stroke-dasharray:none;stroke-opacity:1"
       d="m 154.66207,146.00192 1.80953,4.22227"
       id="path1901" />
    <path
       style="fill:none;stroke:#000000;stroke-width:0.511248;stroke-linecap:butt;stroke-linejoin:miter;stroke-dasharray:none;stroke-opacity:1"
       d="m 161.73721,148.16972 2.08761,4.83406"
       id="path1901-1"
       sodipodi:nodetypes="cc" />
    <path
       style="fill:none;stroke:#000000;stroke-width:0.511248;stroke-linecap:butt;stroke-linejoin:miter;stroke-dasharray:none;stroke-opacity:1"
       d="m 134.15395,153.44116 2.11113,5.4286"
       id="path1903" />
    <path
       style="fill:none;stroke:#000000;stroke-width:0.511248;stroke-linecap:butt;stroke-linejoin:miter;stroke-dasharray:none;stroke-opacity:1"
       d="m 116.64768,167.47753 2.94539,7.15274"
       id="path1903-5"
       sodipodi:nodetypes="cc" />
    <path
       style="fill:none;stroke:#000000;stroke-width:0.511248;stroke-linecap:butt;stroke-linejoin:miter;stroke-dasharray:none;stroke-opacity:1"
       d="m 110.50198,170.23058 1.22126,3.20392"
       id="path1903-5-1"
       sodipodi:nodetypes="cc" />
    <path
       style="fill:none;stroke:#000000;stroke-width:0.511248;stroke-linecap:butt;stroke-linejoin:miter;stroke-dasharray:none;stroke-opacity:1"
       d="m 113.54644,168.91155 4.60177,11.06523"
       id="path1901-6"
       sodipodi:nodetypes="cc" />
    <path
       style="fill:none;stroke:#000000;stroke-width:0.511248;stroke-linecap:butt;stroke-linejoin:miter;stroke-dasharray:none;stroke-opacity:1"
       d="m 109.75114,167.53314 0.94317,2.53651"
       id="path1903-5-1-6"
       sodipodi:nodetypes="cc" />
    <path
       style="fill:none;stroke:#000000;stroke-width:0.511248;stroke-linecap:butt;stroke-linejoin:miter;stroke-dasharray:none;stroke-opacity:1"
       d="m 141.49264,162.08674 -1.80954,-4.42332"
       id="path1905" />
    <path
       style="fill:none;stroke:#000000;stroke-width:0.511248;stroke-linecap:butt;stroke-linejoin:miter;stroke-dasharray:none;stroke-opacity:1"
       d="m 118.06915,158.9703 2.71431,6.43392"
       id="path1907" />
    <path
       style="fill:none;stroke:#000000;stroke-width:0.511248;stroke-linecap:butt;stroke-linejoin:miter;stroke-dasharray:none;stroke-opacity:1"
       d="m 113.73635,164.38411 1.36368,3.51942"
       id="path1907-1"
       sodipodi:nodetypes="cc" />
    <path
       style="fill:none;stroke:#000000;stroke-width:0.511248;stroke-linecap:butt;stroke-linejoin:miter;stroke-dasharray:none;stroke-opacity:1"
       d="m 121.84008,165.16608 2.14562,5.15438"
       id="path1907-4"
       sodipodi:nodetypes="cc" />
    <path
       style="fill:none;stroke:#000000;stroke-width:0.511248;stroke-linecap:butt;stroke-linejoin:miter;stroke-dasharray:none;stroke-opacity:1"
       d="m 126.81607,159.97682 1.07934,2.66639"
       id="path1907-4-7"
       sodipodi:nodetypes="cc" />
    <path
       style="fill:none;stroke:#000000;stroke-width:0.511248;stroke-linecap:butt;stroke-linejoin:miter;stroke-dasharray:none;stroke-opacity:1"
       d="m 122.20959,162.68923 0.84338,2.03715"
       id="path1907-4-7-8"
       sodipodi:nodetypes="cc" />
    <path
       style="fill:none;stroke:#000000;stroke-width:0.511248;stroke-linecap:butt;stroke-linejoin:miter;stroke-dasharray:none;stroke-opacity:1"
       d="m 102.78918,159.72802 4.7047,11.48098"
       id="path1907-4-3"
       sodipodi:nodetypes="cc" />
    <path
       style="fill:none;stroke:#000000;stroke-width:0.511248;stroke-linecap:butt;stroke-linejoin:miter;stroke-dasharray:none;stroke-opacity:1"
       d="m 87.541357,168.18717 3.993842,9.70384"
       id="path1907-4-0"
       sodipodi:nodetypes="cc" />
    <path
       style="fill:none;stroke:#000000;stroke-width:0.511248;stroke-linecap:butt;stroke-linejoin:miter;stroke-dasharray:none;stroke-opacity:1"
       d="m 96.328145,176.15798 0.866084,2.28316"
       id="path1907-4-09"
       sodipodi:nodetypes="cc" />
    <path
       style="fill:none;stroke:#000000;stroke-width:0.511248;stroke-linecap:butt;stroke-linejoin:miter;stroke-dasharray:none;stroke-opacity:1"
       d="m 99.625883,169.1113 1.861277,4.58572"
       id="path1907-4-9"
       sodipodi:nodetypes="cc" />
    <path
       style="fill:none;stroke:#000000;stroke-width:0.511248;stroke-linecap:butt;stroke-linejoin:miter;stroke-dasharray:none;stroke-opacity:1"
       d="m 96.056142,170.50831 2.222793,4.84832"
       id="path1907-4-36"
       sodipodi:nodetypes="cc" />
    <path
       style="fill:none;stroke:#000000;stroke-width:0.676;stroke-linecap:butt;stroke-linejoin:miter;stroke-opacity:1;marker-end:url(#marker60077);stroke-dasharray:none;stroke-dashoffset:0"
       d="M 82.154268,189.94183 H 166.70011"
       id="path60073" />
    <path
       style="fill:none;stroke:#000000;stroke-width:0.676;stroke-linecap:butt;stroke-linejoin:miter;stroke-dasharray:none;stroke-dashoffset:0;stroke-opacity:1;marker-end:url(#Arrow2)"
       d="M 74.939742,185.35556 168.83188,145.11703"
       id="path60071"
       sodipodi:nodetypes="cc" />
    <path
       style="fill:none;stroke:#000000;stroke-width:0.676;stroke-linecap:butt;stroke-linejoin:miter;stroke-opacity:1;marker-end:url(#Arrow2-5-0-8);stroke-dasharray:none;stroke-dashoffset:0"
       d="m 82.455858,190.04237 c -0.03901,-50.97974 -0.177403,-0.0473 0.100536,-51.06923"
       id="path60469"
       sodipodi:nodetypes="cc" />
    <circle
       style="fill:#2e75b6;fill-opacity:1;stroke:none;stroke-width:1.79393;stroke-linecap:round;stroke-linejoin:round;stroke-dasharray:none;stroke-dashoffset:53.8726;stroke-opacity:1"
       id="path60601"
       cx="87.463539"
       cy="168.07028"
       r="0.82308936" />
    <circle
       style="fill:#2e75b6;fill-opacity:1;stroke:none;stroke-width:1.79393;stroke-linecap:round;stroke-linejoin:round;stroke-dasharray:none;stroke-dashoffset:53.8726;stroke-opacity:1"
       id="path60601-2"
       cx="102.6624"
       cy="159.58179"
       r="0.82308936" />
    <circle
       style="fill:#2e75b6;fill-opacity:1;stroke:none;stroke-width:1.79393;stroke-linecap:round;stroke-linejoin:round;stroke-dasharray:none;stroke-dashoffset:53.8726;stroke-opacity:1"
       id="path60601-6"
       cx="102.6624"
       cy="168.42842"
       r="0.82308936" />
    <circle
       style="fill:#2e75b6;fill-opacity:1;stroke:none;stroke-width:1.79393;stroke-linecap:round;stroke-linejoin:round;stroke-dasharray:none;stroke-dashoffset:53.8726;stroke-opacity:1"
       id="path60601-1"
       cx="99.54599"
       cy="169.0316"
       r="0.82308936" />
    <circle
       style="fill:#2e75b6;fill-opacity:1;stroke:none;stroke-width:1.79393;stroke-linecap:round;stroke-linejoin:round;stroke-dasharray:none;stroke-dashoffset:53.8726;stroke-opacity:1"
       id="path60601-12"
       cx="96.027435"
       cy="170.64009"
       r="0.82308936" />
    <circle
       style="fill:#2e75b6;fill-opacity:1;stroke:none;stroke-width:1.79393;stroke-linecap:round;stroke-linejoin:round;stroke-dasharray:none;stroke-dashoffset:53.8726;stroke-opacity:1"
       id="path60601-39"
       cx="97.334305"
       cy="178.38087"
       r="0.82308936" />
    <circle
       style="fill:#2e75b6;fill-opacity:1;stroke:none;stroke-width:1.79393;stroke-linecap:round;stroke-linejoin:round;stroke-dasharray:none;stroke-dashoffset:53.8726;stroke-opacity:1"
       id="path60601-33"
       cx="93.715233"
       cy="179.68779"
       r="0.82308936" />
    <circle
       style="fill:#2e75b6;fill-opacity:1;stroke:none;stroke-width:1.79393;stroke-linecap:round;stroke-linejoin:round;stroke-dasharray:none;stroke-dashoffset:53.8726;stroke-opacity:1"
       id="path60601-69"
       cx="89.191383"
       cy="183.70897"
       r="0.82308936" />
    <circle
       style="fill:#2e75b6;fill-opacity:1;stroke:none;stroke-width:1.79393;stroke-linecap:round;stroke-linejoin:round;stroke-dasharray:none;stroke-dashoffset:53.8726;stroke-opacity:1"
       id="path60601-65"
       cx="93.815773"
       cy="186.12167"
       r="0.82308936" />
    <circle
       style="fill:#2e75b6;fill-opacity:1;stroke:none;stroke-width:1.79393;stroke-linecap:round;stroke-linejoin:round;stroke-dasharray:none;stroke-dashoffset:53.8726;stroke-opacity:1"
       id="path60601-394"
       cx="104.06982"
       cy="176.87294"
       r="0.82308936" />
    <circle
       style="fill:#2e75b6;fill-opacity:1;stroke:none;stroke-width:1.79393;stroke-linecap:round;stroke-linejoin:round;stroke-dasharray:none;stroke-dashoffset:53.8726;stroke-opacity:1"
       id="path60601-54"
       cx="111.7101"
       cy="173.35437"
       r="0.82308936" />
    <circle
       style="fill:#2e75b6;fill-opacity:1;stroke:none;stroke-width:1.79393;stroke-linecap:round;stroke-linejoin:round;stroke-dasharray:none;stroke-dashoffset:53.8726;stroke-opacity:1"
       id="path60601-8"
       cx="109.80003"
       cy="167.52365"
       r="0.82308936" />
    <circle
       style="fill:#2e75b6;fill-opacity:1;stroke:none;stroke-width:1.79393;stroke-linecap:round;stroke-linejoin:round;stroke-dasharray:none;stroke-dashoffset:53.8726;stroke-opacity:1"
       id="path60601-398"
       cx="113.72069"
       cy="164.40723"
       r="0.82308936" />
    <circle
       style="fill:#2e75b6;fill-opacity:1;stroke:none;stroke-width:1.79393;stroke-linecap:round;stroke-linejoin:round;stroke-dasharray:none;stroke-dashoffset:53.8726;stroke-opacity:1"
       id="path60601-89"
       cx="118.14403"
       cy="159.17966"
       r="0.82308936" />
    <circle
       style="fill:#2e75b6;fill-opacity:1;stroke:none;stroke-width:1.79393;stroke-linecap:round;stroke-linejoin:round;stroke-dasharray:none;stroke-dashoffset:53.8726;stroke-opacity:1"
       id="path60601-42"
       cx="122.16524"
       cy="162.69823"
       r="0.82308936" />
    <circle
       style="fill:#2e75b6;fill-opacity:1;stroke:none;stroke-width:1.79393;stroke-linecap:round;stroke-linejoin:round;stroke-dasharray:none;stroke-dashoffset:53.8726;stroke-opacity:1"
       id="path60601-62"
       cx="119.65198"
       cy="174.56076"
       r="0.82308936" />
    <circle
       style="fill:#2e75b6;fill-opacity:1;stroke:none;stroke-width:1.79393;stroke-linecap:round;stroke-linejoin:round;stroke-dasharray:none;stroke-dashoffset:53.8726;stroke-opacity:1"
       id="path60601-26"
       cx="118.14403"
       cy="179.98938"
       r="0.82308936" />
    <circle
       style="fill:#2e75b6;fill-opacity:1;stroke:none;stroke-width:1.79393;stroke-linecap:round;stroke-linejoin:round;stroke-dasharray:none;stroke-dashoffset:53.8726;stroke-opacity:1"
       id="path60601-60"
       cx="123.97476"
       cy="170.3385"
       r="0.82308936" />
    <circle
       style="fill:#2e75b6;fill-opacity:1;stroke:none;stroke-width:1.79393;stroke-linecap:round;stroke-linejoin:round;stroke-dasharray:none;stroke-dashoffset:53.8726;stroke-opacity:1"
       id="path60601-99"
       cx="126.89014"
       cy="160.18497"
       r="0.82308936" />
    <circle
       style="fill:#2e75b6;fill-opacity:1;stroke:none;stroke-width:1.79393;stroke-linecap:round;stroke-linejoin:round;stroke-dasharray:none;stroke-dashoffset:53.8726;stroke-opacity:1"
       id="path60601-85"
       cx="134.1283"
       cy="153.44945"
       r="0.82308936" />
    <circle
       style="fill:#70ad47;fill-opacity:1;stroke:none;stroke-width:1.79393;stroke-linecap:round;stroke-linejoin:round;stroke-dasharray:none;stroke-dashoffset:53.8726;stroke-opacity:1"
       id="path60601-85-5"
       cx="139.78329"
       cy="157.67795"
       r="0.82308936" />
    <circle
       style="fill:#2e75b6;fill-opacity:1;stroke:none;stroke-width:1.79393;stroke-linecap:round;stroke-linejoin:round;stroke-dasharray:none;stroke-dashoffset:53.8726;stroke-opacity:1"
       id="path60601-7"
       cx="137.04367"
       cy="167.4231"
       r="0.82308936" />
    <circle
       style="fill:#2e75b6;fill-opacity:1;stroke:none;stroke-width:1.79393;stroke-linecap:round;stroke-linejoin:round;stroke-dasharray:none;stroke-dashoffset:53.8726;stroke-opacity:1"
       id="path60601-27"
       cx="138.45107"
       cy="165.51306"
       r="0.82308936" />
    <circle
       style="fill:#2e75b6;fill-opacity:1;stroke:none;stroke-width:1.79393;stroke-linecap:round;stroke-linejoin:round;stroke-dasharray:none;stroke-dashoffset:53.8726;stroke-opacity:1"
       id="path60601-50"
       cx="141.56752"
       cy="162.19556"
       r="0.82308936" />
    <circle
       style="fill:#2e75b6;fill-opacity:1;stroke:none;stroke-width:1.79393;stroke-linecap:round;stroke-linejoin:round;stroke-dasharray:none;stroke-dashoffset:53.8726;stroke-opacity:1"
       id="path60601-38"
       cx="154.63638"
       cy="146.01021"
       r="0.82308936" />
    <circle
       style="fill:#2e75b6;fill-opacity:1;stroke:none;stroke-width:1.79393;stroke-linecap:round;stroke-linejoin:round;stroke-dasharray:none;stroke-dashoffset:53.8726;stroke-opacity:1"
       id="path60601-43"
       cx="155.44067"
       cy="153.44945"
       r="0.82308936" />
    <circle
       style="fill:#2e75b6;fill-opacity:1;stroke:none;stroke-width:1.79393;stroke-linecap:round;stroke-linejoin:round;stroke-dasharray:none;stroke-dashoffset:53.8726;stroke-opacity:1"
       id="path60601-189"
       cx="163.88139"
       cy="153.01729"
       r="0.82308936" />
    <g
       inkscape:label=""
       transform="matrix(1.5836979,-0.59793709,0.59793709,1.5836979,159.96169,136.07527)"
       id="g5375">
      <g
         fill="#000000"
         fill-opacity="1"
         id="g16"
         transform="matrix(0.529167,0,0,0.529167,-48.7842,-38.3768)">
        <g
           id="use14"
           transform="translate(94.782997,79.445)">
          <path
             d="M 2.5,-6.921875 1.15625,-5.5625 1.328125,-5.390625 2.5,-6.40625 3.640625,-5.390625 3.8125,-5.5625 Z m 0,0"
             id="path26" />
        </g>
      </g>
      <g
         fill="#000000"
         fill-opacity="1"
         id="g20"
         transform="matrix(0.529167,0,0,0.529167,-48.7842,-38.3768)">
        <g
           id="use18"
           transform="translate(91.925003,81.962997)">
          <path
             d="M 4.828125,-4.09375 4,-6.078125 c -0.03125,-0.078125 -0.046875,-0.125 -0.046875,-0.125 0,-0.0625 0.15625,-0.25 0.578125,-0.296875 0.109375,-0.015625 0.203125,-0.015625 0.203125,-0.1875 0,-0.125 -0.125,-0.125 -0.15625,-0.125 -0.40625,0 -0.828125,0.03125 -1.25,0.03125 -0.25,0 -0.859375,-0.03125 -1.109375,-0.03125 -0.0625,0 -0.1875,0 -0.1875,0.203125 C 2.03125,-6.5 2.140625,-6.5 2.265625,-6.5 c 0.59375,0 0.65625,0.09375 0.75,0.3125 l 1.171875,2.78125 -2.109375,2.265625 -0.125,0.109375 C 1.46875,-0.5 1,-0.34375 0.484375,-0.3125 c -0.125,0.015625 -0.21875,0.015625 -0.21875,0.203125 0,0.015625 0,0.109375 0.140625,0.109375 0.296875,0 0.625,-0.03125 0.921875,-0.03125 C 1.703125,-0.03125 2.09375,0 2.453125,0 2.515625,0 2.625,0 2.625,-0.203125 2.625,-0.296875 2.53125,-0.3125 2.515625,-0.3125 c -0.09375,0 -0.40625,-0.03125 -0.40625,-0.3125 0,-0.15625 0.15625,-0.3125 0.265625,-0.4375 L 3.40625,-2.140625 4.296875,-3.125 l 1,2.390625 c 0.046875,0.109375 0.0625,0.109375 0.0625,0.140625 0,0.078125 -0.203125,0.25 -0.578125,0.28125 C 4.671875,-0.296875 4.578125,-0.296875 4.578125,-0.125 4.578125,0 4.6875,0 4.71875,0 5,0 5.703125,-0.03125 5.984375,-0.03125 6.234375,-0.03125 6.84375,0 7.09375,0 c 0.0625,0 0.1875,0 0.1875,-0.1875 0,-0.125 -0.109375,-0.125 -0.1875,-0.125 -0.65625,0 -0.6875,-0.03125 -0.859375,-0.4375 C 5.859375,-1.671875 5.1875,-3.234375 4.953125,-3.828125 5.625,-4.53125 6.671875,-5.71875 7,-5.984375 7.28125,-6.234375 7.671875,-6.46875 8.265625,-6.5 c 0.125,-0.015625 0.21875,-0.015625 0.21875,-0.203125 0,0 0,-0.109375 -0.125,-0.109375 -0.296875,0 -0.640625,0.03125 -0.9375,0.03125 -0.375,0 -0.75,-0.03125 -1.109375,-0.03125 -0.0625,0 -0.1875,0 -0.1875,0.203125 0,0.0625 0.046875,0.09375 0.109375,0.109375 0.09375,0.015625 0.40625,0.03125 0.40625,0.3125 0,0.140625 -0.109375,0.265625 -0.1875,0.359375 z m 0,0"
             id="path30" />
        </g>
      </g>
    </g>
    <g
       inkscape:label=""
       transform="matrix(2.5562376,0,0,2.5562376,161.14904,179.66745)"
       id="g6181">
      <g
         fill="#000000"
         fill-opacity="1"
         id="g6179"
         transform="matrix(0.352778,0,0,0.352778,-32.5228,-26.5114)">
        <g
           id="g6177"
           transform="translate(91.925003,81.962997)">
          <path
             d="M 4.828125,-4.09375 4,-6.078125 c -0.03125,-0.078125 -0.046875,-0.125 -0.046875,-0.125 0,-0.0625 0.15625,-0.25 0.578125,-0.296875 0.109375,-0.015625 0.203125,-0.015625 0.203125,-0.1875 0,-0.125 -0.125,-0.125 -0.15625,-0.125 -0.40625,0 -0.828125,0.03125 -1.25,0.03125 -0.25,0 -0.859375,-0.03125 -1.109375,-0.03125 -0.0625,0 -0.1875,0 -0.1875,0.203125 C 2.03125,-6.5 2.140625,-6.5 2.265625,-6.5 c 0.59375,0 0.65625,0.09375 0.75,0.3125 l 1.171875,2.78125 -2.109375,2.265625 -0.125,0.109375 C 1.46875,-0.5 1,-0.34375 0.484375,-0.3125 c -0.125,0.015625 -0.21875,0.015625 -0.21875,0.203125 0,0.015625 0,0.109375 0.140625,0.109375 0.296875,0 0.625,-0.03125 0.921875,-0.03125 C 1.703125,-0.03125 2.09375,0 2.453125,0 2.515625,0 2.625,0 2.625,-0.203125 2.625,-0.296875 2.53125,-0.3125 2.515625,-0.3125 c -0.09375,0 -0.40625,-0.03125 -0.40625,-0.3125 0,-0.15625 0.15625,-0.3125 0.265625,-0.4375 L 3.40625,-2.140625 4.296875,-3.125 l 1,2.390625 c 0.046875,0.109375 0.0625,0.109375 0.0625,0.140625 0,0.078125 -0.203125,0.25 -0.578125,0.28125 C 4.671875,-0.296875 4.578125,-0.296875 4.578125,-0.125 4.578125,0 4.6875,0 4.71875,0 5,0 5.703125,-0.03125 5.984375,-0.03125 6.234375,-0.03125 6.84375,0 7.09375,0 c 0.0625,0 0.1875,0 0.1875,-0.1875 0,-0.125 -0.109375,-0.125 -0.1875,-0.125 -0.65625,0 -0.6875,-0.03125 -0.859375,-0.4375 C 5.859375,-1.671875 5.1875,-3.234375 4.953125,-3.828125 5.625,-4.53125 6.671875,-5.71875 7,-5.984375 7.28125,-6.234375 7.671875,-6.46875 8.265625,-6.5 c 0.125,-0.015625 0.21875,-0.015625 0.21875,-0.203125 0,0 0,-0.109375 -0.125,-0.109375 -0.296875,0 -0.640625,0.03125 -0.9375,0.03125 -0.375,0 -0.75,-0.03125 -1.109375,-0.03125 -0.0625,0 -0.1875,0 -0.1875,0.203125 0,0.0625 0.046875,0.09375 0.109375,0.109375 0.09375,0.015625 0.40625,0.03125 0.40625,0.3125 0,0.140625 -0.109375,0.265625 -0.1875,0.359375 z m 0,0"
             id="path6175" />
        </g>
      </g>
    </g>
    <g
       inkscape:label=""
       transform="matrix(2.5562376,0,0,2.5562376,86.756852,134.35492)"
       id="g7329">
      <g
         fill="#000000"
         fill-opacity="1"
         id="g7327"
         transform="matrix(0.352778,0,0,0.352778,-32.5504,-26.5114)">
        <g
           id="g7325"
           transform="translate(91.925003,81.962997)">
          <path
             d="M 5.953125,-5.671875 6.09375,-5.8125 C 6.390625,-6.109375 6.71875,-6.453125 7.390625,-6.5 7.5,-6.515625 7.59375,-6.515625 7.59375,-6.6875 c 0,-0.078125 -0.046875,-0.125 -0.125,-0.125 -0.265625,0 -0.546875,0.03125 -0.8125,0.03125 -0.34375,0 -0.6875,-0.03125 -1,-0.03125 -0.0625,0 -0.1875,0 -0.1875,0.1875 0,0.109375 0.09375,0.125 0.140625,0.125 0.078125,0 0.359375,0.015625 0.359375,0.234375 0,0.171875 -0.234375,0.421875 -0.265625,0.46875 L 3.390625,-3.125 2.296875,-6.09375 C 2.234375,-6.234375 2.234375,-6.25 2.234375,-6.265625 2.234375,-6.5 2.71875,-6.5 2.828125,-6.5 c 0.125,0 0.234375,0 0.234375,-0.203125 0,-0.109375 -0.125,-0.109375 -0.15625,-0.109375 -0.28125,0 -0.96875,0.03125 -1.25,0.03125 -0.25,0 -0.875,-0.03125 -1.125,-0.03125 -0.046875,0 -0.1875,0 -0.1875,0.203125 C 0.34375,-6.5 0.453125,-6.5 0.578125,-6.5 c 0.59375,0 0.640625,0.09375 0.734375,0.34375 L 2.53125,-2.875 c 0.015625,0.03125 0.046875,0.140625 0.046875,0.15625 0,0.03125 -0.40625,1.640625 -0.453125,1.828125 C 2,-0.34375 1.984375,-0.3125 1.1875,-0.3125 c -0.1875,0 -0.265625,0 -0.265625,0.203125 C 0.921875,0 1.03125,0 1.0625,0 c 0.265625,0 0.96875,-0.03125 1.25,-0.03125 0.28125,0 1,0.03125 1.28125,0.03125 0.0625,0 0.1875,0 0.1875,-0.203125 C 3.78125,-0.3125 3.6875,-0.3125 3.5,-0.3125 c -0.015625,0 -0.203125,0 -0.375,-0.015625 C 2.90625,-0.34375 2.84375,-0.375 2.84375,-0.484375 c 0,-0.078125 0.09375,-0.421875 0.140625,-0.625 l 0.359375,-1.40625 c 0.046875,-0.203125 0.0625,-0.21875 0.140625,-0.3125 z m 0,0"
             id="path7323" />
        </g>
      </g>
    </g>
    <circle
       style="fill:#70ad47;fill-opacity:1;stroke:none;stroke-width:1.79393;stroke-linecap:round;stroke-linejoin:round;stroke-dasharray:none;stroke-dashoffset:53.8726;stroke-opacity:1"
       id="path60601-85-5-2"
       cx="136.3172"
       cy="158.98851"
       r="0.82308936" />
    <circle
       style="fill:#70ad47;fill-opacity:1;stroke:none;stroke-width:1.79393;stroke-linecap:round;stroke-linejoin:round;stroke-dasharray:none;stroke-dashoffset:53.8726;stroke-opacity:1"
       id="path60601-85-5-8"
       cx="156.53145"
       cy="150.3365"
       r="0.82308936" />
    <circle
       style="fill:#70ad47;fill-opacity:1;stroke:none;stroke-width:1.79393;stroke-linecap:round;stroke-linejoin:round;stroke-dasharray:none;stroke-dashoffset:53.8726;stroke-opacity:1"
       id="path60601-85-5-4"
       cx="127.90115"
       cy="162.56732"
       r="0.82308936" />
    <circle
       style="fill:#70ad47;fill-opacity:1;stroke:none;stroke-width:1.79393;stroke-linecap:round;stroke-linejoin:round;stroke-dasharray:none;stroke-dashoffset:53.8726;stroke-opacity:1"
       id="path60601-85-5-3"
       cx="122.00205"
       cy="165.24158"
       r="0.82308936" />
    <circle
       style="fill:#70ad47;fill-opacity:1;stroke:none;stroke-width:1.79393;stroke-linecap:round;stroke-linejoin:round;stroke-dasharray:none;stroke-dashoffset:53.8726;stroke-opacity:1"
       id="path60601-85-5-9"
       cx="120.97955"
       cy="165.63484"
       r="0.82308936" />
    <circle
       style="fill:#70ad47;fill-opacity:1;stroke:none;stroke-width:1.79393;stroke-linecap:round;stroke-linejoin:round;stroke-dasharray:none;stroke-dashoffset:53.8726;stroke-opacity:1"
       id="path60601-85-5-7"
       cx="115.23775"
       cy="167.99449"
       r="0.82308936" />
    <circle
       style="fill:#70ad47;fill-opacity:1;stroke:none;stroke-width:1.79393;stroke-linecap:round;stroke-linejoin:round;stroke-dasharray:none;stroke-dashoffset:53.8726;stroke-opacity:1"
       id="path60601-85-5-7-7"
       cx="113.54667"
       cy="168.74171"
       r="0.82308936" />
    <circle
       style="fill:#70ad47;fill-opacity:1;stroke:none;stroke-width:1.79393;stroke-linecap:round;stroke-linejoin:round;stroke-dasharray:none;stroke-dashoffset:53.8726;stroke-opacity:1"
       id="path60601-85-5-38"
       cx="107.60824"
       cy="171.37663"
       r="0.82308936" />
    <circle
       style="fill:#70ad47;fill-opacity:1;stroke:none;stroke-width:1.79393;stroke-linecap:round;stroke-linejoin:round;stroke-dasharray:none;stroke-dashoffset:53.8726;stroke-opacity:1"
       id="path60601-85-5-38-5"
       cx="90.697495"
       cy="178.69151"
       r="0.82308936" />
    <circle
       style="fill:#70ad47;fill-opacity:1;stroke:none;stroke-width:1.79393;stroke-linecap:round;stroke-linejoin:round;stroke-dasharray:none;stroke-dashoffset:53.8726;stroke-opacity:1"
       id="path60601-85-5-39"
       cx="101.70914"
       cy="173.89359"
       r="0.82308936" />
    <circle
       style="fill:#70ad47;fill-opacity:1;stroke:none;stroke-width:1.79393;stroke-linecap:round;stroke-linejoin:round;stroke-dasharray:none;stroke-dashoffset:53.8726;stroke-opacity:1"
       id="path60601-85-5-71"
       cx="98.248329"
       cy="175.38802"
       r="0.82308936" />
    <circle
       style="fill:#70ad47;fill-opacity:1;stroke:none;stroke-width:1.79393;stroke-linecap:round;stroke-linejoin:round;stroke-dasharray:none;stroke-dashoffset:53.8726;stroke-opacity:1"
       id="path60601-85-5-71-9"
       cx="96.203331"
       cy="176.17456"
       r="0.82308936" />
    <circle
       style="fill:#70ad47;fill-opacity:1;stroke:none;stroke-width:1.79393;stroke-linecap:round;stroke-linejoin:round;stroke-dasharray:none;stroke-dashoffset:53.8726;stroke-opacity:1"
       id="path60601-85-5-71-91"
       cx="91.720001"
       cy="178.06229"
       r="0.82308936" />
    <circle
       style="fill:#70ad47;fill-opacity:1;stroke:none;stroke-width:1.79393;stroke-linecap:round;stroke-linejoin:round;stroke-dasharray:none;stroke-dashoffset:53.8726;stroke-opacity:1"
       id="path60601-85-5-38-7"
       cx="87.315346"
       cy="180.02866"
       r="0.82308936" />
    <circle
       style="fill:#70ad47;fill-opacity:1;stroke:none;stroke-width:1.79393;stroke-linecap:round;stroke-linejoin:round;stroke-dasharray:none;stroke-dashoffset:53.8726;stroke-opacity:1"
       id="path60601-85-5-38-9"
       cx="110.4446"
       cy="170.21983"
       r="0.82308936" />
    <circle
       style="fill:#70ad47;fill-opacity:1;stroke:none;stroke-width:1.79393;stroke-linecap:round;stroke-linejoin:round;stroke-dasharray:none;stroke-dashoffset:53.8726;stroke-opacity:1"
       id="path60601-85-5-38-4"
       cx="110.7151"
       cy="170.03951"
       r="0.82308936" />
    <circle
       style="fill:#70ad47;fill-opacity:1;stroke:none;stroke-width:1.79393;stroke-linecap:round;stroke-linejoin:round;stroke-dasharray:none;stroke-dashoffset:53.8726;stroke-opacity:1"
       id="path60601-85-5-7-2"
       cx="116.77151"
       cy="167.52255"
       r="0.82308936" />
    <circle
       style="fill:#70ad47;fill-opacity:1;stroke:none;stroke-width:1.79393;stroke-linecap:round;stroke-linejoin:round;stroke-dasharray:none;stroke-dashoffset:53.8726;stroke-opacity:1"
       id="path60601-85-5-7-4"
       cx="123.14255"
       cy="164.76964"
       r="0.82308936" />
    <circle
       style="fill:#70ad47;fill-opacity:1;stroke:none;stroke-width:1.79393;stroke-linecap:round;stroke-linejoin:round;stroke-dasharray:none;stroke-dashoffset:53.8726;stroke-opacity:1"
       id="path60601-85-5-7-5"
       cx="154.57748"
       cy="151.22635"
       r="0.82308936" />
    <circle
       style="fill:#70ad47;fill-opacity:1;stroke:none;stroke-width:1.79393;stroke-linecap:round;stroke-linejoin:round;stroke-dasharray:none;stroke-dashoffset:53.8726;stroke-opacity:1"
       id="path60601-85-5-7-0"
       cx="161.644"
       cy="148.13417"
       r="0.82308936" />
  </g>
</svg>
