<?xml version="1.0" encoding="UTF-8" standalone="no"?>
<!-- Created with Inkscape (http://www.inkscape.org/) -->

<svg
   width="88.078606mm"
   height="45.919704mm"
   viewBox="0 0 88.078607 45.919705"
   version="1.1"
   id="svg5"
   inkscape:version="1.2 (dc2aedaf03, 2022-05-15)"
   sodipodi:docname="Multiple Linear Correlation.svg"
   xml:space="preserve"
   inkscape:export-filename="Multiple-Linear-Regression.png"
   inkscape:export-xdpi="300"
   inkscape:export-ydpi="300"
   xmlns:inkscape="http://www.inkscape.org/namespaces/inkscape"
   xmlns:sodipodi="http://sodipodi.sourceforge.net/DTD/sodipodi-0.dtd"
   xmlns="http://www.w3.org/2000/svg"
   xmlns:svg="http://www.w3.org/2000/svg"><sodipodi:namedview
     id="namedview7"
     pagecolor="#505050"
     bordercolor="#ffffff"
     borderopacity="1"
     inkscape:showpageshadow="0"
     inkscape:pageopacity="0"
     inkscape:pagecheckerboard="1"
     inkscape:deskcolor="#505050"
     inkscape:document-units="mm"
     showgrid="false"
     inkscape:zoom="1.6819304"
     inkscape:cx="68.076538"
     inkscape:cy="101.66889"
     inkscape:window-width="1920"
     inkscape:window-height="1017"
     inkscape:window-x="-8"
     inkscape:window-y="-8"
     inkscape:window-maximized="1"
     inkscape:current-layer="g2436-0-8-2-6"
     showguides="false" /><defs
     id="defs2"><linearGradient
   id="linearGradient47931"
   inkscape:swatch="solid"><stop
     style="stop-color:#53b7ba;stop-opacity:1;"
     offset="0"
     id="stop47929" /></linearGradient><linearGradient
   id="linearGradient47021"
   inkscape:swatch="solid"><stop
     style="stop-color:#000000;stop-opacity:1;"
     offset="0"
     id="stop47019" /></linearGradient><clipPath
   id="clip-0">
      <path
   clip-rule="nonzero"
   d="M 0,0 H 9 V 6.808594 H 0 Z m 0,0"
   id="path12" />
    </clipPath>
  <clipPath
   id="clipPath15609">
      <path
   clip-rule="nonzero"
   d="M 0,0 H 21 V 16.9375 H 0 Z m 0,0"
   id="path15607" />
    </clipPath>
  <clipPath
   id="clipPath17500">
      <path
   clip-rule="nonzero"
   d="M 0,0 H 21 V 17.890625 H 0 Z m 0,0"
   id="path17498" />
    </clipPath>
  <clipPath
   id="clipPath18687">
      <path
   clip-rule="nonzero"
   d="M 0,0 H 9 V 6.808594 H 0 Z m 0,0"
   id="path18685" />
    </clipPath>
  <clipPath
   id="clipPath19867">
      <path
   clip-rule="nonzero"
   d="M 0,1 H 8 V 11.664063 H 0 Z m 0,0"
   id="path22" />
    </clipPath>
    <clipPath
   id="clip-1">
      <path
   clip-rule="nonzero"
   d="m 17,1 h 3 v 10.664063 h -3 z m 0,0"
   id="path25" />
    </clipPath>
  <clipPath
   id="clipPath21091">
      <path
   clip-rule="nonzero"
   d="M 0,2 H 9 V 9.171875 H 0 Z m 0,0"
   id="path16" />
    </clipPath>
  <clipPath
   id="clipPath22297">
      <path
   clip-rule="nonzero"
   d="M 0,1 H 6 V 4.644531 H 0 Z m 0,0"
   id="path15" />
    </clipPath>
  <clipPath
   id="clipPath25935">
      <path
   clip-rule="nonzero"
   d="M 0,0 H 4 V 2.144531 H 0 Z m 0,0"
   id="path8" />
    </clipPath>
  <clipPath
   id="clipPath27890">
      <path
   clip-rule="nonzero"
   d="M 0,1 H 7 V 6.410156 H 0 Z m 0,0"
   id="path29" />
    </clipPath>
  <clipPath
   id="clipPath29181">
      <path
   clip-rule="nonzero"
   d="M 0,1 H 7 V 6.453125 H 0 Z m 0,0"
   id="path33" />
    </clipPath>
  <clipPath
   id="clipPath31263">
      <path
   clip-rule="nonzero"
   d="M 0,1 H 7 V 6.464844 H 0 Z m 0,0"
   id="path23" />
    </clipPath>
  <clipPath
   id="clipPath32574">
      <path
   clip-rule="nonzero"
   d="M 0,1 H 7 V 6.464844 H 0 Z m 0,0"
   id="path19" />
    </clipPath>
  <clipPath
   id="clipPath33906">
      <path
   clip-rule="nonzero"
   d="M 0,1 H 6 V 6.464844 H 0 Z m 0,0"
   id="path33904" />
    </clipPath>
  <clipPath
   id="clipPath35584">
      <path
   clip-rule="nonzero"
   d="M 0,1 H 7 V 6.453125 H 0 Z m 0,0"
   id="path35582" />
    </clipPath>
  <clipPath
   id="clipPath37277">
      <path
   clip-rule="nonzero"
   d="M 0,1 H 5 V 7.820313 H 0 Z m 0,0"
   id="path37275" />
    </clipPath>
  <clipPath
   id="clipPath39408">
      <path
   clip-rule="nonzero"
   d="M 0,1 H 7 V 6.453125 H 0 Z m 0,0"
   id="path39406" />
    </clipPath>
  <clipPath
   id="clipPath40094">
      <path
   clip-rule="nonzero"
   d="M 0,1 H 7 V 6.464844 H 0 Z m 0,0"
   id="path40092" />
    </clipPath>
  <clipPath
   id="clipPath40816">
      <path
   clip-rule="nonzero"
   d="M 0,1 H 7 V 6.464844 H 0 Z m 0,0"
   id="path40814" />
    </clipPath>
  <clipPath
   id="clipPath53913">
      <path
   clip-rule="nonzero"
   d="M 0,1 H 5 V 7.820313 H 0 Z m 0,0"
   id="path53911" />
    </clipPath>
    <clipPath
   id="clipPath53916">
      <path
   clip-rule="nonzero"
   d="m 35,3 h 5 v 4.820313 h -5 z m 0,0"
   id="path32" />
    </clipPath>
  <clipPath
   id="clipPath55543">
      <path
   clip-rule="nonzero"
   d="M 0,1 H 5 V 7.820313 H 0 Z m 0,0"
   id="path55541" />
    </clipPath>
  <clipPath
   id="clip-0-2">
      <path
   clip-rule="nonzero"
   d="M 0,0 H 9 V 6.808594 H 0 Z m 0,0"
   id="path12-8" />
    </clipPath><clipPath
   id="clip-0-3">
      <path
   clip-rule="nonzero"
   d="M 0,0 H 9 V 6.808594 H 0 Z m 0,0"
   id="path12-4" />
    </clipPath><clipPath
   id="clipPath68383">
      <path
   clip-rule="nonzero"
   d="M 0,0 H 6 V 5.152344 H 0 Z m 0,0"
   id="path68381" />
    </clipPath>
  <clipPath
   id="clip-0-3-9">
      <path
   clip-rule="nonzero"
   d="M 0,0 H 9 V 6.808594 H 0 Z m 0,0"
   id="path12-4-8" />
    </clipPath><clipPath
   id="clip-0-4">
      <path
   clip-rule="nonzero"
   d="M 0,0 H 9 V 6.808594 H 0 Z m 0,0"
   id="path12-7" />
    </clipPath><clipPath
   id="clipPath70782">
      <path
   clip-rule="nonzero"
   d="M 0,0 H 9 V 6.808594 H 0 Z m 0,0"
   id="path70780" />
    </clipPath><clipPath
   id="clip-0-3-4">
      <path
   clip-rule="nonzero"
   d="M 0,0 H 9 V 6.808594 H 0 Z m 0,0"
   id="path12-4-3" />
    </clipPath><clipPath
   id="clip-0-5">
      <path
   clip-rule="nonzero"
   d="M 0,0 H 9 V 6.808594 H 0 Z m 0,0"
   id="path12-77" />
    </clipPath><clipPath
   id="clipPath10298">
      <path
   clip-rule="nonzero"
   d="M 0,0 H 9 V 6.808594 H 0 Z m 0,0"
   id="path10296" />
    </clipPath><clipPath
   id="clip-0-38">
      <path
   clip-rule="nonzero"
   d="M 0,0 H 9 V 6.808594 H 0 Z m 0,0"
   id="path12-40" />
    </clipPath><clipPath
   id="clip-0-5-8">
      <path
   clip-rule="nonzero"
   d="M 0,0 H 9 V 6.808594 H 0 Z m 0,0"
   id="path12-77-9" />
    </clipPath>
  
<clipPath
   id="clipPath5401">
      <path
   clip-rule="nonzero"
   d="M 0,0 H 8 V 6.972656 H 0 Z m 0,0"
   id="path5399" />
    </clipPath>
  <marker
   style="overflow:visible"
   id="Arrow2-5-09-3"
   refX="0"
   refY="0"
   orient="auto-start-reverse"
   inkscape:stockid="Arrow2"
   markerWidth="7.6999998"
   markerHeight="5.5999999"
   viewBox="0 0 7.7 5.6"
   inkscape:isstock="true"
   inkscape:collect="always"
   preserveAspectRatio="xMidYMid"><path
     transform="scale(0.7)"
     d="M -2,-4 9,0 -2,4 c 2,-2.33 2,-5.66 0,-8 z"
     style="fill:context-stroke;fill-rule:evenodd;stroke:none"
     id="arrow2L-7-5-71" /></marker><marker
   style="overflow:visible"
   id="Arrow2-5-09-3-8"
   refX="0"
   refY="0"
   orient="auto-start-reverse"
   inkscape:stockid="Arrow2"
   markerWidth="7.6999998"
   markerHeight="5.5999999"
   viewBox="0 0 7.7 5.6"
   inkscape:isstock="true"
   inkscape:collect="always"
   preserveAspectRatio="xMidYMid"><path
     transform="scale(0.7)"
     d="M -2,-4 9,0 -2,4 c 2,-2.33 2,-5.66 0,-8 z"
     style="fill:context-stroke;fill-rule:evenodd;stroke:none"
     id="arrow2L-7-5-71-2" /></marker><clipPath
   id="clipPath8778">
      <path
   clip-rule="nonzero"
   d="M 0,0 H 3.972656 V 4.492188 H 0 Z m 0,0"
   id="path8776" />
    </clipPath>
  <clipPath
   id="clipPath9794">
      <path
   clip-rule="nonzero"
   d="M 0,0 H 5.949219 V 3.003906 H 0 Z m 0,0"
   id="path9792" />
    </clipPath>
  <clipPath
   id="clipPath10824">
      <path
   clip-rule="nonzero"
   d="M 0,0 H 3.503906 V 4.84375 H 0 Z m 0,0"
   id="path10822" />
    </clipPath>
  <marker
   style="overflow:visible"
   id="Arrow2-5-09-3-1"
   refX="0"
   refY="0"
   orient="auto-start-reverse"
   inkscape:stockid="Arrow2"
   markerWidth="7.6999998"
   markerHeight="5.5999999"
   viewBox="0 0 7.7 5.6"
   inkscape:isstock="true"
   inkscape:collect="always"
   preserveAspectRatio="xMidYMid"><path
     transform="scale(0.7)"
     d="M -2,-4 9,0 -2,4 c 2,-2.33 2,-5.66 0,-8 z"
     style="fill:context-stroke;fill-rule:evenodd;stroke:none"
     id="arrow2L-7-5-71-3" /></marker><clipPath
   id="clip-0-38-4">
      <path
   clip-rule="nonzero"
   d="M 0,0 H 9 V 6.808594 H 0 Z m 0,0"
   id="path12-40-4" />
    </clipPath><clipPath
   id="clipPath13329">
      <path
   clip-rule="nonzero"
   d="M 0,1 H 7 V 6.605469 H 0 Z m 0,0"
   id="path13327" />
    </clipPath>
  <marker
   style="overflow:visible"
   id="Arrow2-5-09-3-1-0"
   refX="0"
   refY="0"
   orient="auto-start-reverse"
   inkscape:stockid="Arrow2"
   markerWidth="7.6999998"
   markerHeight="5.5999999"
   viewBox="0 0 7.7 5.6"
   inkscape:isstock="true"
   inkscape:collect="always"
   preserveAspectRatio="xMidYMid"><path
     transform="scale(0.7)"
     d="M -2,-4 9,0 -2,4 c 2,-2.33 2,-5.66 0,-8 z"
     style="fill:context-stroke;fill-rule:evenodd;stroke:none"
     id="arrow2L-7-5-71-3-4" /></marker></defs><g
     inkscape:label="Ebene 1"
     inkscape:groupmode="layer"
     id="layer1"
     transform="translate(-36.1885, -54.279)"><g
       id="g1649"><g
         id="g2379-1-8-0-0"
         transform="matrix(6.12303e-17 1 -1 6.12303e-17 107.507 30.0471)"><g
           id="g2436-0-8-2-6"
           transform="translate(2.00047, 2.00044)"><text
             xml:space="preserve"
             style="font-style:normal;font-weight:normal;font-size:10.5833px;line-height:1.25;font-family:sans-serif;fill:#000000;fill-opacity:1;stroke:none;stroke-width:0.264583"
             x="68.874054"
             y="10.095526"
             id="text9937-5-4-3"
             transform="rotate(-90)"><tspan
               sodipodi:role="line"
               id="tspan9935-4-2-5"
               style="stroke-width:0.264583"
               x="68.874054"
               y="10.095526" /></text><path
             style="fill:none;stroke:#000000;stroke-width:0.3;stroke-linecap:butt;stroke-linejoin:miter;stroke-dasharray:none;stroke-opacity:1;marker-end:url(#Arrow2-5-09-3)"
             d="m 33.294188,47.244864 c 0.02274,-6.93856 -0.516259,-10.875086 5.552995,-17.663877"
             id="path48050-4-25-1"
             sodipodi:nodetypes="cc" /><path
             style="fill:none;stroke:#000000;stroke-width:0.3;stroke-linecap:butt;stroke-linejoin:miter;stroke-dasharray:none;stroke-opacity:1;marker-end:url(#Arrow2-5-09-3-1)"
             d="m 44.121626,15.780582 c 0.02274,-6.9385599 0.09553,-4.590337 0.04689,-15.21671815"
             id="path48050-4-25-1-43"
             sodipodi:nodetypes="cc" /><path
             style="fill:none;stroke:#000000;stroke-width:0.3;stroke-linecap:butt;stroke-linejoin:miter;stroke-dasharray:none;stroke-opacity:1;marker-end:url(#Arrow2-5-09-3-1-0)"
             d="m 33.19427,83.062373 c 0.02274,-6.938562 0.09553,-9.309619 0.04689,-19.936"
             id="path48050-4-25-1-43-8"
             sodipodi:nodetypes="cc" /><path
             style="fill:none;stroke:#000000;stroke-width:0.3;stroke-linecap:butt;stroke-linejoin:miter;stroke-dasharray:none;stroke-opacity:1;marker-end:url(#Arrow2-5-09-3-8)"
             d="m 54.197714,47.488534 c -0.02274,-6.93856 0.516259,-10.875086 -5.552995,-17.663877"
             id="path48050-4-25-1-4"
             sodipodi:nodetypes="cc" /><circle
             style="fill:#e5e5e5;fill-opacity:1;stroke:#000000;stroke-width:0.339;stroke-linecap:round;stroke-linejoin:round;stroke-dasharray:none;stroke-dashoffset:0;stroke-opacity:1"
             id="path1159"
             cx="-53.970108"
             cy="33.23616"
             r="6.0066624"
             transform="rotate(-90)" /><circle
             style="fill:#e5e5e5;fill-opacity:1;stroke:#000000;stroke-width:0.339;stroke-linecap:round;stroke-linejoin:round;stroke-dasharray:none;stroke-dashoffset:0;stroke-opacity:1"
             id="path1159-9"
             cx="7.7920375"
             cy="43.944889"
             r="6.0066624"
             transform="rotate(-90)" /><g
             id="g2441"
             transform="matrix(2.1126234,0,0,2.1126234,69.065117,147.05273)"><g
               clip-path="url(#clip-0-5-8)"
               id="g68732-9-5"
               transform="matrix(0,-0.352778,0.352778,0,-12.654731,-71.303792)">
    <g
   fill="#000000"
   fill-opacity="1"
   id="g68730-4-1">
      <g
   id="g68728-3-6"
   transform="translate(0,5.151)">
        <path
   d="M 4.71875,-3.921875 C 4.859375,-4.0625 5,-4.1875 5.15625,-4.296875 5.4375,-4.484375 5.6875,-4.5 5.78125,-4.515625 c 0.078125,0 0.15625,0 0.15625,-0.140625 0,-0.046875 -0.03125,-0.109375 -0.09375,-0.109375 -0.171875,0 -0.375,0.03125 -0.5625,0.03125 -0.21875,0 -0.515625,-0.03125 -0.71875,-0.03125 -0.046875,0 -0.140625,0 -0.140625,0.15625 0,0.09375 0.09375,0.09375 0.125,0.09375 C 4.75,-4.5 4.75,-4.421875 4.75,-4.375 c 0,0.0625 -0.046875,0.109375 -0.09375,0.1875 -0.046875,0.0625 -0.078125,0.109375 -0.125,0.140625 L 2.796875,-2.21875 1.875,-4.265625 c -0.046875,-0.09375 -0.046875,-0.109375 -0.046875,-0.125 0,-0.125 0.328125,-0.125 0.375,-0.125 0.09375,0 0.1875,0 0.1875,-0.140625 0,-0.015625 0,-0.109375 -0.125,-0.109375 -0.203125,0 -0.71875,0.03125 -0.921875,0.03125 -0.1875,0 -0.625,-0.03125 -0.796875,-0.03125 -0.0625,0 -0.140625,0.03125 -0.140625,0.15625 0,0.09375 0.09375,0.09375 0.1875,0.09375 0.40625,0 0.4375,0.0625 0.5,0.21875 l 1.078125,2.390625 -0.3125,1.265625 c -0.09375,0.359375 -0.09375,0.375 -0.640625,0.390625 -0.125,0 -0.203125,0 -0.203125,0.140625 C 1.015625,-0.03125 1.0625,0 1.125,0 1.25,0 1.421875,-0.015625 1.546875,-0.015625 c 0.140625,0 0.34375,-0.015625 0.46875,-0.015625 0.140625,0 0.296875,0.015625 0.4375,0.015625 C 2.609375,-0.015625 2.78125,0 2.921875,0 2.96875,0 3.078125,0 3.078125,-0.15625 3.078125,-0.25 3,-0.25 2.84375,-0.25 c -0.109375,0 -0.140625,0 -0.265625,-0.015625 -0.125,-0.015625 -0.15625,-0.03125 -0.15625,-0.09375 0,-0.046875 0.09375,-0.375 0.140625,-0.5625 C 2.609375,-1.15625 2.765625,-1.75 2.78125,-1.78125 2.796875,-1.890625 2.796875,-1.90625 2.875,-1.96875 Z m 0,0"
   id="path68726-5-6" />
      </g>
    </g>
  </g><g
               fill="#000000"
               fill-opacity="1"
               id="g68738-2-4"
               transform="matrix(0,-0.352778,0.352778,0,-12.654731,-71.303792)">
    <g
   id="g68736-8-3"
   transform="translate(6.3990002,2.1440001)">
      <path
   d="m 2.6875,-0.4375 c -0.03125,0.109375 -0.078125,0.28125 -0.078125,0.3125 0,0.109375 0.09375,0.1875 0.1875,0.1875 0.078125,0 0.1875,-0.046875 0.25,-0.171875 0,-0.03125 0.0625,-0.265625 0.09375,-0.390625 0.15625,-0.671875 0.15625,-0.6875 0.171875,-0.703125 0.0625,-0.125 0.421875,-0.828125 1.03125,-0.828125 0.25,0 0.34375,0.125 0.34375,0.359375 0,0.28125 -0.203125,0.796875 -0.3125,1.078125 -0.03125,0.0625 -0.046875,0.125 -0.046875,0.203125 0,0.265625 0.25,0.453125 0.53125,0.453125 0.53125,0 0.8125,-0.65625 0.8125,-0.78125 0,-0.0625 -0.078125,-0.0625 -0.109375,-0.0625 -0.078125,0 -0.078125,0.015625 -0.109375,0.109375 -0.09375,0.296875 -0.328125,0.5625 -0.5625,0.5625 -0.125,0 -0.15625,-0.078125 -0.15625,-0.1875 0,-0.109375 0.015625,-0.15625 0.0625,-0.265625 0.09375,-0.203125 0.3125,-0.765625 0.3125,-1.046875 0,-0.375 -0.265625,-0.59375 -0.734375,-0.59375 -0.46875,0 -0.78125,0.28125 -0.984375,0.546875 -0.046875,-0.5 -0.546875,-0.546875 -0.75,-0.546875 -0.484375,0 -0.765625,0.296875 -0.9375,0.5 -0.015625,-0.4375 -0.484375,-0.5 -0.609375,-0.5 -0.5,0 -0.640625,0.765625 -0.640625,0.765625 0,0.078125 0.078125,0.078125 0.109375,0.078125 0.078125,0 0.09375,-0.03125 0.109375,-0.09375 C 0.75,-1.75 0.859375,-2.03125 1.078125,-2.03125 c 0.15625,0 0.203125,0.15625 0.203125,0.265625 0,0.0625 -0.0625,0.25 -0.078125,0.390625 -0.046875,0.125 -0.09375,0.328125 -0.109375,0.4375 l -0.125,0.453125 c -0.03125,0.125 -0.078125,0.34375 -0.078125,0.359375 0,0.109375 0.09375,0.1875 0.1875,0.1875 C 1.140625,0.0625 1.25,0.015625 1.3125,-0.109375 1.3125,-0.140625 1.375,-0.375 1.40625,-0.5 1.421875,-0.578125 1.484375,-0.796875 1.5,-0.84375 1.515625,-0.953125 1.546875,-1.0625 1.578125,-1.171875 c 0,-0.03125 0.1875,-0.390625 0.4375,-0.609375 0.078125,-0.0625 0.28125,-0.25 0.609375,-0.25 0.25,0 0.34375,0.140625 0.34375,0.359375 0,0.109375 -0.046875,0.3125 -0.09375,0.453125 z m 0,0"
   id="path68734-4-1" />
    </g>
  </g></g><circle
             style="fill:#e5e5e5;fill-opacity:1;stroke:#000000;stroke-width:0.339;stroke-linecap:round;stroke-linejoin:round;stroke-dasharray:none;stroke-dashoffset:0;stroke-opacity:1"
             id="path1159-5"
             cx="-22.598763"
             cy="43.833652"
             r="6.0066624"
             transform="rotate(-90)" /><g
             inkscape:label=""
             transform="matrix(0,-2.435629,2.435629,0,41.164009,26.075183)"
             id="g5880"><g
   clip-path="url(#clip-0)"
   id="g17"
   transform="matrix(0.352778,0,0,0.352778,-0.187413,0)">
    <g
   fill="#000000"
   fill-opacity="1"
   id="g15">
      <g
   id="use13">
        <path
   d="m 4.475232,3.609375 c 0.078125,-0.078125 0.078125,-0.09375 0.078125,-0.125 0,-0.015625 0,-0.03125 -0.0625,-0.109375 L 2.022107,0.34375 h 3.03125 c 1.015625,0 1.5625,0.140625 1.6875,0.171875 C 7.350232,0.6875 7.959607,1.09375 8.193982,1.6875 H 8.428357 L 7.772107,0 h -6.40625 c -0.15625,0 -0.15625,0 -0.1875,0.046875 -0.03125,0.015625 -0.03125,0.03125 -0.03125,0.21875 L 3.943982,3.703125 1.240857,6.75 c -0.09375,0.078125 -0.09375,0.09375 -0.09375,0.125 0,0.09375 0.09375,0.09375 0.21875,0.09375 h 6.40625 L 8.428357,5.171875 H 8.193982 C 7.959607,5.8125 7.350232,6.1875 6.850232,6.328125 6.709607,6.375 6.178357,6.53125 5.100232,6.53125 h -3.21875 z m 0,0"
   id="path5875" />
      </g>
    </g>
  </g>
</g><circle
             style="fill:#e5e5e5;fill-opacity:1;stroke:#000000;stroke-width:0.339;stroke-linecap:round;stroke-linejoin:round;stroke-dasharray:none;stroke-dashoffset:0;stroke-opacity:1"
             id="path1159-55"
             cx="-54.081337"
             cy="54.370728"
             r="6.0066624"
             transform="rotate(-90)" /><g
             inkscape:label=""
             transform="matrix(0,-2.6868203,2.6868203,0,52.034938,55.088895)"
             id="g8818"><g
   clip-path="url(#clip-0)"
   id="g8816"
   transform="matrix(0.352778,0,0,0.352778,-0.270095,0.0462139)">
    <g
   fill="#000000"
   fill-opacity="1"
   id="g8814">
      <g
   id="g8812"
   transform="translate(0,4.494)">
        <path
   d="m 2.328125,-4.4375 c 0,-0.1875 0,-0.1875 -0.203125,-0.1875 -0.453125,0.4375 -1.078125,0.4375 -1.359375,0.4375 v 0.25 c 0.15625,0 0.625,0 1,-0.1875 v 3.546875 c 0,0.234375 0,0.328125 -0.6875,0.328125 H 0.8125 V 0 c 0.125,0 0.984375,-0.03125 1.234375,-0.03125 0.21875,0 1.09375,0.03125 1.25,0.03125 V -0.25 H 3.03125 c -0.703125,0 -0.703125,-0.09375 -0.703125,-0.328125 z m 0,0"
   id="path8810" />
      </g>
    </g>
  </g>
</g><g
             inkscape:label=""
             transform="matrix(0,-2.0933335,2.0933335,0,49.155899,39.907602)"
             id="g10874"><g
   clip-path="url(#clip-0)"
   id="g10872"
   transform="matrix(0.352778,0,0,0.352778,-0.159852,2.64606e-4)">
    <g
   fill="#000000"
   fill-opacity="1"
   id="g10870">
      <g
   id="g10868"
   transform="translate(0,4.8429999)">
        <path
   d="m 1.84375,-4.625 c 0,-0.015625 0.03125,-0.109375 0.03125,-0.109375 0,-0.046875 -0.03125,-0.109375 -0.125,-0.109375 -0.140625,0 -0.71875,0.0625 -0.890625,0.078125 -0.046875,0 -0.15625,0.015625 -0.15625,0.15625 0,0.09375 0.109375,0.09375 0.1875,0.09375 0.328125,0 0.328125,0.0625 0.328125,0.109375 0,0.046875 -0.0625,0.328125 -0.109375,0.484375 l -0.15625,0.640625 c -0.0625,0.25 -0.4375,1.765625 -0.453125,1.859375 -0.046875,0.171875 -0.046875,0.265625 -0.046875,0.34375 0,0.703125 0.453125,1.140625 1.03125,1.140625 0.875,0 1.796875,-0.9375 1.796875,-1.96875 0,-0.8125 -0.5625,-1.171875 -1.046875,-1.171875 -0.359375,0 -0.671875,0.203125 -0.875,0.390625 z m -0.359375,4.5 c -0.328125,0 -0.53125,-0.296875 -0.53125,-0.71875 0,-0.25 0.0625,-0.484375 0.265625,-1.28125 C 1.25,-2.25 1.25,-2.265625 1.390625,-2.421875 1.65625,-2.71875 1.96875,-2.875 2.21875,-2.875 c 0.265625,0 0.5,0.203125 0.5,0.671875 0,0.28125 -0.140625,1 -0.359375,1.40625 C 2.1875,-0.453125 1.84375,-0.125 1.484375,-0.125 Z m 0,0"
   id="path10866" />
      </g>
    </g>
  </g>
</g><g
             inkscape:label=""
             transform="matrix(0,-2.1134163,2.1134163,0,28.79904,41.395647)"
             id="g12735"><g
   fill="#000000"
   fill-opacity="1"
   id="g12"
   transform="matrix(0.352778,0,0,0.352778,-0.192925,2.20533e-4)">
    <g
   id="use10"
   transform="translate(0,4.7649999)">
      <path
   d="m 7.21875,-3.9375 0.125,-0.1875 C 7.484375,-4.3125 7.65625,-4.484375 8,-4.515625 c 0.078125,0 0.15625,0 0.15625,-0.140625 0,-0.046875 -0.03125,-0.109375 -0.09375,-0.109375 -0.15625,0 -0.359375,0.03125 -0.53125,0.03125 -0.234375,0 -0.546875,-0.03125 -0.765625,-0.03125 -0.046875,0 -0.15625,0 -0.15625,0.15625 0,0.09375 0.09375,0.09375 0.125,0.09375 0.15625,0.015625 0.390625,0.0625 0.390625,0.25 0,0.078125 -0.078125,0.203125 -0.109375,0.25 l -1.96875,3.234375 -0.375,-3.53125 c 0,-0.1875 0.40625,-0.203125 0.484375,-0.203125 0.09375,0 0.1875,0 0.1875,-0.140625 0,-0.015625 0,-0.109375 -0.125,-0.109375 -0.125,0 -0.296875,0.015625 -0.421875,0.03125 -0.140625,0 -0.328125,0 -0.46875,0 -0.15625,0 -0.5625,-0.03125 -0.71875,-0.03125 -0.046875,0 -0.140625,0 -0.140625,0.15625 0,0.09375 0.078125,0.09375 0.171875,0.09375 0.296875,0 0.34375,0.0625 0.359375,0.125 0,0.046875 0.015625,0.234375 0.046875,0.453125 L 2.125,-0.78125 1.765625,-4.203125 C 1.765625,-4.234375 1.75,-4.296875 1.75,-4.3125 c 0,-0.203125 0.4375,-0.203125 0.484375,-0.203125 0.09375,0 0.1875,0 0.1875,-0.140625 0,-0.03125 -0.015625,-0.109375 -0.109375,-0.109375 -0.203125,0 -0.703125,0.03125 -0.890625,0.03125 -0.234375,0 -0.53125,-0.03125 -0.734375,-0.03125 -0.078125,0 -0.140625,0.03125 -0.140625,0.15625 0,0.09375 0.078125,0.09375 0.1875,0.09375 0.328125,0 0.328125,0.046875 0.359375,0.21875 l 0.453125,4.25 c 0.015625,0.140625 0.03125,0.1875 0.15625,0.1875 C 1.8125,0.140625 1.875,0.078125 1.90625,0 l 2.171875,-3.578125 0.390625,3.53125 c 0.015625,0.15625 0.046875,0.1875 0.15625,0.1875 0.109375,0 0.15625,-0.0625 0.203125,-0.140625 z m 0,0"
   id="path18" />
    </g>
  </g>
</g><circle
             style="fill:#e5e5e5;fill-opacity:1;stroke:#000000;stroke-width:0.339;stroke-linecap:round;stroke-linejoin:round;stroke-dasharray:none;stroke-dashoffset:0;stroke-opacity:1"
             id="path1159-1"
             cx="-91.127205"
             cy="33.08577"
             r="6.0066624"
             transform="rotate(-90)" /><g
             inkscape:label=""
             transform="matrix(0,-2.1484136,2.1484136,0,30.545515,94.942267)"
             id="g41130-4-3"><g
   clip-path="url(#clip-0-38-4)"
   id="g21-9-2"
   transform="matrix(0.352778,0,0,0.352778,-0.121267,-0.00207261)">
    <g
   fill="#000000"
   fill-opacity="1"
   id="g19-5-8">
      <g
   id="use17-2-0"
   transform="translate(0,6.4660001)">
        <path
   d="m 3.875,-2.65625 0.65625,-0.671875 c 0.890625,-0.875 1.171875,-1.140625 1.796875,-1.1875 0.09375,0 0.171875,0 0.171875,-0.140625 0,-0.078125 -0.078125,-0.109375 -0.09375,-0.109375 -0.203125,0 -0.453125,0.03125 -0.65625,0.03125 -0.1875,0 -0.625,-0.03125 -0.8125,-0.03125 -0.046875,0 -0.140625,0.03125 -0.140625,0.15625 0,0.015625 0,0.09375 0.109375,0.09375 0.0625,0.015625 0.234375,0.03125 0.234375,0.1875 0,0.09375 -0.109375,0.203125 -0.171875,0.28125 C 4.90625,-4 4.03125,-3.140625 3.765625,-2.875 L 3.0625,-4.234375 C 3.046875,-4.265625 3.03125,-4.3125 3.03125,-4.328125 c 0,-0.0625 0.125,-0.171875 0.375,-0.1875 0.046875,0 0.140625,0 0.140625,-0.140625 0,-0.015625 0,-0.109375 -0.125,-0.109375 -0.140625,0 -0.3125,0.03125 -0.453125,0.03125 -0.15625,0 -0.3125,0 -0.453125,0 -0.125,0 -0.296875,0 -0.421875,0 -0.109375,-0.015625 -0.265625,-0.03125 -0.375,-0.03125 -0.03125,0 -0.140625,0 -0.140625,0.15625 0,0.09375 0.09375,0.09375 0.203125,0.09375 0.40625,0 0.4375,0.078125 0.5,0.21875 L 3.265625,-2.375 2.875,-1.984375 c -0.140625,0.125 -0.46875,0.4375 -0.59375,0.5625 -0.84375,0.84375 -1.125,1.140625 -1.765625,1.171875 -0.09375,0 -0.171875,0 -0.171875,0.15625 C 0.34375,-0.0625 0.375,0 0.453125,0 c 0.1875,0 0.4375,-0.03125 0.640625,-0.03125 0.125,0 0.296875,0 0.40625,0.015625 C 1.625,-0.015625 1.78125,0 1.90625,0 1.9375,0 2.046875,0 2.046875,-0.140625 2.046875,-0.25 1.96875,-0.25 1.921875,-0.25 c -0.0625,-0.015625 -0.21875,-0.03125 -0.21875,-0.171875 0,-0.109375 0.09375,-0.203125 0.25,-0.359375 l 1.40625,-1.390625 0.84375,1.65625 C 4.25,-0.453125 4.25,-0.4375 4.25,-0.421875 c 0,0.03125 -0.125,0.15625 -0.375,0.171875 -0.0625,0 -0.140625,0 -0.140625,0.15625 0,0 0,0.09375 0.109375,0.09375 C 4,0 4.171875,-0.015625 4.3125,-0.015625 c 0.140625,0 0.3125,-0.015625 0.453125,-0.015625 0.125,0 0.28125,0 0.40625,0.015625 C 5.296875,-0.015625 5.4375,0 5.546875,0 5.59375,0 5.703125,0 5.703125,-0.15625 5.703125,-0.25 5.609375,-0.25 5.5,-0.25 5.09375,-0.25 5.0625,-0.328125 5,-0.453125 Z m 0,0"
   id="path31-2-2" />
      </g>
    </g>
  </g>
  <g
   fill="#000000"
   fill-opacity="1"
   id="g25-9-0"
   transform="matrix(0.352778,0,0,0.352778,-0.121267,-0.00207261)">
    <g
   id="use23-1-5"
   transform="translate(7.0760002,3.4590001)">
      <path
   d="M 3.296875,-3.265625 C 3.3125,-3.34375 3.3125,-3.34375 3.3125,-3.375 3.3125,-3.453125 3.25,-3.453125 3.171875,-3.453125 l -0.625,0.046875 c -0.078125,0 -0.09375,0 -0.109375,0.03125 -0.03125,0.015625 -0.046875,0.078125 -0.046875,0.109375 0,0.078125 0.09375,0.078125 0.15625,0.078125 0,0 0.09375,0 0.171875,0.015625 0.09375,0.015625 0.09375,0.03125 0.09375,0.0625 0,0.03125 -0.03125,0.171875 -0.0625,0.265625 l -0.234375,0.9375 c -0.09375,-0.125 -0.28125,-0.296875 -0.59375,-0.296875 -0.703125,0 -1.40625,0.6875 -1.40625,1.390625 0,0.515625 0.375,0.875 0.875,0.875 0.40625,0 0.734375,-0.296875 0.796875,-0.359375 0.078125,0.25 0.359375,0.359375 0.578125,0.359375 0.203125,0 0.34375,-0.125 0.4375,-0.28125 0.140625,-0.203125 0.203125,-0.46875 0.203125,-0.5 0,-0.0625 -0.078125,-0.0625 -0.109375,-0.0625 -0.078125,0 -0.09375,0.03125 -0.109375,0.109375 -0.09375,0.359375 -0.21875,0.5625 -0.390625,0.5625 -0.140625,0 -0.203125,-0.109375 -0.203125,-0.265625 0,-0.0625 0,-0.109375 0.015625,-0.15625 z M 2.21875,-0.65625 c -0.03125,0.0625 -0.03125,0.078125 -0.109375,0.171875 -0.1875,0.21875 -0.453125,0.375 -0.703125,0.375 -0.171875,0 -0.4375,-0.09375 -0.4375,-0.515625 0,-0.234375 0.125,-0.75 0.296875,-1.015625 0.1875,-0.265625 0.453125,-0.390625 0.65625,-0.390625 0.21875,0 0.4375,0.125 0.515625,0.4375 z m 0,0"
   id="path35-32-0" />
    </g>
  </g>
</g><g
             inkscape:label=""
             transform="matrix(0,-2.1215482,2.1215482,0,30.633631,57.835943)"
             id="g13395"><g
   fill="#000000"
   fill-opacity="1"
   id="g23"
   transform="matrix(0.352778,0,0,0.352778,-0.121267,2.64606e-4)">
    <g
   id="use21"
   transform="translate(2.1960001,4.8429999)">
      <path
   d="m 1.984375,-4.84375 -1.046875,0.9375 0.15625,0.171875 0.890625,-0.6875 0.875,0.6875 0.15625,-0.171875 z m 0,0"
   id="path39" />
    </g>
  </g>
  <g
   clip-path="url(#clip-0)"
   id="g29"
   transform="matrix(0.352778,0,0,0.352778,-0.121267,2.64606e-4)">
    <g
   fill="#000000"
   fill-opacity="1"
   id="g27">
      <g
   id="use25"
   transform="translate(0,6.6059999)">
        <path
   d="m 3.875,-2.65625 0.65625,-0.671875 c 0.890625,-0.875 1.171875,-1.140625 1.796875,-1.1875 0.09375,0 0.171875,0 0.171875,-0.140625 0,-0.078125 -0.078125,-0.109375 -0.09375,-0.109375 -0.203125,0 -0.453125,0.03125 -0.65625,0.03125 -0.1875,0 -0.625,-0.03125 -0.8125,-0.03125 -0.046875,0 -0.140625,0.03125 -0.140625,0.15625 0,0.015625 0,0.09375 0.109375,0.09375 0.0625,0.015625 0.234375,0.03125 0.234375,0.1875 0,0.09375 -0.109375,0.203125 -0.171875,0.28125 C 4.90625,-4 4.03125,-3.140625 3.765625,-2.875 L 3.0625,-4.234375 C 3.046875,-4.265625 3.03125,-4.3125 3.03125,-4.328125 c 0,-0.0625 0.125,-0.171875 0.375,-0.1875 0.046875,0 0.140625,0 0.140625,-0.140625 0,-0.015625 0,-0.109375 -0.125,-0.109375 -0.140625,0 -0.3125,0.03125 -0.453125,0.03125 -0.15625,0 -0.3125,0 -0.453125,0 -0.125,0 -0.296875,0 -0.421875,0 -0.109375,-0.015625 -0.265625,-0.03125 -0.375,-0.03125 -0.03125,0 -0.140625,0 -0.140625,0.15625 0,0.09375 0.09375,0.09375 0.203125,0.09375 0.40625,0 0.4375,0.078125 0.5,0.21875 L 3.265625,-2.375 2.875,-1.984375 c -0.140625,0.125 -0.46875,0.4375 -0.59375,0.5625 -0.84375,0.84375 -1.125,1.140625 -1.765625,1.171875 -0.09375,0 -0.171875,0 -0.171875,0.15625 C 0.34375,-0.0625 0.375,0 0.453125,0 c 0.1875,0 0.4375,-0.03125 0.640625,-0.03125 0.125,0 0.296875,0 0.40625,0.015625 C 1.625,-0.015625 1.78125,0 1.90625,0 1.9375,0 2.046875,0 2.046875,-0.140625 2.046875,-0.25 1.96875,-0.25 1.921875,-0.25 c -0.0625,-0.015625 -0.21875,-0.03125 -0.21875,-0.171875 0,-0.109375 0.09375,-0.203125 0.25,-0.359375 l 1.40625,-1.390625 0.84375,1.65625 C 4.25,-0.453125 4.25,-0.4375 4.25,-0.421875 c 0,0.03125 -0.125,0.15625 -0.375,0.171875 -0.0625,0 -0.140625,0 -0.140625,0.15625 0,0 0,0.09375 0.109375,0.09375 C 4,0 4.171875,-0.015625 4.3125,-0.015625 c 0.140625,0 0.3125,-0.015625 0.453125,-0.015625 0.125,0 0.28125,0 0.40625,0.015625 C 5.296875,-0.015625 5.4375,0 5.546875,0 5.59375,0 5.703125,0 5.703125,-0.15625 5.703125,-0.25 5.609375,-0.25 5.5,-0.25 5.09375,-0.25 5.0625,-0.328125 5,-0.453125 Z m 0,0"
   id="path43" />
      </g>
    </g>
  </g>
  <g
   fill="#000000"
   fill-opacity="1"
   id="g33"
   transform="matrix(0.352778,0,0,0.352778,-0.121267,2.64606e-4)">
    <g
   id="use31"
   transform="translate(7.0760002,3.599)">
      <path
   d="m 1.828125,-3.265625 c 0.03125,-0.078125 0.03125,-0.078125 0.03125,-0.109375 0,-0.078125 -0.078125,-0.078125 -0.15625,-0.078125 L 1.09375,-3.40625 c -0.09375,0 -0.109375,0 -0.125,0.03125 -0.015625,0.015625 -0.03125,0.078125 -0.03125,0.109375 0,0.078125 0.078125,0.078125 0.140625,0.078125 0.015625,0 0.09375,0 0.171875,0.015625 0.09375,0.015625 0.09375,0.03125 0.09375,0.0625 0,0.015625 0,0.03125 -0.015625,0.125 l -0.6875,2.75 C 0.625,-0.171875 0.625,-0.15625 0.625,-0.125 c 0,0.109375 0.078125,0.1875 0.1875,0.1875 0.1875,0 0.234375,-0.1875 0.25,-0.265625 l 0.234375,-0.90625 c 0.125,0 0.75,0.03125 0.75,0.390625 0,0.03125 0,0.046875 -0.015625,0.109375 -0.015625,0.078125 -0.015625,0.09375 -0.015625,0.125 0,0.359375 0.3125,0.546875 0.609375,0.546875 0.5,0 0.703125,-0.71875 0.703125,-0.78125 0,-0.0625 -0.078125,-0.0625 -0.109375,-0.0625 -0.078125,0 -0.09375,0.015625 -0.109375,0.109375 -0.046875,0.171875 -0.203125,0.5625 -0.46875,0.5625 -0.1875,0 -0.203125,-0.1875 -0.203125,-0.296875 0,0 0,-0.078125 0.015625,-0.15625 0.015625,-0.078125 0.03125,-0.140625 0.03125,-0.171875 0,-0.4375 -0.5625,-0.515625 -0.890625,-0.546875 0.140625,-0.078125 0.359375,-0.25 0.4375,-0.3125 0.28125,-0.21875 0.5625,-0.4375 0.84375,-0.4375 0.109375,0 0.140625,0.03125 0.171875,0.0625 0,0 -0.03125,0.015625 -0.046875,0.015625 -0.21875,0.078125 -0.21875,0.28125 -0.21875,0.296875 0,0.078125 0.0625,0.203125 0.21875,0.203125 0.09375,0 0.3125,-0.078125 0.3125,-0.359375 0,-0.234375 -0.1875,-0.390625 -0.4375,-0.390625 -0.328125,0 -0.625,0.234375 -0.984375,0.515625 -0.171875,0.140625 -0.34375,0.265625 -0.546875,0.359375 z m 0,0"
   id="path47" />
    </g>
  </g>
</g></g></g></g></g></svg>
