<?xml version="1.0" encoding="UTF-8" standalone="no"?>
<!-- Created with Inkscape (http://www.inkscape.org/) -->

<svg
   width="116.50693mm"
   height="70.329689mm"
   viewBox="0 0 116.50693 70.329689"
   version="1.1"
   id="svg903"
   inkscape:version="1.2 (dc2aedaf03, 2022-05-15)"
   sodipodi:docname="Non-Linear-Feature-Selection-2.svg"
   inkscape:export-filename="plot\Non-Linear-Feature-Selection-1.png"
   inkscape:export-xdpi="300"
   inkscape:export-ydpi="300"
   xmlns:inkscape="http://www.inkscape.org/namespaces/inkscape"
   xmlns:sodipodi="http://sodipodi.sourceforge.net/DTD/sodipodi-0.dtd"
   xmlns="http://www.w3.org/2000/svg"
   xmlns:svg="http://www.w3.org/2000/svg">
  <sodipodi:namedview
     id="namedview905"
     pagecolor="#505050"
     bordercolor="#ffffff"
     borderopacity="1"
     inkscape:showpageshadow="0"
     inkscape:pageopacity="0"
     inkscape:pagecheckerboard="1"
     inkscape:deskcolor="#505050"
     inkscape:document-units="mm"
     showgrid="false"
     inkscape:zoom="1.1893044"
     inkscape:cx="-46.24552"
     inkscape:cy="59.698762"
     inkscape:window-width="1920"
     inkscape:window-height="1017"
     inkscape:window-x="-8"
     inkscape:window-y="-8"
     inkscape:window-maximized="1"
     inkscape:current-layer="layer1" />
  <defs
     id="defs900" />
  <g
     inkscape:label="Ebene 1"
     inkscape:groupmode="layer"
     id="layer1"
     transform="translate(-67.2584, -127.645)">
    <path
       d="m 84.342889,183.96225 0.439085,2.63319"
       style="fill:none;stroke:#000000;stroke-width:0.511248;stroke-linecap:butt;stroke-linejoin:miter;stroke-dasharray:none;stroke-opacity:1"
       id="path6967-59"
       sodipodi:nodetypes="cc" />
    <path
       d="m 86.191273,181.95655 0.281776,1.65"
       style="fill:none;stroke:#000000;stroke-width:0.511248;stroke-linecap:butt;stroke-linejoin:miter;stroke-dasharray:none;stroke-opacity:1"
       id="path6967-37"
       sodipodi:nodetypes="cc" />
    <path
       d="m 87.213784,177.35526 1.264959,5.8187"
       style="fill:none;stroke:#000000;stroke-width:0.511248;stroke-linecap:butt;stroke-linejoin:miter;stroke-dasharray:none;stroke-opacity:1"
       id="path6967-09"
       sodipodi:nodetypes="cc" />
    <path
       d="m 90.51728,182.62512 1.343611,5.3861"
       style="fill:none;stroke:#000000;stroke-width:0.511248;stroke-linecap:butt;stroke-linejoin:miter;stroke-dasharray:none;stroke-opacity:1"
       id="path6967-160"
       sodipodi:nodetypes="cc" />
    <path
       d="m 90.438628,180.97337 0.399755,1.57135"
       style="fill:none;stroke:#000000;stroke-width:0.511248;stroke-linecap:butt;stroke-linejoin:miter;stroke-dasharray:none;stroke-opacity:1"
       id="path6967-38"
       sodipodi:nodetypes="cc" />
    <path
       d="m 93.742125,179.79355 0.478409,1.53202"
       style="fill:none;stroke:#000000;stroke-width:0.511248;stroke-linecap:butt;stroke-linejoin:miter;stroke-dasharray:none;stroke-opacity:1"
       id="path6967-49"
       sodipodi:nodetypes="cc" />
    <path
       d="m 96.259074,180.50144 0.675046,1.72866"
       style="fill:none;stroke:#000000;stroke-width:0.511248;stroke-linecap:butt;stroke-linejoin:miter;stroke-dasharray:none;stroke-opacity:1"
       id="path6967-91"
       sodipodi:nodetypes="cc" />
    <path
       d="m 96.101759,176.60804 1.933531,2.90847"
       style="fill:none;stroke:#000000;stroke-width:0.511248;stroke-linecap:butt;stroke-linejoin:miter;stroke-dasharray:none;stroke-opacity:1"
       id="path6967-9"
       sodipodi:nodetypes="cc" />
    <path
       d="m 101.09633,179.32162 -1.173337,-1.18156"
       style="fill:none;stroke:#000000;stroke-width:0.511248;stroke-linecap:butt;stroke-linejoin:miter;stroke-dasharray:none;stroke-opacity:1"
       id="path6967-16"
       sodipodi:nodetypes="cc" />
    <path
       d="m 96.809657,173.26522 4.135853,3.53771"
       style="fill:none;stroke:#000000;stroke-width:0.511248;stroke-linecap:butt;stroke-linejoin:miter;stroke-dasharray:none;stroke-opacity:1"
       id="path6967-025"
       sodipodi:nodetypes="cc" />
    <path
       d="m 100.66373,174.2484 1.46159,0.70615"
       style="fill:none;stroke:#000000;stroke-width:0.511248;stroke-linecap:butt;stroke-linejoin:miter;stroke-dasharray:none;stroke-opacity:1"
       id="path6967-22"
       sodipodi:nodetypes="cc" />
    <path
       d="m 102.94472,172.95059 2.52343,0.86346"
       style="fill:none;stroke:#000000;stroke-width:0.511248;stroke-linecap:butt;stroke-linejoin:miter;stroke-dasharray:none;stroke-opacity:1"
       id="path6967-54"
       sodipodi:nodetypes="cc" />
    <path
       d="m 100.58507,170.11903 3.03469,0.98144"
       style="fill:none;stroke:#000000;stroke-width:0.511248;stroke-linecap:butt;stroke-linejoin:miter;stroke-dasharray:none;stroke-opacity:1"
       id="path6967-05"
       sodipodi:nodetypes="cc" />
    <path
       d="m 102.60445,168.40307 1.66595,0.46296"
       style="fill:none;stroke:#000000;stroke-width:0.511248;stroke-linecap:butt;stroke-linejoin:miter;stroke-dasharray:none;stroke-opacity:1"
       id="path6967-1"
       sodipodi:nodetypes="cc" />
    <path
       d="m 105.60779,164.25959 -1.72672,-0.45473"
       style="fill:none;stroke:#000000;stroke-width:0.511248;stroke-linecap:butt;stroke-linejoin:miter;stroke-dasharray:none;stroke-opacity:1"
       id="path6967-02"
       sodipodi:nodetypes="cc" />
    <path
       d="m 105.52436,164.59329 1.83279,0.40733"
       style="fill:none;stroke:#000000;stroke-width:0.511248;stroke-linecap:butt;stroke-linejoin:miter;stroke-dasharray:none;stroke-opacity:1"
       id="path6967-26"
       sodipodi:nodetypes="cc" />
    <path
       d="m 101.96486,156.47317 5.50353,2.63203"
       style="fill:none;stroke:#000000;stroke-width:0.511248;stroke-linecap:butt;stroke-linejoin:miter;stroke-dasharray:none;stroke-opacity:1"
       id="path6967-6"
       sodipodi:nodetypes="cc" />
    <path
       d="m 110.86362,161.31187 -3.39524,-1.6505"
       style="fill:none;stroke:#000000;stroke-width:0.511248;stroke-linecap:butt;stroke-linejoin:miter;stroke-dasharray:none;stroke-opacity:1"
       id="path6967-4"
       sodipodi:nodetypes="cc" />
    <path
       d="m 109.47319,158.47539 -1.05931,-0.76063"
       style="fill:none;stroke:#000000;stroke-width:0.511248;stroke-linecap:butt;stroke-linejoin:miter;stroke-dasharray:none;stroke-opacity:1"
       id="path6967-0"
       sodipodi:nodetypes="cc" />
    <path
       d="m 111.1417,155.30521 -0.94808,-1.87297"
       style="fill:none;stroke:#000000;stroke-width:0.511248;stroke-linecap:butt;stroke-linejoin:miter;stroke-dasharray:none;stroke-opacity:1"
       id="path6967-2"
       sodipodi:nodetypes="cc" />
    <path
       d="m 112.97707,154.58218 0.83168,2.74326"
       style="fill:none;stroke:#000000;stroke-width:0.511248;stroke-linecap:butt;stroke-linejoin:miter;stroke-dasharray:none;stroke-opacity:1"
       id="path6967-5"
       sodipodi:nodetypes="cc" />
    <path
       d="m 120.8191,151.69009 -1.33739,3.57752"
       style="fill:none;stroke:#000000;stroke-width:0.511248;stroke-linecap:butt;stroke-linejoin:miter;stroke-dasharray:none;stroke-opacity:1"
       id="path6967-8"
       sodipodi:nodetypes="cc" />
    <path
       d="m 121.62555,156.52878 -1.55986,3.13259"
       style="fill:none;stroke:#000000;stroke-width:0.511248;stroke-linecap:butt;stroke-linejoin:miter;stroke-dasharray:none;stroke-opacity:1"
       id="path6967-30"
       sodipodi:nodetypes="cc" />
    <path
       d="m 126.96481,160.7835 -1.89357,1.99243 m 1.53205,-6.27495 -1.97699,2.02024"
       style="fill:none;stroke:#000000;stroke-width:0.511248;stroke-linecap:butt;stroke-linejoin:miter;stroke-dasharray:none;stroke-opacity:1"
       id="path6967-3"
       sodipodi:nodetypes="cccc" />
    <path
       d="m 133.05489,162.84135 -1.50424,1.82558"
       style="fill:none;stroke:#000000;stroke-width:0.511248;stroke-linecap:butt;stroke-linejoin:miter;stroke-dasharray:none;stroke-opacity:1"
       id="path6967"
       sodipodi:nodetypes="cc" />
    <path
       d="m 135.11273,167.88861 -1.44862,1.96462"
       style="fill:none;stroke:#000000;stroke-width:0.511248;stroke-linecap:butt;stroke-linejoin:miter;stroke-dasharray:none;stroke-opacity:1"
       id="path6944"
       sodipodi:nodetypes="cc" />
    <path
       style="fill:none;stroke:#000000;stroke-width:0.511248;stroke-linecap:butt;stroke-linejoin:miter;stroke-dasharray:none;stroke-opacity:1"
       d="m 166.33534,148.93681 2.67473,1.19407"
       id="path1901"
       sodipodi:nodetypes="cc" />
    <path
       style="fill:none;stroke:#000000;stroke-width:0.511248;stroke-linecap:butt;stroke-linejoin:miter;stroke-dasharray:none;stroke-opacity:1"
       d="m 156.12276,167.45671 -1.26465,-1.34716"
       id="path1903"
       sodipodi:nodetypes="cc" />
    <path
       style="fill:none;stroke:#000000;stroke-width:0.511248;stroke-linecap:butt;stroke-linejoin:miter;stroke-dasharray:none;stroke-opacity:1"
       d="m 152.45244,168.35469 -3.20528,-3.81847"
       id="path1905"
       sodipodi:nodetypes="cc" />
    <path
       style="fill:none;stroke:#000000;stroke-width:0.511248;stroke-linecap:butt;stroke-linejoin:miter;stroke-dasharray:none;stroke-opacity:1"
       d="m 143.65308,168.73113 -0.26121,2.95784"
       id="path1907"
       sodipodi:nodetypes="cc" />
    <path
       style="fill:none;stroke:#000000;stroke-width:0.511248;stroke-linecap:butt;stroke-linejoin:miter;stroke-dasharray:none;stroke-opacity:1"
       d="m 154.6726,160.11077 2.9761,2.69355"
       id="path1907-1"
       sodipodi:nodetypes="cc" />
    <path
       style="fill:none;stroke:#000000;stroke-width:0.511248;stroke-linecap:butt;stroke-linejoin:miter;stroke-dasharray:none;stroke-opacity:1"
       d="m 130.40514,163.9425 -1.74759,1.92858"
       id="path1907-4"
       sodipodi:nodetypes="cc" />
    <path
       style="fill:none;stroke:#000000;stroke-width:0.511248;stroke-linecap:butt;stroke-linejoin:miter;stroke-dasharray:none;stroke-opacity:1"
       d="m 162.41111,141.17819 6.19613,3.11133"
       id="path1907-4-7"
       sodipodi:nodetypes="cc" />
    <path
       style="fill:none;stroke:#000000;stroke-width:0.511248;stroke-linecap:butt;stroke-linejoin:miter;stroke-dasharray:none;stroke-opacity:1"
       d="m 122.67991,157.26061 7.83951,-12.08049"
       id="path1907-4-3"
       sodipodi:nodetypes="cc" />
    <path
       style="fill:none;stroke:#000000;stroke-width:0.511248;stroke-linecap:butt;stroke-linejoin:miter;stroke-dasharray:none;stroke-opacity:1"
       d="m 160.03234,153.79959 2.57806,1.79905"
       id="path1907-4-0"
       sodipodi:nodetypes="cc" />
    <path
       style="fill:none;stroke:#000000;stroke-width:0.511248;stroke-linecap:butt;stroke-linejoin:miter;stroke-dasharray:none;stroke-opacity:1"
       d="m 118.93656,155.13466 -3.13836,8.31763"
       id="path1907-4-09"
       sodipodi:nodetypes="cc" />
    <path
       style="fill:none;stroke:#000000;stroke-width:0.511248;stroke-linecap:butt;stroke-linejoin:miter;stroke-dasharray:none;stroke-opacity:1"
       d="m 148.61695,170.76248 3.43437,6.86671 m -9.22433,-5.92876 -0.53095,3.41068 m -3.80456,-6.98612 -0.78122,1.49187"
       id="path1907-4-9"
       sodipodi:nodetypes="cccccc" />
    <path
       style="fill:none;stroke:#000000;stroke-width:0.511248;stroke-linecap:butt;stroke-linejoin:miter;stroke-dasharray:none;stroke-opacity:1"
       d="m 115.24409,146.42604 -0.0297,7.96289"
       id="path1907-4-36"
       sodipodi:nodetypes="cc" />
    <path
       style="fill:none;stroke:#000000;stroke-width:0.511;stroke-linecap:butt;stroke-linejoin:miter;stroke-opacity:1;marker-end:url(#marker60077);stroke-dasharray:4.08799982,0.51099998;stroke-dashoffset:0"
       d="M 82.154268,189.94183 H 166.70011"
       id="path60073" />
    <path
       style="fill:none;stroke:#000000;stroke-width:0.676;stroke-linecap:butt;stroke-linejoin:miter;stroke-dasharray:none;stroke-dashoffset:0;stroke-opacity:1;marker-end:url(#Arrow2)"
       d="m 74.939742,185.35556 c 0,0 17.548852,-1.42627 24.1082,-6.5577 7.225198,-5.65232 4.642268,-21.31464 13.402718,-24.03617 12.03775,-3.73965 21.59899,19.57711 33.88966,16.77861 12.45914,-2.83686 23.6039,-30.20524 23.6039,-30.20524"
       id="path60071"
       sodipodi:nodetypes="caaac" />
    <path
       style="fill:none;stroke:#000000;stroke-width:0.511;stroke-linecap:butt;stroke-linejoin:miter;stroke-opacity:1;marker-end:url(#Arrow2-5-0-8);stroke-dasharray:4.08799982,0.51099998;stroke-dashoffset:0"
       d="m 82.455858,190.04237 c -0.03901,-50.97974 -0.177403,-0.0473 0.100536,-51.06923"
       id="path60469"
       sodipodi:nodetypes="cc" />
    <path
       id="path60601"
       style="fill:#2e75b6;stroke-width:1.79393;stroke-linecap:round;stroke-linejoin:round;stroke-dashoffset:53.8726"
       d="m 131.46804,144.94581 a 0.82308936,0.82308936 0 0 1 -0.82309,0.82309 0.82308936,0.82308936 0 0 1 -0.82309,-0.82309 0.82308936,0.82308936 0 0 1 0.82309,-0.82309 0.82308936,0.82308936 0 0 1 0.82309,0.82309 z" />
    <path
       id="path60601-3"
       style="fill:#2e75b6;stroke-width:1.79393;stroke-linecap:round;stroke-linejoin:round;stroke-dashoffset:53.8726"
       d="m 155.42168,160.09056 a 0.82308936,0.82308936 0 0 1 -0.82309,0.82309 0.82308936,0.82308936 0 0 1 -0.82309,-0.82309 0.82308936,0.82308936 0 0 1 0.82309,-0.82309 0.82308936,0.82308936 0 0 1 0.82309,0.82309 z" />
    <path
       id="path60601-4"
       style="fill:#2e75b6;stroke-width:1.79393;stroke-linecap:round;stroke-linejoin:round;stroke-dashoffset:53.8726"
       d="m 102.7813,156.39553 a 0.82308936,0.82308936 0 0 1 -0.82309,0.82309 0.82308936,0.82308936 0 0 1 -0.82309,-0.82309 0.82308936,0.82308936 0 0 1 0.82309,-0.82309 0.82308936,0.82308936 0 0 1 0.82309,0.82309 z" />
    <path
       id="path60601-2"
       style="fill:#2e75b6;stroke-width:1.79393;stroke-linecap:round;stroke-linejoin:round;stroke-dashoffset:53.8726"
       d="m 104.66531,163.82914 a 0.82308936,0.82308936 0 0 1 -0.82309,0.82309 0.82308936,0.82308936 0 0 1 -0.82309,-0.82309 0.82308936,0.82308936 0 0 1 0.82309,-0.82309 0.82308936,0.82308936 0 0 1 0.82309,0.82309 z" />
    <path
       id="path60601-30"
       style="fill:#2e75b6;stroke-width:1.79393;stroke-linecap:round;stroke-linejoin:round;stroke-dashoffset:53.8726"
       d="m 116.11768,146.36089 a 0.82308936,0.82308936 0 0 1 -0.82309,0.82309 0.82308936,0.82308936 0 0 1 -0.8231,-0.82309 0.82308936,0.82308936 0 0 1 0.8231,-0.82309 0.82308936,0.82308936 0 0 1 0.82309,0.82309 z" />
    <path
       id="path60601-6"
       style="fill:#2e75b6;stroke-width:1.79393;stroke-linecap:round;stroke-linejoin:round;stroke-dashoffset:53.8726"
       d="m 103.48549,168.42842 a 0.82308936,0.82308936 0 0 1 -0.82309,0.82309 0.82308936,0.82308936 0 0 1 -0.82309,-0.82309 0.82308936,0.82308936 0 0 1 0.82309,-0.82309 0.82308936,0.82308936 0 0 1 0.82309,0.82309 z" />
    <path
       id="path60601-1"
       style="fill:#2e75b6;stroke-width:1.79393;stroke-linecap:round;stroke-linejoin:round;stroke-dashoffset:53.8726"
       d="m 101.47025,170.13277 a 0.82308936,0.82308936 0 0 1 -0.82309,0.82309 0.82308936,0.82308936 0 0 1 -0.823094,-0.82309 0.82308936,0.82308936 0 0 1 0.823094,-0.82309 0.82308936,0.82308936 0 0 1 0.82309,0.82309 z" />
    <path
       id="path60601-18"
       style="fill:#2e75b6;stroke-width:1.79393;stroke-linecap:round;stroke-linejoin:round;stroke-dashoffset:53.8726"
       d="m 156.95618,167.43244 a 0.82308936,0.82308936 0 0 1 -0.82309,0.82308 0.82308936,0.82308936 0 0 1 -0.82309,-0.82308 0.82308936,0.82308936 0 0 1 0.82309,-0.82309 0.82308936,0.82308936 0 0 1 0.82309,0.82309 z" />
    <path
       id="path60601-41"
       style="fill:#2e75b6;stroke-width:1.79393;stroke-linecap:round;stroke-linejoin:round;stroke-dashoffset:53.8726"
       d="m 97.611474,173.26643 a 0.82308936,0.82308936 0 0 1 -0.82309,0.82309 0.82308936,0.82308936 0 0 1 -0.823089,-0.82309 0.82308936,0.82308936 0 0 1 0.823089,-0.82309 0.82308936,0.82308936 0 0 1 0.82309,0.82309 z" />
    <path
       id="path60601-12"
       style="fill:#2e75b6;stroke-width:1.79393;stroke-linecap:round;stroke-linejoin:round;stroke-dashoffset:53.8726"
       d="m 144.4366,168.67372 a 0.82308936,0.82308936 0 0 1 -0.82309,0.82309 0.82308936,0.82308936 0 0 1 -0.82309,-0.82309 0.82308936,0.82308936 0 0 1 0.82309,-0.82309 0.82308936,0.82308936 0 0 1 0.82309,0.82309 z" />
    <path
       id="path60601-39"
       style="fill:#2e75b6;stroke-width:1.79393;stroke-linecap:round;stroke-linejoin:round;stroke-dashoffset:53.8726"
       d="m 101.99662,179.26843 a 0.82308936,0.82308936 0 0 1 -0.82309,0.82309 0.82308936,0.82308936 0 0 1 -0.82309,-0.82309 0.82308936,0.82308936 0 0 1 0.82309,-0.82308 0.82308936,0.82308936 0 0 1 0.82309,0.82308 z" />
    <path
       id="path60601-33"
       style="fill:#2e75b6;stroke-width:1.79393;stroke-linecap:round;stroke-linejoin:round;stroke-dashoffset:53.8726"
       d="m 94.538322,179.68779 a 0.82308936,0.82308936 0 0 1 -0.823089,0.82309 0.82308936,0.82308936 0 0 1 -0.82309,-0.82309 0.82308936,0.82308936 0 0 1 0.82309,-0.82309 0.82308936,0.82308936 0 0 1 0.823089,0.82309 z" />
    <path
       id="path60601-23"
       style="fill:#2e75b6;stroke-width:1.79393;stroke-linecap:round;stroke-linejoin:round;stroke-dashoffset:53.8726"
       d="m 96.954248,176.63329 a 0.82308936,0.82308936 0 0 1 -0.823089,0.82309 0.82308936,0.82308936 0 0 1 -0.823089,-0.82309 0.82308936,0.82308936 0 0 1 0.823089,-0.82309 0.82308936,0.82308936 0 0 1 0.823089,0.82309 z" />
    <path
       id="path60601-5"
       style="fill:#2e75b6;stroke-width:1.79393;stroke-linecap:round;stroke-linejoin:round;stroke-dashoffset:53.8726"
       d="m 88.022049,177.30207 a 0.82308936,0.82308936 0 0 1 -0.82309,0.82309 0.82308936,0.82308936 0 0 1 -0.823089,-0.82309 0.82308936,0.82308936 0 0 1 0.823089,-0.82308 0.82308936,0.82308936 0 0 1 0.82309,0.82308 z" />
    <path
       id="path60601-66"
       style="fill:#2e75b6;stroke-width:1.79393;stroke-linecap:round;stroke-linejoin:round;stroke-dashoffset:53.8726"
       d="m 91.330207,180.96863 a 0.82308936,0.82308936 0 0 1 -0.823089,0.82309 0.82308936,0.82308936 0 0 1 -0.82309,-0.82309 0.82308936,0.82308936 0 0 1 0.82309,-0.82309 0.82308936,0.82308936 0 0 1 0.823089,0.82309 z" />
    <path
       id="path60601-69"
       style="fill:#2e75b6;stroke-width:1.79393;stroke-linecap:round;stroke-linejoin:round;stroke-dashoffset:53.8726"
       d="m 87.025596,181.97857 a 0.82308936,0.82308936 0 0 1 -0.82309,0.82309 0.82308936,0.82308936 0 0 1 -0.823089,-0.82309 0.82308936,0.82308936 0 0 1 0.823089,-0.82309 0.82308936,0.82308936 0 0 1 0.82309,0.82309 z" />
    <path
       id="path60601-336"
       style="fill:#2e75b6;stroke-width:1.79393;stroke-linecap:round;stroke-linejoin:round;stroke-dashoffset:53.8726"
       d="m 97.794381,182.1838 a 0.82308936,0.82308936 0 0 1 -0.82309,0.82309 0.82308936,0.82308936 0 0 1 -0.823089,-0.82309 0.82308936,0.82308936 0 0 1 0.823089,-0.82309 0.82308936,0.82308936 0 0 1 0.82309,0.82309 z" />
    <path
       id="path60601-65"
       style="fill:#2e75b6;stroke-width:1.79393;stroke-linecap:round;stroke-linejoin:round;stroke-dashoffset:53.8726"
       d="m 85.593576,186.43629 a 0.82308936,0.82308936 0 0 1 -0.823089,0.82309 0.82308936,0.82308936 0 0 1 -0.823089,-0.82309 0.82308936,0.82308936 0 0 1 0.823089,-0.82309 0.82308936,0.82308936 0 0 1 0.823089,0.82309 z" />
    <path
       id="path60601-9"
       style="fill:#2e75b6;stroke-width:1.79393;stroke-linecap:round;stroke-linejoin:round;stroke-dashoffset:53.8726"
       d="m 92.717186,187.9047 a 0.82308936,0.82308936 0 0 1 -0.82309,0.82309 0.82308936,0.82308936 0 0 1 -0.823089,-0.82309 0.82308936,0.82308936 0 0 1 0.823089,-0.82309 0.82308936,0.82308936 0 0 1 0.82309,0.82309 z" />
    <path
       id="path60601-68"
       style="fill:#2e75b6;stroke-width:1.79393;stroke-linecap:round;stroke-linejoin:round;stroke-dashoffset:53.8726"
       d="m 150.14813,164.55357 a 0.82308936,0.82308936 0 0 1 -0.82309,0.82309 0.82308936,0.82308936 0 0 1 -0.82309,-0.82309 0.82308936,0.82308936 0 0 1 0.82309,-0.82309 0.82308936,0.82308936 0 0 1 0.82309,0.82309 z" />
    <path
       id="path60601-57"
       style="fill:#2e75b6;stroke-width:1.79393;stroke-linecap:round;stroke-linejoin:round;stroke-dashoffset:53.8726"
       d="m 106.24307,173.81327 a 0.82308936,0.82308936 0 0 1 -0.82309,0.82309 0.82308936,0.82308936 0 0 1 -0.82309,-0.82309 0.82308936,0.82308936 0 0 1 0.82309,-0.82309 0.82308936,0.82308936 0 0 1 0.82309,0.82309 z" />
    <path
       id="path60601-394"
       style="fill:#2e75b6;stroke-width:1.79393;stroke-linecap:round;stroke-linejoin:round;stroke-dashoffset:53.8726"
       d="m 101.58941,174.27734 a 0.82308936,0.82308936 0 0 1 -0.82309,0.82309 0.82308936,0.82308936 0 0 1 -0.823086,-0.82309 0.82308936,0.82308936 0 0 1 0.823086,-0.82309 0.82308936,0.82308936 0 0 1 0.82309,0.82309 z" />
    <path
       id="path60601-54"
       style="fill:#2e75b6;stroke-width:1.79393;stroke-linecap:round;stroke-linejoin:round;stroke-dashoffset:53.8726"
       d="m 110.40951,158.48864 a 0.82308936,0.82308936 0 0 1 -0.82309,0.82309 0.82308936,0.82308936 0 0 1 -0.82309,-0.82309 0.82308936,0.82308936 0 0 1 0.82309,-0.82309 0.82308936,0.82308936 0 0 1 0.82309,0.82309 z" />
    <path
       id="path60601-8"
       style="fill:#2e75b6;stroke-width:1.79393;stroke-linecap:round;stroke-linejoin:round;stroke-dashoffset:53.8726"
       d="m 108.18483,165.0067 a 0.82308936,0.82308936 0 0 1 -0.82309,0.82309 0.82308936,0.82308936 0 0 1 -0.82309,-0.82309 0.82308936,0.82308936 0 0 1 0.82309,-0.82309 0.82308936,0.82308936 0 0 1 0.82309,0.82309 z" />
    <path
       id="path60601-398"
       style="fill:#2e75b6;stroke-width:1.79393;stroke-linecap:round;stroke-linejoin:round;stroke-dashoffset:53.8726"
       d="m 111.71221,161.3397 a 0.82308936,0.82308936 0 0 1 -0.82309,0.82309 0.82308936,0.82308936 0 0 1 -0.82309,-0.82309 0.82308936,0.82308936 0 0 1 0.82309,-0.82309 0.82308936,0.82308936 0 0 1 0.82309,0.82309 z" />
    <path
       id="path60601-89"
       style="fill:#2e75b6;stroke-width:1.79393;stroke-linecap:round;stroke-linejoin:round;stroke-dashoffset:53.8726"
       d="m 114.64111,157.44926 a 0.82308936,0.82308936 0 0 1 -0.82309,0.82309 0.82308936,0.82308936 0 0 1 -0.82309,-0.82309 0.82308936,0.82308936 0 0 1 0.82309,-0.82309 0.82308936,0.82308936 0 0 1 0.82309,0.82309 z" />
    <path
       id="path60601-42"
       style="fill:#2e75b6;stroke-width:1.79393;stroke-linecap:round;stroke-linejoin:round;stroke-dashoffset:53.8726"
       d="m 116.69596,163.32747 a 0.82308936,0.82308936 0 0 1 -0.82309,0.82309 0.82308936,0.82308936 0 0 1 -0.82309,-0.82309 0.82308936,0.82308936 0 0 1 0.82309,-0.82309 0.82308936,0.82308936 0 0 1 0.82309,0.82309 z" />
    <path
       id="path60601-62"
       style="fill:#2e75b6;stroke-width:1.79393;stroke-linecap:round;stroke-linejoin:round;stroke-dashoffset:53.8726"
       d="m 127.47533,156.47019 a 0.82308936,0.82308936 0 0 1 -0.82309,0.82309 0.82308936,0.82308936 0 0 1 -0.82309,-0.82309 0.82308936,0.82308936 0 0 1 0.82309,-0.82309 0.82308936,0.82308936 0 0 1 0.82309,0.82309 z" />
    <path
       id="path60601-26"
       style="fill:#2e75b6;stroke-width:1.79393;stroke-linecap:round;stroke-linejoin:round;stroke-dashoffset:53.8726"
       d="m 129.50684,165.83154 a 0.82308936,0.82308936 0 0 1 -0.82309,0.82309 0.82308936,0.82308936 0 0 1 -0.82309,-0.82309 0.82308936,0.82308936 0 0 1 0.82309,-0.82309 0.82308936,0.82308936 0 0 1 0.82309,0.82309 z" />
    <path
       id="path60601-60"
       style="fill:#2e75b6;stroke-width:1.79393;stroke-linecap:round;stroke-linejoin:round;stroke-dashoffset:53.8726"
       d="m 120.86512,159.64146 a 0.82308936,0.82308936 0 0 1 -0.82309,0.82309 0.82308936,0.82308936 0 0 1 -0.82309,-0.82309 0.82308936,0.82308936 0 0 1 0.82309,-0.82309 0.82308936,0.82308936 0 0 1 0.82309,0.82309 z" />
    <path
       id="path60601-0"
       style="fill:#2e75b6;stroke-width:1.79393;stroke-linecap:round;stroke-linejoin:round;stroke-dashoffset:53.8726"
       d="m 125.8818,162.76625 a 0.82308936,0.82308936 0 0 1 -0.82309,0.82309 0.82308936,0.82308936 0 0 1 -0.82309,-0.82309 0.82308936,0.82308936 0 0 1 0.82309,-0.82309 0.82308936,0.82308936 0 0 1 0.82309,0.82309 z" />
    <path
       id="path60601-99"
       style="fill:#2e75b6;stroke-width:1.79393;stroke-linecap:round;stroke-linejoin:round;stroke-dashoffset:53.8726"
       d="m 111.04634,153.37076 a 0.82308936,0.82308936 0 0 1 -0.82309,0.82309 0.82308936,0.82308936 0 0 1 -0.82309,-0.82309 0.82308936,0.82308936 0 0 1 0.82309,-0.82309 0.82308936,0.82308936 0 0 1 0.82309,0.82309 z" />
    <path
       id="path60601-85"
       style="fill:#2e75b6;stroke-width:1.79393;stroke-linecap:round;stroke-linejoin:round;stroke-dashoffset:53.8726"
       d="m 121.65875,151.71905 a 0.82308936,0.82308936 0 0 1 -0.82309,0.82309 0.82308936,0.82308936 0 0 1 -0.82309,-0.82309 0.82308936,0.82308936 0 0 1 0.82309,-0.82309 0.82308936,0.82308936 0 0 1 0.82309,0.82309 z" />
    <path
       id="path60601-7"
       style="fill:#2e75b6;stroke-width:1.79393;stroke-linecap:round;stroke-linejoin:round;stroke-dashoffset:53.8726"
       d="m 139.28254,168.13099 a 0.82308936,0.82308936 0 0 1 -0.82309,0.82309 0.82308936,0.82308936 0 0 1 -0.82309,-0.82309 0.82308936,0.82308936 0 0 1 0.82309,-0.82309 0.82308936,0.82308936 0 0 1 0.82309,0.82309 z" />
    <path
       id="path60601-27"
       style="fill:#2e75b6;stroke-width:1.79393;stroke-linecap:round;stroke-linejoin:round;stroke-dashoffset:53.8726"
       d="m 133.84698,162.91746 a 0.82308936,0.82308936 0 0 1 -0.82308,0.82309 0.82308936,0.82308936 0 0 1 -0.82309,-0.82309 0.82308936,0.82308936 0 0 1 0.82309,-0.82309 0.82308936,0.82308936 0 0 1 0.82308,0.82309 z" />
    <path
       id="path60601-50"
       style="fill:#2e75b6;stroke-width:1.79393;stroke-linecap:round;stroke-linejoin:round;stroke-dashoffset:53.8726"
       d="m 134.6038,169.98237 a 0.82308936,0.82308936 0 0 1 -0.82309,0.82309 0.82308936,0.82308936 0 0 1 -0.82309,-0.82309 0.82308936,0.82308936 0 0 1 0.82309,-0.82309 0.82308936,0.82308936 0 0 1 0.82309,0.82309 z" />
    <path
       id="path60601-38"
       style="fill:#2e75b6;stroke-width:1.79393;stroke-linecap:round;stroke-linejoin:round;stroke-dashoffset:53.8726"
       d="m 163.08897,141.21228 a 0.82308936,0.82308936 0 0 1 -0.82309,0.82309 0.82308936,0.82308936 0 0 1 -0.82309,-0.82309 0.82308936,0.82308936 0 0 1 0.82309,-0.82309 0.82308936,0.82308936 0 0 1 0.82309,0.82309 z" />
    <path
       id="path60601-43"
       style="fill:#2e75b6;stroke-width:1.79393;stroke-linecap:round;stroke-linejoin:round;stroke-dashoffset:53.8726"
       d="m 169.87102,150.0673 a 0.82308936,0.82308936 0 0 1 -0.82309,0.82309 0.82308936,0.82308936 0 0 1 -0.82309,-0.82309 0.82308936,0.82308936 0 0 1 0.82309,-0.82309 0.82308936,0.82308936 0 0 1 0.82309,0.82309 z" />
    <path
       id="path60601-189"
       style="fill:#2e75b6;stroke-width:1.79393;stroke-linecap:round;stroke-linejoin:round;stroke-dashoffset:53.8726"
       d="m 160.835,153.7729 a 0.82308936,0.82308936 0 0 1 -0.82309,0.82309 0.82308936,0.82308936 0 0 1 -0.82309,-0.82309 0.82308936,0.82308936 0 0 1 0.82309,-0.82309 0.82308936,0.82308936 0 0 1 0.82309,0.82309 z" />
    <path
       id="path60601-27-3"
       style="fill:#2e75b6;stroke-width:1.79393;stroke-linecap:round;stroke-linejoin:round;stroke-dashoffset:53.8726"
       d="m 143.03938,175.0734 a 0.82308936,0.82308936 0 0 1 -0.82308,0.82309 0.82308936,0.82308936 0 0 1 -0.82309,-0.82309 0.82308936,0.82308936 0 0 1 0.82309,-0.82309 0.82308936,0.82308936 0 0 1 0.82308,0.82309 z" />
    <path
       id="path60601-27-3-6"
       style="fill:#2e75b6;stroke-width:1.79393;stroke-linecap:round;stroke-linejoin:round;stroke-dashoffset:53.8726"
       d="m 152.9173,177.6825 a 0.82308936,0.82308936 0 0 1 -0.82308,0.82309 0.82308936,0.82308936 0 0 1 -0.82309,-0.82309 0.82308936,0.82308936 0 0 1 0.82309,-0.82309 0.82308936,0.82308936 0 0 1 0.82308,0.82309 z" />
    <g
       inkscape:label=""
       transform="matrix(0.69142287,-1.5451739,1.5451739,0.69142287,158.71002,136.73467)"
       id="g5375">
      <g
         fill="#000000"
         fill-opacity="1"
         id="g16"
         transform="matrix(0.529167,0,0,0.529167,-48.7842,-38.3768)">
        <g
           id="use14"
           transform="translate(94.782997,79.445)">
          <path
             d="M 2.5,-6.921875 1.15625,-5.5625 1.328125,-5.390625 2.5,-6.40625 3.640625,-5.390625 3.8125,-5.5625 Z m 0,0"
             id="path26" />
        </g>
      </g>
      <g
         fill="#000000"
         fill-opacity="1"
         id="g20"
         transform="matrix(0.529167,0,0,0.529167,-48.7842,-38.3768)">
        <g
           id="use18"
           transform="translate(91.925003,81.962997)">
          <path
             d="M 4.828125,-4.09375 4,-6.078125 c -0.03125,-0.078125 -0.046875,-0.125 -0.046875,-0.125 0,-0.0625 0.15625,-0.25 0.578125,-0.296875 0.109375,-0.015625 0.203125,-0.015625 0.203125,-0.1875 0,-0.125 -0.125,-0.125 -0.15625,-0.125 -0.40625,0 -0.828125,0.03125 -1.25,0.03125 -0.25,0 -0.859375,-0.03125 -1.109375,-0.03125 -0.0625,0 -0.1875,0 -0.1875,0.203125 C 2.03125,-6.5 2.140625,-6.5 2.265625,-6.5 c 0.59375,0 0.65625,0.09375 0.75,0.3125 l 1.171875,2.78125 -2.109375,2.265625 -0.125,0.109375 C 1.46875,-0.5 1,-0.34375 0.484375,-0.3125 c -0.125,0.015625 -0.21875,0.015625 -0.21875,0.203125 0,0.015625 0,0.109375 0.140625,0.109375 0.296875,0 0.625,-0.03125 0.921875,-0.03125 C 1.703125,-0.03125 2.09375,0 2.453125,0 2.515625,0 2.625,0 2.625,-0.203125 2.625,-0.296875 2.53125,-0.3125 2.515625,-0.3125 c -0.09375,0 -0.40625,-0.03125 -0.40625,-0.3125 0,-0.15625 0.15625,-0.3125 0.265625,-0.4375 L 3.40625,-2.140625 4.296875,-3.125 l 1,2.390625 c 0.046875,0.109375 0.0625,0.109375 0.0625,0.140625 0,0.078125 -0.203125,0.25 -0.578125,0.28125 C 4.671875,-0.296875 4.578125,-0.296875 4.578125,-0.125 4.578125,0 4.6875,0 4.71875,0 5,0 5.703125,-0.03125 5.984375,-0.03125 6.234375,-0.03125 6.84375,0 7.09375,0 c 0.0625,0 0.1875,0 0.1875,-0.1875 0,-0.125 -0.109375,-0.125 -0.1875,-0.125 -0.65625,0 -0.6875,-0.03125 -0.859375,-0.4375 C 5.859375,-1.671875 5.1875,-3.234375 4.953125,-3.828125 5.625,-4.53125 6.671875,-5.71875 7,-5.984375 7.28125,-6.234375 7.671875,-6.46875 8.265625,-6.5 c 0.125,-0.015625 0.21875,-0.015625 0.21875,-0.203125 0,0 0,-0.109375 -0.125,-0.109375 -0.296875,0 -0.640625,0.03125 -0.9375,0.03125 -0.375,0 -0.75,-0.03125 -1.109375,-0.03125 -0.0625,0 -0.1875,0 -0.1875,0.203125 0,0.0625 0.046875,0.09375 0.109375,0.109375 0.09375,0.015625 0.40625,0.03125 0.40625,0.3125 0,0.140625 -0.109375,0.265625 -0.1875,0.359375 z m 0,0"
             id="path30" />
        </g>
      </g>
    </g>
    <g
       inkscape:label=""
       transform="matrix(2.5562376,0,0,2.5562376,160.21164,181.6298)"
       id="g6181">
      <g
         fill="#000000"
         fill-opacity="1"
         id="g6179"
         transform="matrix(0.352778,0,0,0.352778,-32.5228,-26.5114)">
        <g
           id="g6177"
           transform="translate(91.925003,81.962997)">
          <path
             d="M 4.828125,-4.09375 4,-6.078125 c -0.03125,-0.078125 -0.046875,-0.125 -0.046875,-0.125 0,-0.0625 0.15625,-0.25 0.578125,-0.296875 0.109375,-0.015625 0.203125,-0.015625 0.203125,-0.1875 0,-0.125 -0.125,-0.125 -0.15625,-0.125 -0.40625,0 -0.828125,0.03125 -1.25,0.03125 -0.25,0 -0.859375,-0.03125 -1.109375,-0.03125 -0.0625,0 -0.1875,0 -0.1875,0.203125 C 2.03125,-6.5 2.140625,-6.5 2.265625,-6.5 c 0.59375,0 0.65625,0.09375 0.75,0.3125 l 1.171875,2.78125 -2.109375,2.265625 -0.125,0.109375 C 1.46875,-0.5 1,-0.34375 0.484375,-0.3125 c -0.125,0.015625 -0.21875,0.015625 -0.21875,0.203125 0,0.015625 0,0.109375 0.140625,0.109375 0.296875,0 0.625,-0.03125 0.921875,-0.03125 C 1.703125,-0.03125 2.09375,0 2.453125,0 2.515625,0 2.625,0 2.625,-0.203125 2.625,-0.296875 2.53125,-0.3125 2.515625,-0.3125 c -0.09375,0 -0.40625,-0.03125 -0.40625,-0.3125 0,-0.15625 0.15625,-0.3125 0.265625,-0.4375 L 3.40625,-2.140625 4.296875,-3.125 l 1,2.390625 c 0.046875,0.109375 0.0625,0.109375 0.0625,0.140625 0,0.078125 -0.203125,0.25 -0.578125,0.28125 C 4.671875,-0.296875 4.578125,-0.296875 4.578125,-0.125 4.578125,0 4.6875,0 4.71875,0 5,0 5.703125,-0.03125 5.984375,-0.03125 6.234375,-0.03125 6.84375,0 7.09375,0 c 0.0625,0 0.1875,0 0.1875,-0.1875 0,-0.125 -0.109375,-0.125 -0.1875,-0.125 -0.65625,0 -0.6875,-0.03125 -0.859375,-0.4375 C 5.859375,-1.671875 5.1875,-3.234375 4.953125,-3.828125 5.625,-4.53125 6.671875,-5.71875 7,-5.984375 7.28125,-6.234375 7.671875,-6.46875 8.265625,-6.5 c 0.125,-0.015625 0.21875,-0.015625 0.21875,-0.203125 0,0 0,-0.109375 -0.125,-0.109375 -0.296875,0 -0.640625,0.03125 -0.9375,0.03125 -0.375,0 -0.75,-0.03125 -1.109375,-0.03125 -0.0625,0 -0.1875,0 -0.1875,0.203125 0,0.0625 0.046875,0.09375 0.109375,0.109375 0.09375,0.015625 0.40625,0.03125 0.40625,0.3125 0,0.140625 -0.109375,0.265625 -0.1875,0.359375 z m 0,0"
             id="path6175" />
        </g>
      </g>
    </g>
    <g
       inkscape:label=""
       transform="matrix(2.5562376,0,0,2.5562376,85.819448,135.7881)"
       id="g7329">
      <g
         fill="#000000"
         fill-opacity="1"
         id="g7327"
         transform="matrix(0.352778,0,0,0.352778,-32.5504,-26.5114)">
        <g
           id="g7325"
           transform="translate(91.925003,81.962997)">
          <path
             d="M 5.953125,-5.671875 6.09375,-5.8125 C 6.390625,-6.109375 6.71875,-6.453125 7.390625,-6.5 7.5,-6.515625 7.59375,-6.515625 7.59375,-6.6875 c 0,-0.078125 -0.046875,-0.125 -0.125,-0.125 -0.265625,0 -0.546875,0.03125 -0.8125,0.03125 -0.34375,0 -0.6875,-0.03125 -1,-0.03125 -0.0625,0 -0.1875,0 -0.1875,0.1875 0,0.109375 0.09375,0.125 0.140625,0.125 0.078125,0 0.359375,0.015625 0.359375,0.234375 0,0.171875 -0.234375,0.421875 -0.265625,0.46875 L 3.390625,-3.125 2.296875,-6.09375 C 2.234375,-6.234375 2.234375,-6.25 2.234375,-6.265625 2.234375,-6.5 2.71875,-6.5 2.828125,-6.5 c 0.125,0 0.234375,0 0.234375,-0.203125 0,-0.109375 -0.125,-0.109375 -0.15625,-0.109375 -0.28125,0 -0.96875,0.03125 -1.25,0.03125 -0.25,0 -0.875,-0.03125 -1.125,-0.03125 -0.046875,0 -0.1875,0 -0.1875,0.203125 C 0.34375,-6.5 0.453125,-6.5 0.578125,-6.5 c 0.59375,0 0.640625,0.09375 0.734375,0.34375 L 2.53125,-2.875 c 0.015625,0.03125 0.046875,0.140625 0.046875,0.15625 0,0.03125 -0.40625,1.640625 -0.453125,1.828125 C 2,-0.34375 1.984375,-0.3125 1.1875,-0.3125 c -0.1875,0 -0.265625,0 -0.265625,0.203125 C 0.921875,0 1.03125,0 1.0625,0 c 0.265625,0 0.96875,-0.03125 1.25,-0.03125 0.28125,0 1,0.03125 1.28125,0.03125 0.0625,0 0.1875,0 0.1875,-0.203125 C 3.78125,-0.3125 3.6875,-0.3125 3.5,-0.3125 c -0.015625,0 -0.203125,0 -0.375,-0.015625 C 2.90625,-0.34375 2.84375,-0.375 2.84375,-0.484375 c 0,-0.078125 0.09375,-0.421875 0.140625,-0.625 l 0.359375,-1.40625 c 0.046875,-0.203125 0.0625,-0.21875 0.140625,-0.3125 z m 0,0"
             id="path7323" />
        </g>
      </g>
    </g>
    <circle
       style="fill:#70ad47;fill-opacity:1;stroke:none;stroke-width:1.79393;stroke-linecap:round;stroke-linejoin:round;stroke-dasharray:none;stroke-dashoffset:53.8726;stroke-opacity:1"
       id="path60601-85-5-71-91"
       cx="84.305092"
       cy="183.99881"
       r="0.82308936" />
    <circle
       style="fill:#70ad47;fill-opacity:1;stroke:none;stroke-width:1.79393;stroke-linecap:round;stroke-linejoin:round;stroke-dasharray:none;stroke-dashoffset:53.8726;stroke-opacity:1"
       id="path60601-85-5-71-91-1"
       cx="86.529778"
       cy="183.6373"
       r="0.82308936" />
    <circle
       style="fill:#70ad47;fill-opacity:1;stroke:none;stroke-width:1.79393;stroke-linecap:round;stroke-linejoin:round;stroke-dasharray:none;stroke-dashoffset:53.8726;stroke-opacity:1"
       id="path60601-85-5-71-91-7"
       cx="88.518097"
       cy="183.19235"
       r="0.82308936" />
    <circle
       style="fill:#70ad47;fill-opacity:1;stroke:none;stroke-width:1.79393;stroke-linecap:round;stroke-linejoin:round;stroke-dasharray:none;stroke-dashoffset:53.8726;stroke-opacity:1"
       id="path60601-85-5-71-91-6"
       cx="90.492508"
       cy="182.70572"
       r="0.82308936" />
    <circle
       style="fill:#70ad47;fill-opacity:1;stroke:none;stroke-width:1.79393;stroke-linecap:round;stroke-linejoin:round;stroke-dasharray:none;stroke-dashoffset:53.8726;stroke-opacity:1"
       id="path60601-85-5-71-91-63"
       cx="94.288391"
       cy="181.39871"
       r="0.82308936" />
    <circle
       style="fill:#70ad47;fill-opacity:1;stroke:none;stroke-width:1.79393;stroke-linecap:round;stroke-linejoin:round;stroke-dasharray:none;stroke-dashoffset:53.8726;stroke-opacity:1"
       id="path60601-85-5-71-91-8"
       cx="96.248901"
       cy="180.43932"
       r="0.82308936" />
    <circle
       style="fill:#70ad47;fill-opacity:1;stroke:none;stroke-width:1.79393;stroke-linecap:round;stroke-linejoin:round;stroke-dasharray:none;stroke-dashoffset:53.8726;stroke-opacity:1"
       id="path60601-85-5-71-91-3"
       cx="98.091034"
       cy="179.43874"
       r="0.82308936" />
    <circle
       style="fill:#70ad47;fill-opacity:1;stroke:none;stroke-width:1.79393;stroke-linecap:round;stroke-linejoin:round;stroke-dasharray:none;stroke-dashoffset:53.8726;stroke-opacity:1"
       id="path60601-85-5-71-91-17"
       cx="99.860764"
       cy="178.06227"
       r="0.82308936" />
    <circle
       style="fill:#70ad47;fill-opacity:1;stroke:none;stroke-width:1.79393;stroke-linecap:round;stroke-linejoin:round;stroke-dasharray:none;stroke-dashoffset:53.8726;stroke-opacity:1"
       id="path60601-85-5-71-91-65"
       cx="101.07991"
       cy="176.8038"
       r="0.82308936" />
    <circle
       style="fill:#70ad47;fill-opacity:1;stroke:none;stroke-width:1.79393;stroke-linecap:round;stroke-linejoin:round;stroke-dasharray:none;stroke-dashoffset:53.8726;stroke-opacity:1"
       id="path60601-85-5-71-91-74"
       cx="102.18108"
       cy="174.95541"
       r="0.82308936" />
    <circle
       style="fill:#70ad47;fill-opacity:1;stroke:none;stroke-width:1.79393;stroke-linecap:round;stroke-linejoin:round;stroke-dasharray:none;stroke-dashoffset:53.8726;stroke-opacity:1"
       id="path60601-85-5-71-91-4"
       cx="103.04629"
       cy="173.02838"
       r="0.82308936" />
    <circle
       style="fill:#70ad47;fill-opacity:1;stroke:none;stroke-width:1.79393;stroke-linecap:round;stroke-linejoin:round;stroke-dasharray:none;stroke-dashoffset:53.8726;stroke-opacity:1"
       id="path60601-85-5-71-91-0"
       cx="103.67551"
       cy="170.98335"
       r="0.82308936" />
    <circle
       style="fill:#70ad47;fill-opacity:1;stroke:none;stroke-width:1.79393;stroke-linecap:round;stroke-linejoin:round;stroke-dasharray:none;stroke-dashoffset:53.8726;stroke-opacity:1"
       id="path60601-85-5-71-91-34"
       cx="104.38341"
       cy="168.93834"
       r="0.82308936" />
    <circle
       style="fill:#70ad47;fill-opacity:1;stroke:none;stroke-width:1.79393;stroke-linecap:round;stroke-linejoin:round;stroke-dasharray:none;stroke-dashoffset:53.8726;stroke-opacity:1"
       id="path60601-85-5-71-91-5"
       cx="105.5239"
       cy="164.61232"
       r="0.82308936" />
    <circle
       style="fill:#70ad47;fill-opacity:1;stroke:none;stroke-width:1.79393;stroke-linecap:round;stroke-linejoin:round;stroke-dasharray:none;stroke-dashoffset:53.8726;stroke-opacity:1"
       id="path60601-85-5-71-91-57"
       cx="107.37228"
       cy="159.61777"
       r="0.82308936" />
    <circle
       style="fill:#70ad47;fill-opacity:1;stroke:none;stroke-width:1.79393;stroke-linecap:round;stroke-linejoin:round;stroke-dasharray:none;stroke-dashoffset:53.8726;stroke-opacity:1"
       id="path60601-85-5-71-91-76"
       cx="108.43412"
       cy="157.61206"
       r="0.82308936" />
    <circle
       style="fill:#70ad47;fill-opacity:1;stroke:none;stroke-width:1.79393;stroke-linecap:round;stroke-linejoin:round;stroke-dasharray:none;stroke-dashoffset:53.8726;stroke-opacity:1"
       id="path60601-85-5-71-91-653"
       cx="111.14771"
       cy="155.25243"
       r="0.82308936" />
    <circle
       style="fill:#70ad47;fill-opacity:1;stroke:none;stroke-width:1.79393;stroke-linecap:round;stroke-linejoin:round;stroke-dasharray:none;stroke-dashoffset:53.8726;stroke-opacity:1"
       id="path60601-85-5-71-91-658"
       cx="113.03542"
       cy="154.66252"
       r="0.82308936" />
    <circle
       style="fill:#70ad47;fill-opacity:1;stroke:none;stroke-width:1.79393;stroke-linecap:round;stroke-linejoin:round;stroke-dasharray:none;stroke-dashoffset:53.8726;stroke-opacity:1"
       id="path60601-85-5-71-91-9"
       cx="115.19842"
       cy="154.26924"
       r="0.82308936" />
    <circle
       style="fill:#70ad47;fill-opacity:1;stroke:none;stroke-width:1.79393;stroke-linecap:round;stroke-linejoin:round;stroke-dasharray:none;stroke-dashoffset:53.8726;stroke-opacity:1"
       id="path60601-85-5-71-91-2"
       cx="118.7772"
       cy="155.13445"
       r="0.82308936" />
    <circle
       style="fill:#70ad47;fill-opacity:1;stroke:none;stroke-width:1.79393;stroke-linecap:round;stroke-linejoin:round;stroke-dasharray:none;stroke-dashoffset:53.8726;stroke-opacity:1"
       id="path60601-85-5-71-91-40"
       cx="121.60878"
       cy="156.55022"
       r="0.82308936" />
    <circle
       style="fill:#70ad47;fill-opacity:1;stroke:none;stroke-width:1.79393;stroke-linecap:round;stroke-linejoin:round;stroke-dasharray:none;stroke-dashoffset:53.8726;stroke-opacity:1"
       id="path60601-85-5-71-91-744"
       cx="122.67062"
       cy="157.21878"
       r="0.82308936" />
    <circle
       style="fill:#70ad47;fill-opacity:1;stroke:none;stroke-width:1.79393;stroke-linecap:round;stroke-linejoin:round;stroke-dasharray:none;stroke-dashoffset:53.8726;stroke-opacity:1"
       id="path60601-85-5-71-91-82"
       cx="124.55833"
       cy="158.59526"
       r="0.82308936" />
    <circle
       style="fill:#70ad47;fill-opacity:1;stroke:none;stroke-width:1.79393;stroke-linecap:round;stroke-linejoin:round;stroke-dasharray:none;stroke-dashoffset:53.8726;stroke-opacity:1"
       id="path60601-85-5-71-91-84"
       cx="126.99662"
       cy="160.6796"
       r="0.82308936" />
    <circle
       style="fill:#70ad47;fill-opacity:1;stroke:none;stroke-width:1.79393;stroke-linecap:round;stroke-linejoin:round;stroke-dasharray:none;stroke-dashoffset:53.8726;stroke-opacity:1"
       id="path60601-85-5-71-91-77"
       cx="130.45743"
       cy="163.82578"
       r="0.82308936" />
    <circle
       style="fill:#70ad47;fill-opacity:1;stroke:none;stroke-width:1.79393;stroke-linecap:round;stroke-linejoin:round;stroke-dasharray:none;stroke-dashoffset:53.8726;stroke-opacity:1"
       id="path60601-85-5-71-91-73"
       cx="131.47993"
       cy="164.88762"
       r="0.82308936" />
    <circle
       style="fill:#70ad47;fill-opacity:1;stroke:none;stroke-width:1.79393;stroke-linecap:round;stroke-linejoin:round;stroke-dasharray:none;stroke-dashoffset:53.8726;stroke-opacity:1"
       id="path60601-85-5-71-91-35"
       cx="135.21603"
       cy="167.79785"
       r="0.82308936" />
    <circle
       style="fill:#70ad47;fill-opacity:1;stroke:none;stroke-width:1.79393;stroke-linecap:round;stroke-linejoin:round;stroke-dasharray:none;stroke-dashoffset:53.8726;stroke-opacity:1"
       id="path60601-85-5-71-91-53"
       cx="137.61501"
       cy="169.68556"
       r="0.82308936" />
    <circle
       style="fill:#70ad47;fill-opacity:1;stroke:none;stroke-width:1.79393;stroke-linecap:round;stroke-linejoin:round;stroke-dasharray:none;stroke-dashoffset:53.8726;stroke-opacity:1"
       id="path60601-85-5-71-91-70"
       cx="142.68823"
       cy="171.57327"
       r="0.82308936" />
    <circle
       style="fill:#70ad47;fill-opacity:1;stroke:none;stroke-width:1.79393;stroke-linecap:round;stroke-linejoin:round;stroke-dasharray:none;stroke-dashoffset:53.8726;stroke-opacity:1"
       id="path60601-85-5-71-91-48"
       cx="143.47478"
       cy="171.73058"
       r="0.82308936" />
    <circle
       style="fill:#70ad47;fill-opacity:1;stroke:none;stroke-width:1.79393;stroke-linecap:round;stroke-linejoin:round;stroke-dasharray:none;stroke-dashoffset:53.8726;stroke-opacity:1"
       id="path60601-85-5-71-91-67"
       cx="148.70531"
       cy="170.82605"
       r="0.82308936" />
    <circle
       style="fill:#70ad47;fill-opacity:1;stroke:none;stroke-width:1.79393;stroke-linecap:round;stroke-linejoin:round;stroke-dasharray:none;stroke-dashoffset:53.8726;stroke-opacity:1"
       id="path60601-85-5-71-91-97"
       cx="152.28409"
       cy="168.3091"
       r="0.82308936" />
    <circle
       style="fill:#70ad47;fill-opacity:1;stroke:none;stroke-width:1.79393;stroke-linecap:round;stroke-linejoin:round;stroke-dasharray:none;stroke-dashoffset:53.8726;stroke-opacity:1"
       id="path60601-85-5-71-91-572"
       cx="154.80106"
       cy="166.06744"
       r="0.82308936" />
    <circle
       style="fill:#70ad47;fill-opacity:1;stroke:none;stroke-width:1.79393;stroke-linecap:round;stroke-linejoin:round;stroke-dasharray:none;stroke-dashoffset:53.8726;stroke-opacity:1"
       id="path60601-85-5-71-91-51"
       cx="157.71127"
       cy="162.72462"
       r="0.82308936" />
    <circle
       style="fill:#70ad47;fill-opacity:1;stroke:none;stroke-width:1.79393;stroke-linecap:round;stroke-linejoin:round;stroke-dasharray:none;stroke-dashoffset:53.8726;stroke-opacity:1"
       id="path60601-85-5-71-91-69"
       cx="162.70584"
       cy="155.60637"
       r="0.82308936" />
    <circle
       style="fill:#70ad47;fill-opacity:1;stroke:none;stroke-width:1.79393;stroke-linecap:round;stroke-linejoin:round;stroke-dasharray:none;stroke-dashoffset:53.8726;stroke-opacity:1"
       id="path60601-85-5-71-91-20"
       cx="166.36328"
       cy="148.96007"
       r="0.82308936" />
    <circle
       style="fill:#70ad47;fill-opacity:1;stroke:none;stroke-width:1.79393;stroke-linecap:round;stroke-linejoin:round;stroke-dasharray:none;stroke-dashoffset:53.8726;stroke-opacity:1"
       id="path60601-85-5-71-91-47"
       cx="168.70425"
       cy="144.19077"
       r="0.82308936" />
    <path
       style="fill:none;stroke:#ed7d31;stroke-width:0.511;stroke-linecap:butt;stroke-linejoin:miter;stroke-dasharray:none;stroke-opacity:1;marker-end:url(#marker5661-2)"
       d="m 115.17166,154.26407 34.3903,-0.22823"
       id="path1907-4-0-8-5-5"
       sodipodi:nodetypes="cc" />
    <path
       style="fill:none;stroke:#ed7d31;stroke-width:0.511;stroke-linecap:butt;stroke-linejoin:miter;stroke-dasharray:none;stroke-opacity:1;marker-end:url(#marker5661-2-6)"
       d="m 115.18674,154.34688 0.13923,-17.61786"
       id="path1907-4-0-8-5-5-8"
       sodipodi:nodetypes="cc" />
    <g
       inkscape:label=""
       transform="translate(122.4307,175.92047)"
       id="g17505">
      <g
         fill="#000000"
         fill-opacity="1"
         id="g30"
         transform="matrix(0.458611,0,0,0.458611,-129.357,-37.5874)">
        <g
           id="use28"
           transform="translate(281.50101,84.579002)">
          <path
             d="m 1.03125,21.703125 c 0.328125,-0.01563 0.5,-0.234375 0.5,-0.484375 0,-0.328125 -0.25,-0.5 -0.484375,-0.5 -0.234375,0 -0.484375,0.15625 -0.484375,0.5 0,0.515625 0.5,0.9375 1.109375,0.9375 1.515625,0 2.078125,-2.34375 2.78125,-5.234375 C 5.21875,13.78125 5.875,10.59375 6.40625,7.390625 6.78125,5.28125 7.140625,3.28125 7.484375,2 7.609375,1.5 7.9375,0.21875 8.328125,0.21875 c 0.3125,0 0.5625,0.1875 0.609375,0.234375 -0.328125,0.015625 -0.5,0.234375 -0.5,0.484375 0,0.328125 0.25,0.484375 0.46875,0.484375 0.25,0 0.5,-0.140625 0.5,-0.5 C 9.40625,0.390625 8.859375,0 8.3125,0 7.5625,0 7,1.09375 6.453125,3.125 6.421875,3.234375 5.0625,8.234375 3.96875,14.75 3.703125,16.28125 3.421875,17.9375 3.09375,19.328125 2.90625,20.0625 2.453125,21.9375 1.640625,21.9375 c -0.359375,0 -0.59375,-0.234375 -0.609375,-0.234375 z m 0,0"
             id="path78" />
        </g>
      </g>
      <g
         fill="#000000"
         fill-opacity="1"
         id="g34"
         transform="matrix(0.458611,0,0,0.458611,-129.357,-37.5874)">
        <g
           id="use32"
           transform="translate(293.12399,98.139)">
          <path
             d="m 1.578125,-7.125 c 0,-0.171875 0,-0.359375 -0.1875,-0.359375 -0.203125,0 -0.203125,0.1875 -0.203125,0.359375 v 9.265625 c 0,0.171875 0,0.359375 0.203125,0.359375 0.1875,0 0.1875,-0.1875 0.1875,-0.359375 z m 0,0"
             id="path82" />
        </g>
      </g>
      <g
         fill="#000000"
         fill-opacity="1"
         id="g38"
         transform="matrix(0.458611,0,0,0.458611,-129.357,-37.5874)">
        <g
           id="use36"
           transform="translate(297.08701,91.400002)">
          <path
             d="m 4.609375,-3.375 c -0.09375,-0.625 -0.5,-1.1875 -1.28125,-1.1875 -0.609375,0 -1.25,0.171875 -2.03125,0.9375 -0.828125,0.828125 -0.890625,1.765625 -0.890625,2.0625 0,0.625 0.4375,1.78125 1.828125,1.78125 2.375,0 3.40625,-3.34375 3.40625,-4.78125 0,-1.578125 -0.921875,-2.578125 -2.15625,-2.578125 -1.4375,0 -1.90625,1.296875 -1.90625,1.578125 0,0.140625 0.09375,0.34375 0.390625,0.34375 0.328125,0 0.53125,-0.296875 0.53125,-0.515625 0,-0.359375 -0.3125,-0.359375 -0.46875,-0.359375 0.4375,-0.734375 1.15625,-0.796875 1.4375,-0.796875 0.734375,0 1.421875,0.515625 1.421875,1.8125 0,0.390625 -0.0625,0.890625 -0.265625,1.703125 z m -2.34375,3.3125 c -1.09375,0 -1.09375,-1.03125 -1.09375,-1.125 0,-0.265625 0.25,-1.65625 0.65625,-2.265625 0.390625,-0.5625 0.890625,-0.890625 1.5,-0.890625 1.09375,0 1.109375,1.125 1.109375,1.328125 0,0.71875 -0.640625,2.953125 -2.171875,2.953125 z m 0,0"
             id="path86" />
        </g>
      </g>
      <g
         fill="#000000"
         fill-opacity="1"
         id="g42"
         transform="matrix(0.458611,0,0,0.458611,-129.357,-37.5874)">
        <g
           id="use40"
           transform="translate(305.78699,88.880997)">
          <path
             d="M 2.5,-6.921875 1.15625,-5.5625 1.328125,-5.390625 2.5,-6.40625 3.640625,-5.390625 3.8125,-5.5625 Z m 0,0"
             id="path90" />
        </g>
      </g>
      <g
         fill="#000000"
         fill-opacity="1"
         id="g46"
         transform="matrix(0.458611,0,0,0.458611,-129.357,-37.5874)">
        <g
           id="use44"
           transform="translate(302.92999,91.400002)">
          <path
             d="M 4.828125,-4.09375 4,-6.078125 c -0.03125,-0.078125 -0.046875,-0.125 -0.046875,-0.125 0,-0.0625 0.15625,-0.25 0.578125,-0.296875 0.109375,-0.015625 0.203125,-0.015625 0.203125,-0.1875 0,-0.125 -0.125,-0.125 -0.15625,-0.125 -0.40625,0 -0.828125,0.03125 -1.25,0.03125 -0.25,0 -0.859375,-0.03125 -1.109375,-0.03125 -0.0625,0 -0.1875,0 -0.1875,0.203125 C 2.03125,-6.5 2.140625,-6.5 2.265625,-6.5 c 0.59375,0 0.65625,0.09375 0.75,0.3125 l 1.171875,2.78125 -2.109375,2.265625 -0.125,0.109375 C 1.46875,-0.5 1,-0.34375 0.484375,-0.3125 c -0.125,0.015625 -0.21875,0.015625 -0.21875,0.203125 0,0.015625 0,0.109375 0.140625,0.109375 0.296875,0 0.625,-0.03125 0.921875,-0.03125 C 1.703125,-0.03125 2.09375,0 2.453125,0 2.515625,0 2.625,0 2.625,-0.203125 2.625,-0.296875 2.53125,-0.3125 2.515625,-0.3125 c -0.09375,0 -0.40625,-0.03125 -0.40625,-0.3125 0,-0.15625 0.15625,-0.3125 0.265625,-0.4375 L 3.40625,-2.140625 4.296875,-3.125 l 1,2.390625 c 0.046875,0.109375 0.0625,0.109375 0.0625,0.140625 0,0.078125 -0.203125,0.25 -0.578125,0.28125 C 4.671875,-0.296875 4.578125,-0.296875 4.578125,-0.125 4.578125,0 4.6875,0 4.71875,0 5,0 5.703125,-0.03125 5.984375,-0.03125 6.234375,-0.03125 6.84375,0 7.09375,0 c 0.0625,0 0.1875,0 0.1875,-0.1875 0,-0.125 -0.109375,-0.125 -0.1875,-0.125 -0.65625,0 -0.6875,-0.03125 -0.859375,-0.4375 C 5.859375,-1.671875 5.1875,-3.234375 4.953125,-3.828125 5.625,-4.53125 6.671875,-5.71875 7,-5.984375 7.28125,-6.234375 7.671875,-6.46875 8.265625,-6.5 c 0.125,-0.015625 0.21875,-0.015625 0.21875,-0.203125 0,0 0,-0.109375 -0.125,-0.109375 -0.296875,0 -0.640625,0.03125 -0.9375,0.03125 -0.375,0 -0.75,-0.03125 -1.109375,-0.03125 -0.0625,0 -0.1875,0 -0.1875,0.203125 0,0.0625 0.046875,0.09375 0.109375,0.109375 0.09375,0.015625 0.40625,0.03125 0.40625,0.3125 0,0.140625 -0.109375,0.265625 -0.1875,0.359375 z m 0,0"
             id="path94" />
        </g>
      </g>
      <path
         fill="none"
         stroke-width="0.398"
         stroke-linecap="butt"
         stroke-linejoin="miter"
         stroke="#000000"
         stroke-opacity="1"
         stroke-miterlimit="10"
         d="M 15.02243,13.689316 H 29.901337"
         id="path48"
         transform="scale(0.458611)" />
      <g
         fill="#000000"
         fill-opacity="1"
         id="g52"
         transform="matrix(0.458611,0,0,0.458611,-129.357,-37.5874)">
        <g
           id="use50"
           transform="translate(297.08701,104.973)">
          <path
             d="m 4.609375,-3.375 c -0.09375,-0.625 -0.5,-1.1875 -1.28125,-1.1875 -0.609375,0 -1.25,0.171875 -2.03125,0.9375 -0.828125,0.828125 -0.890625,1.765625 -0.890625,2.0625 0,0.625 0.4375,1.78125 1.828125,1.78125 2.375,0 3.40625,-3.34375 3.40625,-4.78125 0,-1.578125 -0.921875,-2.578125 -2.15625,-2.578125 -1.4375,0 -1.90625,1.296875 -1.90625,1.578125 0,0.140625 0.09375,0.34375 0.390625,0.34375 0.328125,0 0.53125,-0.296875 0.53125,-0.515625 0,-0.359375 -0.3125,-0.359375 -0.46875,-0.359375 0.4375,-0.734375 1.15625,-0.796875 1.4375,-0.796875 0.734375,0 1.421875,0.515625 1.421875,1.8125 0,0.390625 -0.0625,0.890625 -0.265625,1.703125 z m -2.34375,3.3125 c -1.09375,0 -1.09375,-1.03125 -1.09375,-1.125 0,-0.265625 0.25,-1.65625 0.65625,-2.265625 0.390625,-0.5625 0.890625,-0.890625 1.5,-0.890625 1.09375,0 1.109375,1.125 1.109375,1.328125 0,0.71875 -0.640625,2.953125 -2.171875,2.953125 z m 0,0"
             id="path98" />
        </g>
      </g>
      <g
         fill="#000000"
         fill-opacity="1"
         id="g56"
         transform="matrix(0.458611,0,0,0.458611,-129.357,-37.5874)">
        <g
           id="use54"
           transform="translate(302.93405,104.973)">
          <path
             d="M 4.828125,-4.09375 4,-6.078125 c -0.03125,-0.078125 -0.046875,-0.125 -0.046875,-0.125 0,-0.0625 0.15625,-0.25 0.578125,-0.296875 0.109375,-0.015625 0.203125,-0.015625 0.203125,-0.1875 0,-0.125 -0.125,-0.125 -0.15625,-0.125 -0.40625,0 -0.828125,0.03125 -1.25,0.03125 -0.25,0 -0.859375,-0.03125 -1.109375,-0.03125 -0.0625,0 -0.1875,0 -0.1875,0.203125 C 2.03125,-6.5 2.140625,-6.5 2.265625,-6.5 c 0.59375,0 0.65625,0.09375 0.75,0.3125 l 1.171875,2.78125 -2.109375,2.265625 -0.125,0.109375 C 1.46875,-0.5 1,-0.34375 0.484375,-0.3125 c -0.125,0.015625 -0.21875,0.015625 -0.21875,0.203125 0,0.015625 0,0.109375 0.140625,0.109375 0.296875,0 0.625,-0.03125 0.921875,-0.03125 C 1.703125,-0.03125 2.09375,0 2.453125,0 2.515625,0 2.625,0 2.625,-0.203125 2.625,-0.296875 2.53125,-0.3125 2.515625,-0.3125 c -0.09375,0 -0.40625,-0.03125 -0.40625,-0.3125 0,-0.15625 0.15625,-0.3125 0.265625,-0.4375 L 3.40625,-2.140625 4.296875,-3.125 l 1,2.390625 c 0.046875,0.109375 0.0625,0.109375 0.0625,0.140625 0,0.078125 -0.203125,0.25 -0.578125,0.28125 C 4.671875,-0.296875 4.578125,-0.296875 4.578125,-0.125 4.578125,0 4.6875,0 4.71875,0 5,0 5.703125,-0.03125 5.984375,-0.03125 6.234375,-0.03125 6.84375,0 7.09375,0 c 0.0625,0 0.1875,0 0.1875,-0.1875 0,-0.125 -0.109375,-0.125 -0.1875,-0.125 -0.65625,0 -0.6875,-0.03125 -0.859375,-0.4375 C 5.859375,-1.671875 5.1875,-3.234375 4.953125,-3.828125 5.625,-4.53125 6.671875,-5.71875 7,-5.984375 7.28125,-6.234375 7.671875,-6.46875 8.265625,-6.5 c 0.125,-0.015625 0.21875,-0.015625 0.21875,-0.203125 0,0 0,-0.109375 -0.125,-0.109375 -0.296875,0 -0.640625,0.03125 -0.9375,0.03125 -0.375,0 -0.75,-0.03125 -1.109375,-0.03125 -0.0625,0 -0.1875,0 -0.1875,0.203125 0,0.0625 0.046875,0.09375 0.109375,0.109375 0.09375,0.015625 0.40625,0.03125 0.40625,0.3125 0,0.140625 -0.109375,0.265625 -0.1875,0.359375 z m 0,0"
             id="path102" />
        </g>
      </g>
      <g
         fill="#000000"
         fill-opacity="1"
         id="g60"
         transform="matrix(0.458611,0,0,0.458611,-129.357,-37.5874)">
        <g
           id="use58"
           transform="translate(313.16101,98.139)">
          <path
             d="m 1.578125,-7.125 c 0,-0.171875 0,-0.359375 -0.1875,-0.359375 -0.203125,0 -0.203125,0.1875 -0.203125,0.359375 v 9.265625 c 0,0.171875 0,0.359375 0.203125,0.359375 0.1875,0 0.1875,-0.1875 0.1875,-0.359375 z m 0,0"
             id="path106" />
        </g>
      </g>
      <g
         fill="#000000"
         fill-opacity="1"
         id="g64"
         transform="matrix(0.458611,0,0,0.458611,-129.357,-37.5874)">
        <g
           id="use62"
           transform="translate(315.92801,98.139)">
          <path
             d="m 3.78125,-0.546875 v 0.65625 L 5.25,0 v -0.3125 c -0.6875,0 -0.78125,-0.0625 -0.78125,-0.5625 V -6.921875 L 3.046875,-6.8125 V -6.5 c 0.6875,0 0.765625,0.0625 0.765625,0.5625 v 2.15625 c -0.28125,-0.359375 -0.71875,-0.625 -1.25,-0.625 -1.171875,0 -2.21875,0.984375 -2.21875,2.265625 0,1.265625 0.96875,2.25 2.109375,2.25 0.640625,0 1.078125,-0.34375 1.328125,-0.65625 z m 0,-2.671875 v 2.046875 c 0,0.171875 0,0.1875 -0.109375,0.359375 C 3.375,-0.328125 2.9375,-0.109375 2.5,-0.109375 2.046875,-0.109375 1.6875,-0.375 1.453125,-0.75 1.203125,-1.15625 1.171875,-1.71875 1.171875,-2.140625 1.171875,-2.5 1.1875,-3.09375 1.46875,-3.546875 1.6875,-3.859375 2.0625,-4.1875 2.609375,-4.1875 c 0.34375,0 0.765625,0.15625 1.0625,0.59375 0.109375,0.171875 0.109375,0.1875 0.109375,0.375 z m 0,0"
             id="path110" />
        </g>
      </g>
      <g
         fill="#000000"
         fill-opacity="1"
         id="g68"
         transform="matrix(0.458611,0,0,0.458611,-129.357,-37.5874)">
        <g
           id="use66"
           transform="translate(324.32101,95.621002)">
          <path
             d="M 2.5,-6.921875 1.15625,-5.5625 1.328125,-5.390625 2.5,-6.40625 3.640625,-5.390625 3.8125,-5.5625 Z m 0,0"
             id="path114" />
        </g>
      </g>
      <g
         fill="#000000"
         fill-opacity="1"
         id="g72"
         transform="matrix(0.458611,0,0,0.458611,-129.357,-37.5874)">
        <g
           id="use70"
           transform="translate(321.46301,98.139)">
          <path
             d="M 4.828125,-4.09375 4,-6.078125 c -0.03125,-0.078125 -0.046875,-0.125 -0.046875,-0.125 0,-0.0625 0.15625,-0.25 0.578125,-0.296875 0.109375,-0.015625 0.203125,-0.015625 0.203125,-0.1875 0,-0.125 -0.125,-0.125 -0.15625,-0.125 -0.40625,0 -0.828125,0.03125 -1.25,0.03125 -0.25,0 -0.859375,-0.03125 -1.109375,-0.03125 -0.0625,0 -0.1875,0 -0.1875,0.203125 C 2.03125,-6.5 2.140625,-6.5 2.265625,-6.5 c 0.59375,0 0.65625,0.09375 0.75,0.3125 l 1.171875,2.78125 -2.109375,2.265625 -0.125,0.109375 C 1.46875,-0.5 1,-0.34375 0.484375,-0.3125 c -0.125,0.015625 -0.21875,0.015625 -0.21875,0.203125 0,0.015625 0,0.109375 0.140625,0.109375 0.296875,0 0.625,-0.03125 0.921875,-0.03125 C 1.703125,-0.03125 2.09375,0 2.453125,0 2.515625,0 2.625,0 2.625,-0.203125 2.625,-0.296875 2.53125,-0.3125 2.515625,-0.3125 c -0.09375,0 -0.40625,-0.03125 -0.40625,-0.3125 0,-0.15625 0.15625,-0.3125 0.265625,-0.4375 L 3.40625,-2.140625 4.296875,-3.125 l 1,2.390625 c 0.046875,0.109375 0.0625,0.109375 0.0625,0.140625 0,0.078125 -0.203125,0.25 -0.578125,0.28125 C 4.671875,-0.296875 4.578125,-0.296875 4.578125,-0.125 4.578125,0 4.6875,0 4.71875,0 5,0 5.703125,-0.03125 5.984375,-0.03125 6.234375,-0.03125 6.84375,0 7.09375,0 c 0.0625,0 0.1875,0 0.1875,-0.1875 0,-0.125 -0.109375,-0.125 -0.1875,-0.125 -0.65625,0 -0.6875,-0.03125 -0.859375,-0.4375 C 5.859375,-1.671875 5.1875,-3.234375 4.953125,-3.828125 5.625,-4.53125 6.671875,-5.71875 7,-5.984375 7.28125,-6.234375 7.671875,-6.46875 8.265625,-6.5 c 0.125,-0.015625 0.21875,-0.015625 0.21875,-0.203125 0,0 0,-0.109375 -0.125,-0.109375 -0.296875,0 -0.640625,0.03125 -0.9375,0.03125 -0.375,0 -0.75,-0.03125 -1.109375,-0.03125 -0.0625,0 -0.1875,0 -0.1875,0.203125 0,0.0625 0.046875,0.09375 0.109375,0.109375 0.09375,0.015625 0.40625,0.03125 0.40625,0.3125 0,0.140625 -0.109375,0.265625 -0.1875,0.359375 z m 0,0"
             id="path118" />
        </g>
      </g>
    </g>
    <g
       inkscape:label=""
       transform="translate(91.062575,139.21309)"
       id="g17990">
      <g
         fill="#000000"
         fill-opacity="1"
         id="g33"
         transform="matrix(0.458611,0,0,0.458611,-129.357,-37.5874)">
        <g
           id="use31"
           transform="translate(281.50101,84.579002)">
          <path
             d="m 1.03125,21.703125 c 0.328125,-0.01563 0.5,-0.234375 0.5,-0.484375 0,-0.328125 -0.25,-0.5 -0.484375,-0.5 -0.234375,0 -0.484375,0.15625 -0.484375,0.5 0,0.515625 0.5,0.9375 1.109375,0.9375 1.515625,0 2.078125,-2.34375 2.78125,-5.234375 C 5.21875,13.78125 5.875,10.59375 6.40625,7.390625 6.78125,5.28125 7.140625,3.28125 7.484375,2 7.609375,1.5 7.9375,0.21875 8.328125,0.21875 c 0.3125,0 0.5625,0.1875 0.609375,0.234375 -0.328125,0.015625 -0.5,0.234375 -0.5,0.484375 0,0.328125 0.25,0.484375 0.46875,0.484375 0.25,0 0.5,-0.140625 0.5,-0.5 C 9.40625,0.390625 8.859375,0 8.3125,0 7.5625,0 7,1.09375 6.453125,3.125 6.421875,3.234375 5.0625,8.234375 3.96875,14.75 3.703125,16.28125 3.421875,17.9375 3.09375,19.328125 2.90625,20.0625 2.453125,21.9375 1.640625,21.9375 c -0.359375,0 -0.59375,-0.234375 -0.609375,-0.234375 z m 0,0"
             id="path81" />
        </g>
      </g>
      <g
         fill="#000000"
         fill-opacity="1"
         id="g37"
         transform="matrix(0.458611,0,0,0.458611,-129.357,-37.5874)">
        <g
           id="use35"
           transform="translate(293.12399,98.139)">
          <path
             d="m 1.578125,-7.125 c 0,-0.171875 0,-0.359375 -0.1875,-0.359375 -0.203125,0 -0.203125,0.1875 -0.203125,0.359375 v 9.265625 c 0,0.171875 0,0.359375 0.203125,0.359375 0.1875,0 0.1875,-0.1875 0.1875,-0.359375 z m 0,0"
             id="path85" />
        </g>
      </g>
      <g
         fill="#000000"
         fill-opacity="1"
         id="g41"
         transform="matrix(0.458611,0,0,0.458611,-129.357,-37.5874)">
        <g
           id="use39"
           transform="translate(297.08701,91.400002)">
          <path
             d="m 4.609375,-3.375 c -0.09375,-0.625 -0.5,-1.1875 -1.28125,-1.1875 -0.609375,0 -1.25,0.171875 -2.03125,0.9375 -0.828125,0.828125 -0.890625,1.765625 -0.890625,2.0625 0,0.625 0.4375,1.78125 1.828125,1.78125 2.375,0 3.40625,-3.34375 3.40625,-4.78125 0,-1.578125 -0.921875,-2.578125 -2.15625,-2.578125 -1.4375,0 -1.90625,1.296875 -1.90625,1.578125 0,0.140625 0.09375,0.34375 0.390625,0.34375 0.328125,0 0.53125,-0.296875 0.53125,-0.515625 0,-0.359375 -0.3125,-0.359375 -0.46875,-0.359375 0.4375,-0.734375 1.15625,-0.796875 1.4375,-0.796875 0.734375,0 1.421875,0.515625 1.421875,1.8125 0,0.390625 -0.0625,0.890625 -0.265625,1.703125 z m -2.34375,3.3125 c -1.09375,0 -1.09375,-1.03125 -1.09375,-1.125 0,-0.265625 0.25,-1.65625 0.65625,-2.265625 0.390625,-0.5625 0.890625,-0.890625 1.5,-0.890625 1.09375,0 1.109375,1.125 1.109375,1.328125 0,0.71875 -0.640625,2.953125 -2.171875,2.953125 z m 0,0"
             id="path89" />
        </g>
      </g>
      <g
         fill="#000000"
         fill-opacity="1"
         id="g45"
         transform="matrix(0.458611,0,0,0.458611,-129.357,-37.5874)">
        <g
           id="use43"
           transform="translate(305.78699,88.880997)">
          <path
             d="M 2.5,-6.921875 1.15625,-5.5625 1.328125,-5.390625 2.5,-6.40625 3.640625,-5.390625 3.8125,-5.5625 Z m 0,0"
             id="path93" />
        </g>
      </g>
      <g
         fill="#000000"
         fill-opacity="1"
         id="g49"
         transform="matrix(0.458611,0,0,0.458611,-129.357,-37.5874)">
        <g
           id="use47"
           transform="translate(302.92999,91.400002)">
          <path
             d="M 4.828125,-4.09375 4,-6.078125 c -0.03125,-0.078125 -0.046875,-0.125 -0.046875,-0.125 0,-0.0625 0.15625,-0.25 0.578125,-0.296875 0.109375,-0.015625 0.203125,-0.015625 0.203125,-0.1875 0,-0.125 -0.125,-0.125 -0.15625,-0.125 -0.40625,0 -0.828125,0.03125 -1.25,0.03125 -0.25,0 -0.859375,-0.03125 -1.109375,-0.03125 -0.0625,0 -0.1875,0 -0.1875,0.203125 C 2.03125,-6.5 2.140625,-6.5 2.265625,-6.5 c 0.59375,0 0.65625,0.09375 0.75,0.3125 l 1.171875,2.78125 -2.109375,2.265625 -0.125,0.109375 C 1.46875,-0.5 1,-0.34375 0.484375,-0.3125 c -0.125,0.015625 -0.21875,0.015625 -0.21875,0.203125 0,0.015625 0,0.109375 0.140625,0.109375 0.296875,0 0.625,-0.03125 0.921875,-0.03125 C 1.703125,-0.03125 2.09375,0 2.453125,0 2.515625,0 2.625,0 2.625,-0.203125 2.625,-0.296875 2.53125,-0.3125 2.515625,-0.3125 c -0.09375,0 -0.40625,-0.03125 -0.40625,-0.3125 0,-0.15625 0.15625,-0.3125 0.265625,-0.4375 L 3.40625,-2.140625 4.296875,-3.125 l 1,2.390625 c 0.046875,0.109375 0.0625,0.109375 0.0625,0.140625 0,0.078125 -0.203125,0.25 -0.578125,0.28125 C 4.671875,-0.296875 4.578125,-0.296875 4.578125,-0.125 4.578125,0 4.6875,0 4.71875,0 5,0 5.703125,-0.03125 5.984375,-0.03125 6.234375,-0.03125 6.84375,0 7.09375,0 c 0.0625,0 0.1875,0 0.1875,-0.1875 0,-0.125 -0.109375,-0.125 -0.1875,-0.125 -0.65625,0 -0.6875,-0.03125 -0.859375,-0.4375 C 5.859375,-1.671875 5.1875,-3.234375 4.953125,-3.828125 5.625,-4.53125 6.671875,-5.71875 7,-5.984375 7.28125,-6.234375 7.671875,-6.46875 8.265625,-6.5 c 0.125,-0.015625 0.21875,-0.015625 0.21875,-0.203125 0,0 0,-0.109375 -0.125,-0.109375 -0.296875,0 -0.640625,0.03125 -0.9375,0.03125 -0.375,0 -0.75,-0.03125 -1.109375,-0.03125 -0.0625,0 -0.1875,0 -0.1875,0.203125 0,0.0625 0.046875,0.09375 0.109375,0.109375 0.09375,0.015625 0.40625,0.03125 0.40625,0.3125 0,0.140625 -0.109375,0.265625 -0.1875,0.359375 z m 0,0"
             id="path97" />
        </g>
      </g>
      <path
         fill="none"
         stroke-width="0.398"
         stroke-linecap="butt"
         stroke-linejoin="miter"
         stroke="#000000"
         stroke-opacity="1"
         stroke-miterlimit="10"
         d="M 15.02243,13.689316 H 29.901337"
         id="path51"
         transform="scale(0.458611)" />
      <g
         fill="#000000"
         fill-opacity="1"
         id="g55"
         transform="matrix(0.458611,0,0,0.458611,-129.357,-37.5874)">
        <g
           id="use53"
           transform="translate(297.60599,104.973)">
          <path
             d="m 4.609375,-3.375 c -0.09375,-0.625 -0.5,-1.1875 -1.28125,-1.1875 -0.609375,0 -1.25,0.171875 -2.03125,0.9375 -0.828125,0.828125 -0.890625,1.765625 -0.890625,2.0625 0,0.625 0.4375,1.78125 1.828125,1.78125 2.375,0 3.40625,-3.34375 3.40625,-4.78125 0,-1.578125 -0.921875,-2.578125 -2.15625,-2.578125 -1.4375,0 -1.90625,1.296875 -1.90625,1.578125 0,0.140625 0.09375,0.34375 0.390625,0.34375 0.328125,0 0.53125,-0.296875 0.53125,-0.515625 0,-0.359375 -0.3125,-0.359375 -0.46875,-0.359375 0.4375,-0.734375 1.15625,-0.796875 1.4375,-0.796875 0.734375,0 1.421875,0.515625 1.421875,1.8125 0,0.390625 -0.0625,0.890625 -0.265625,1.703125 z m -2.34375,3.3125 c -1.09375,0 -1.09375,-1.03125 -1.09375,-1.125 0,-0.265625 0.25,-1.65625 0.65625,-2.265625 0.390625,-0.5625 0.890625,-0.890625 1.5,-0.890625 1.09375,0 1.109375,1.125 1.109375,1.328125 0,0.71875 -0.640625,2.953125 -2.171875,2.953125 z m 0,0"
             id="path101" />
        </g>
      </g>
      <g
         fill="#000000"
         fill-opacity="1"
         id="g59"
         transform="matrix(0.458611,0,0,0.458611,-129.357,-37.5874)">
        <g
           id="use57"
           transform="translate(303.45306,104.973)">
          <path
             d="M 5.953125,-5.671875 6.09375,-5.8125 C 6.390625,-6.109375 6.71875,-6.453125 7.390625,-6.5 7.5,-6.515625 7.59375,-6.515625 7.59375,-6.6875 c 0,-0.078125 -0.046875,-0.125 -0.125,-0.125 -0.265625,0 -0.546875,0.03125 -0.8125,0.03125 -0.34375,0 -0.6875,-0.03125 -1,-0.03125 -0.0625,0 -0.1875,0 -0.1875,0.1875 0,0.109375 0.09375,0.125 0.140625,0.125 0.078125,0 0.359375,0.015625 0.359375,0.234375 0,0.171875 -0.234375,0.421875 -0.265625,0.46875 L 3.390625,-3.125 2.296875,-6.09375 C 2.234375,-6.234375 2.234375,-6.25 2.234375,-6.265625 2.234375,-6.5 2.71875,-6.5 2.828125,-6.5 c 0.125,0 0.234375,0 0.234375,-0.203125 0,-0.109375 -0.125,-0.109375 -0.15625,-0.109375 -0.28125,0 -0.96875,0.03125 -1.25,0.03125 -0.25,0 -0.875,-0.03125 -1.125,-0.03125 -0.046875,0 -0.1875,0 -0.1875,0.203125 C 0.34375,-6.5 0.453125,-6.5 0.578125,-6.5 c 0.59375,0 0.640625,0.09375 0.734375,0.34375 L 2.53125,-2.875 c 0.015625,0.03125 0.046875,0.140625 0.046875,0.15625 0,0.03125 -0.40625,1.640625 -0.453125,1.828125 C 2,-0.34375 1.984375,-0.3125 1.1875,-0.3125 c -0.1875,0 -0.265625,0 -0.265625,0.203125 C 0.921875,0 1.03125,0 1.0625,0 c 0.265625,0 0.96875,-0.03125 1.25,-0.03125 0.28125,0 1,0.03125 1.28125,0.03125 0.0625,0 0.1875,0 0.1875,-0.203125 C 3.78125,-0.3125 3.6875,-0.3125 3.5,-0.3125 c -0.015625,0 -0.203125,0 -0.375,-0.015625 C 2.90625,-0.34375 2.84375,-0.375 2.84375,-0.484375 c 0,-0.078125 0.09375,-0.421875 0.140625,-0.625 l 0.359375,-1.40625 c 0.046875,-0.203125 0.0625,-0.21875 0.140625,-0.3125 z m 0,0"
             id="path105" />
        </g>
      </g>
      <g
         fill="#000000"
         fill-opacity="1"
         id="g63"
         transform="matrix(0.458611,0,0,0.458611,-129.357,-37.5874)">
        <g
           id="use61"
           transform="translate(313.16101,98.139)">
          <path
             d="m 1.578125,-7.125 c 0,-0.171875 0,-0.359375 -0.1875,-0.359375 -0.203125,0 -0.203125,0.1875 -0.203125,0.359375 v 9.265625 c 0,0.171875 0,0.359375 0.203125,0.359375 0.1875,0 0.1875,-0.1875 0.1875,-0.359375 z m 0,0"
             id="path109" />
        </g>
      </g>
      <g
         fill="#000000"
         fill-opacity="1"
         id="g67"
         transform="matrix(0.458611,0,0,0.458611,-129.357,-37.5874)">
        <g
           id="use65"
           transform="translate(315.92801,98.139)">
          <path
             d="m 3.78125,-0.546875 v 0.65625 L 5.25,0 v -0.3125 c -0.6875,0 -0.78125,-0.0625 -0.78125,-0.5625 V -6.921875 L 3.046875,-6.8125 V -6.5 c 0.6875,0 0.765625,0.0625 0.765625,0.5625 v 2.15625 c -0.28125,-0.359375 -0.71875,-0.625 -1.25,-0.625 -1.171875,0 -2.21875,0.984375 -2.21875,2.265625 0,1.265625 0.96875,2.25 2.109375,2.25 0.640625,0 1.078125,-0.34375 1.328125,-0.65625 z m 0,-2.671875 v 2.046875 c 0,0.171875 0,0.1875 -0.109375,0.359375 C 3.375,-0.328125 2.9375,-0.109375 2.5,-0.109375 2.046875,-0.109375 1.6875,-0.375 1.453125,-0.75 1.203125,-1.15625 1.171875,-1.71875 1.171875,-2.140625 1.171875,-2.5 1.1875,-3.09375 1.46875,-3.546875 1.6875,-3.859375 2.0625,-4.1875 2.609375,-4.1875 c 0.34375,0 0.765625,0.15625 1.0625,0.59375 0.109375,0.171875 0.109375,0.1875 0.109375,0.375 z m 0,0"
             id="path113" />
        </g>
      </g>
      <g
         fill="#000000"
         fill-opacity="1"
         id="g71"
         transform="matrix(0.458611,0,0,0.458611,-129.357,-37.5874)">
        <g
           id="use69"
           transform="translate(324.32101,95.621002)">
          <path
             d="M 2.5,-6.921875 1.15625,-5.5625 1.328125,-5.390625 2.5,-6.40625 3.640625,-5.390625 3.8125,-5.5625 Z m 0,0"
             id="path117" />
        </g>
      </g>
      <g
         fill="#000000"
         fill-opacity="1"
         id="g75"
         transform="matrix(0.458611,0,0,0.458611,-129.357,-37.5874)">
        <g
           id="use73"
           transform="translate(321.46301,98.139)">
          <path
             d="M 4.828125,-4.09375 4,-6.078125 c -0.03125,-0.078125 -0.046875,-0.125 -0.046875,-0.125 0,-0.0625 0.15625,-0.25 0.578125,-0.296875 0.109375,-0.015625 0.203125,-0.015625 0.203125,-0.1875 0,-0.125 -0.125,-0.125 -0.15625,-0.125 -0.40625,0 -0.828125,0.03125 -1.25,0.03125 -0.25,0 -0.859375,-0.03125 -1.109375,-0.03125 -0.0625,0 -0.1875,0 -0.1875,0.203125 C 2.03125,-6.5 2.140625,-6.5 2.265625,-6.5 c 0.59375,0 0.65625,0.09375 0.75,0.3125 l 1.171875,2.78125 -2.109375,2.265625 -0.125,0.109375 C 1.46875,-0.5 1,-0.34375 0.484375,-0.3125 c -0.125,0.015625 -0.21875,0.015625 -0.21875,0.203125 0,0.015625 0,0.109375 0.140625,0.109375 0.296875,0 0.625,-0.03125 0.921875,-0.03125 C 1.703125,-0.03125 2.09375,0 2.453125,0 2.515625,0 2.625,0 2.625,-0.203125 2.625,-0.296875 2.53125,-0.3125 2.515625,-0.3125 c -0.09375,0 -0.40625,-0.03125 -0.40625,-0.3125 0,-0.15625 0.15625,-0.3125 0.265625,-0.4375 L 3.40625,-2.140625 4.296875,-3.125 l 1,2.390625 c 0.046875,0.109375 0.0625,0.109375 0.0625,0.140625 0,0.078125 -0.203125,0.25 -0.578125,0.28125 C 4.671875,-0.296875 4.578125,-0.296875 4.578125,-0.125 4.578125,0 4.6875,0 4.71875,0 5,0 5.703125,-0.03125 5.984375,-0.03125 6.234375,-0.03125 6.84375,0 7.09375,0 c 0.0625,0 0.1875,0 0.1875,-0.1875 0,-0.125 -0.109375,-0.125 -0.1875,-0.125 -0.65625,0 -0.6875,-0.03125 -0.859375,-0.4375 C 5.859375,-1.671875 5.1875,-3.234375 4.953125,-3.828125 5.625,-4.53125 6.671875,-5.71875 7,-5.984375 7.28125,-6.234375 7.671875,-6.46875 8.265625,-6.5 c 0.125,-0.015625 0.21875,-0.015625 0.21875,-0.203125 0,0 0,-0.109375 -0.125,-0.109375 -0.296875,0 -0.640625,0.03125 -0.9375,0.03125 -0.375,0 -0.75,-0.03125 -1.109375,-0.03125 -0.0625,0 -0.1875,0 -0.1875,0.203125 0,0.0625 0.046875,0.09375 0.109375,0.109375 0.09375,0.015625 0.40625,0.03125 0.40625,0.3125 0,0.140625 -0.109375,0.265625 -0.1875,0.359375 z m 0,0"
             id="path121" />
        </g>
      </g>
    </g>
  </g>
</svg>
